<svg id="Layer_2" data-name="Layer 2" xmlns="http://www.w3.org/2000/svg" width="52.96" height="48.93" viewBox="0 0 52.96 48.93"><defs><style>.cls-1{opacity:0.2;}.cls-2{fill:#34b77f;}.cls-3{fill:#fff;}</style></defs><title>bike</title><path class="cls-1" d="M9.65,48.93s6.4-.9,9.1-4.2c4.8,0.8,17.5,1.5,25-1.8s9.4-11.3,9.2-18.4-0.4-12.1-4.4-16.5-9.1-5.2-14.7-5.7S9,0.53,4.55,11.13,1.15,37,9.85,41.93c0.3,0.7,1.4,2.4-.2,7"/><path class="cls-2" d="M7.65,46.93s6.4-.9,9.1-4.2c4.8,0.8,17.5,1.5,25-1.8s9.4-11.3,9.2-18.4-0.4-12.1-4.4-16.5-9.1-5.2-14.7-5.7S7-1.47,2.55,9.13s-3.4,25.9,5.3,30.8c0.3,0.7,1.4,2.4-.2,7"/><path class="cls-3" d="M13.65,33.13a7.09,7.09,0,0,1-5.2-2.2,7.5,7.5,0,0,1-2.2-5.2,7.09,7.09,0,0,1,2.2-5.2,7.69,7.69,0,0,1,5.2-2.2,7.09,7.09,0,0,1,5.2,2.2,7.69,7.69,0,0,1,2.2,5.2,7.09,7.09,0,0,1-2.2,5.2,7.09,7.09,0,0,1-5.2,2.2h0Zm-4-3.4a5.85,5.85,0,0,0,4,1.7,5.44,5.44,0,0,0,4-1.7,5.85,5.85,0,0,0,1.7-4,5.44,5.44,0,0,0-1.7-4,5.85,5.85,0,0,0-4-1.7,5.44,5.44,0,0,0-4,1.7,5.85,5.85,0,0,0-1.7,4,5.28,5.28,0,0,0,1.7,4h0Z"/><path class="cls-3" d="M37.45,25.53a0.54,0.54,0,1,1-1,.4l-5.8-13.7a0.52,0.52,0,0,1,.3-0.7l3.4-1.7a0.67,0.67,0,0,1,.8.3,0.67,0.67,0,0,1-.3.8L32,12.33l5.5,13.2h0Z"/><path class="cls-3" d="M37,33.13a7.09,7.09,0,0,1-5.2-2.2,7.5,7.5,0,0,1-2.2-5.2,7.09,7.09,0,0,1,2.2-5.2,7.69,7.69,0,0,1,5.2-2.2,7.09,7.09,0,0,1,5.2,2.2,7.69,7.69,0,0,1,2.2,5.2,7.51,7.51,0,0,1-7.4,7.4h0Zm-4-3.4a5.85,5.85,0,0,0,4,1.7,5.44,5.44,0,0,0,4-1.7,5.85,5.85,0,0,0,1.7-4,5.44,5.44,0,0,0-1.7-4A5.85,5.85,0,0,0,37,20a5.44,5.44,0,0,0-4,1.7,5.85,5.85,0,0,0-1.7,4,5.28,5.28,0,0,0,1.7,4h0Z"/><path class="cls-3" d="M23.65,26.33H12.55l0.6-.9,6-9.4,0.1-.2h0.3L32.05,14l0.5,1.1L24.15,26l-0.2.2-0.3.1h0Zm-9.1-1.2h8.8l7.5-9.8-11.1,1.6-5.2,8.2h0Z"/><polygon class="cls-3" points="22.95 25.93 17.65 13.43 18.75 13.03 24.05 25.53 22.95 25.93"/><polygon class="cls-3" points="32.65 17.03 31.25 13.63 32.25 13.13 33.65 16.53 32.65 17.03"/><path class="cls-3" d="M16,13.53a0.8,0.8,0,0,1,0-1.6,46.84,46.84,0,0,0,5.3,0,0.5,0.5,0,0,1,0,1c-0.9,0-2,.5-2.6.5l-2.7.1h0Z"/><circle class="cls-3" cx="34.55" cy="10.33" r="1.1"/><circle class="cls-3" cx="36.95" cy="25.73" r="1.1"/><circle class="cls-3" cx="13.55" cy="25.73" r="1.1"/><circle class="cls-3" cx="23.65" cy="25.73" r="2"/></svg>