<svg id="Layer_2" data-name="Layer 2" xmlns="http://www.w3.org/2000/svg" xmlns:xlink="http://www.w3.org/1999/xlink" width="58.79" height="53.88" viewBox="0 0 58.79 53.88"><defs><style>.cls-1{opacity:0.2;}.cls-2{fill:#4fc7e2;}.cls-3{fill:#fff;}.cls-4{fill:url(#linear-gradient);}.cls-5{fill:url(#linear-gradient-2);}.cls-6{fill:url(#linear-gradient-3);}</style><linearGradient id="linear-gradient" x1="-449.07" y1="550.83" x2="-448.07" y2="550.83" gradientTransform="translate(2507.89 -3033.55) scale(5.54)" gradientUnits="userSpaceOnUse"><stop offset="0" stop-color="#d2d3d4"/><stop offset="0.01" stop-color="#d2d3d4"/><stop offset="0.11" stop-color="#d2d3d4"/><stop offset="0.2" stop-color="#cfd0d1"/><stop offset="0.57" stop-color="#c6c7c9"/><stop offset="1" stop-color="#c3c4c6"/></linearGradient><linearGradient id="linear-gradient-2" x1="-417.82" y1="435.39" x2="-416.82" y2="435.39" gradientTransform="translate(3347.52 -3446.54) scale(7.96)" xlink:href="#linear-gradient"/><linearGradient id="linear-gradient-3" x1="-450.58" y1="556.35" x2="-449.57" y2="556.35" gradientTransform="translate(2482.21 -3016.08) scale(5.46)" xlink:href="#linear-gradient"/></defs><title>cooking</title><path class="cls-1" d="M10.67,53.88s7.1-1,10.1-4.6c5.4,0.9,19.5,1.6,27.8-2S59,34.78,58.77,26.78s-0.4-13.4-5-18.3-10.1-5.8-16.3-6.3-27.7-2-32.6,9.8S1,40.88,10.77,46.28c0.4,0.6,1.6,2.5-.1,7.6"/><path class="cls-2" d="M8.65,52s7.1-1,10.1-4.6c5.4,0.9,19.5,1.6,27.8-2S57,32.94,56.75,24.94s-0.4-13.4-5-18.3-10.1-5.8-16.3-6.3-27.7-2-32.6,9.8S-1,39,8.75,44.44c0.4,0.6,1.6,2.5-.1,7.6"/><path class="cls-3" d="M42.25,27.94a1.59,1.59,0,0,1,1.5,2c-1,7.1-6,12.5-15.7,12.5s-14.6-5.5-15.7-12.5a1.68,1.68,0,0,1,1.32-2l0.18,0h28.4Z"/><path class="cls-3" d="M39,8.64l-6.6,4a0.63,0.63,0,0,0-.11.88v0l0.1,0.1-1.6,1.1h-0.3c-2.2-.2-9-0.4-10.9,2.7-0.8,1.4-.6,3.1.8,5.2s2.9,3,4.4,2.8c3.5-.5,6-6.8,6.7-8.9l0.1-.2h0l1.7-1.1,0.1,0.1a0.55,0.55,0,0,0,.74.24l0.06,0,7.1-5.1c1-.6,2.5-1.8,1.9-2.7-0.8-1.3-3.3.2-4.2,0.9"/><path class="cls-2" d="M20.75,18.14c0.7-1.2,2.9-1.7,5.3-1.9l-0.2.1c-2.6,1-4.4,2.2-5.3,3.6a2.51,2.51,0,0,1,.2-1.8"/><path class="cls-4" d="M20.75,18.14h0c0.7-1.2,2.9-1.7,5.3-1.9l-0.2.1c-2.6,1-4.4,2.2-5.3,3.6a2.2,2.2,0,0,1-.1-0.8,1.69,1.69,0,0,1,.3-1h0a1.49,1.49,0,0,0-.2.9,2.49,2.49,0,0,0,.1.8c0.9-1.4,2.7-2.5,5.3-3.6l0.2-.1c-2.5.3-4.7,0.8-5.4,2h0Z"/><path class="cls-2" d="M21.45,21.64c0.5-2.1,5-4,8-4.9-2,2.4-5.9,5.3-8,4.9"/><path class="cls-5" d="M21.45,21.64h0c0.5-2.1,5-4,8-4.9-1.9,2.2-5.4,4.9-7.6,4.9h0c2.2,0,5.7-2.7,7.6-4.9-3,.9-7.5,2.8-8,4.9h0Z"/><path class="cls-2" d="M24.45,23.64a1.82,1.82,0,0,1-1.6-.6c1.6-.3,3.4-1.5,5.3-3.4l0.1-.1c-1.1,2.1-2.5,3.9-3.8,4.1"/><path class="cls-6" d="M24.45,23.64h-0.2a2.16,2.16,0,0,1-1.4-.6c1.6-.3,3.4-1.5,5.3-3.4l0.1-.1c-1.1,2.1-2.5,3.9-3.8,4.1h0c1.3-.2,2.7-2,3.8-4.1l-0.1.1a10.46,10.46,0,0,1-5.3,3.4,2.16,2.16,0,0,0,1.4.6c0,0.1.1,0,.2,0h0Z"/></svg>