<?xml version="1.0" encoding="utf-8"?>
<!-- Generator: Adobe Illustrator 18.0.0, SVG Export Plug-In . SVG Version: 6.00 Build 0)  -->
<!DOCTYPE svg PUBLIC "-//W3C//DTD SVG 1.1//EN" "http://www.w3.org/Graphics/SVG/1.1/DTD/svg11.dtd">
<svg version="1.1" id="Layer_1" xmlns="http://www.w3.org/2000/svg" xmlns:xlink="http://www.w3.org/1999/xlink" x="0px" y="0px"
	 viewBox="0 0 350 240" style="enable-background:new 0 0 350 240;" xml:space="preserve">
<ellipse style="fill:#030303;" cx="220.5" cy="186.5" rx="1.2" ry="1.2"/>
<path style="fill:#AFB4BB;" d="M226.2,222c0-1.5,1.3-1,1.4-1.4c0.5-2,0.3-2.8,0.3-3.1c0-0.4-0.7-3.8-0.9-5.7
	c-0.3-2-1.3-9.5,0.1-13.8c1-3,3.1-6.1,6.6-9.5c2.4-2.3,8.8-3.4,14.7,4.8c5.9,8.2,6.7,17.3,7.3,20.6c0.7,3.3,0.8,9.8,0.4,10.7
	c-0.4,0.9-6.3,1.8-6.4,0s-0.7-11.1-2.7-13.1s-2.1-8.1-5.9-7.3c-4.8,1-6.6,6.4-6.5,9.8c0.1,3.4,3.6,10.3-0.3,10
	C230.5,223.6,226.2,225.1,226.2,222z"/>
<path style="fill:#868A8E;" d="M255.8,212.9c0.7,3.3,0.5,10.6,0.4,11.6c-0.2,1.7-7.6,2.2-7.5,0.4c0.1-1.6,1.1-1.5,1.1-2.4
	c-0.1-3.6-0.5-10.2-2-11.9c-2-2.1-2.7-8.2-6.5-7.4"/>
<path style="fill:#868A8E;" d="M233.8,188.4"/>
<ellipse style="fill:#9B9FA4;" cx="246.2" cy="210.9" rx="6.6" ry="2.3"/>
<path style="fill:#AFB4BB;" d="M232.4,170.3c-3,0.4-7,1.2-7.9,2.9s-2.1,2.2-2,4.4c0.1,2.2,0.6,4,0,5.2c-0.6,1.2-2.5,2.5-2.3,3.9
	c0.1,1.4,1.8,5.3,4.4,5.3c2.6,0,3.4,3.9,3.4,3.9l29.9-0.4l-11.7-11.3c0,0-3.9-9.7-7.3-11.7C235.5,170.7,235.4,169.9,232.4,170.3"/>
<path style="fill:#868A8E;" d="M240.2,196.9c-3.4,2.2-6.9,11.1-7.1,13.9c-0.1,2.8,2.6,8.9,2.6,8.9L240.2,196.9z"/>
<path style="fill:#AFB4BB;" d="M245.6,186.1c0.2,0.2,0.2,0.5,0.2,0.7c-0.2-0.1-0.5-0.1-0.7-0.1h0c-0.4,1.4-1.3,2.6-2.5,3.5
	c0.1,0.3,0.2,0.6,0.1,0.8c-0.1-0.2-0.3-0.4-0.6-0.5c-0.1,0.1-0.2,0.1-0.3,0.2c-4.4,2.8-12,2.6-15.8-0.3c-0.1-0.1-0.2-0.2-0.3-0.3
	c-0.8-0.7-1.4-1.4-1.9-2.2c-0.1,0-0.2,0.1-0.3,0.1c0-0.1,0.1-0.2,0.2-0.3c-0.2-0.2-0.3-0.5-0.4-0.8c-0.2,0-0.3,0-0.5,0.1
	c0-0.2,0-0.4,0.1-0.6c-0.2,0-0.4,0.1-0.5,0.1c0-0.3,0.2-0.7,0.5-0.8c-0.3-1.2-0.3-2.5-0.1-3.8c0.1-0.6,0.3-1.2,0.5-1.8l0-0.1l0,0
	c0.9-2.4,2.5-4.8,4.2-7c0.7-0.8,1.4-1.3,2.2-1.8c3.2-1.8,7.2-1.3,9.6,1c3.9,3.8,6.7,7.6,6,12.8c0.4,0.2,0.7,0.7,0.8,1.1
	C246,186.2,245.8,186.2,245.6,186.1"/>
<path style="fill:#868A8E;" d="M256.4,197.6c-7.9-11.3-9.8-14.4-19.3-10.5c-2.2,0.9-3.6,4.1-0.5,7.3c3.3,3.4,2.9,9.9,2.9,9.9
	L256.4,197.6z"/>
<path style="fill:#AFB4BB;" d="M233.1,229.3c0.2-2,1.1-1.4,1.6-2.4c0.5-1,0-2.1,0-2.3c0-0.4-0.7-3.8-0.9-5.7
	c-0.3-2-0.5-6.9,0.9-11.2c1-3,2.3-8.7,5.9-12.1c2.4-2.3,12.1-6.2,18.9,1.5c6.7,7.6,5.8,18.1,6.5,21.3c0.7,3.3,2.3,10.7,2,11.6
	s-8.1,2.1-8.1,0.2c0-1.9,1.6-1.2,1.4-2c-0.7-3.5-2.6-10.5-4.1-12.1c-2-2.1-5.3-5.6-9.1-4.8c-4.8,1-6.6,6.4-6.5,9.8
	c0.1,3.4,3.6,9.7-0.3,10C236.7,231.3,232.9,231.3,233.1,229.3z"/>
<path style="fill:#868A8E;" d="M230.9,203.1c0,0-0.1,3.3,0.5,4.4c0.6,1.1,1.9,2.7,1.9,2.7l0.8-2.1
	C233.9,209.3,230.7,207.5,230.9,203.1z"/>
<path style="fill:#9B9FA4;" d="M230.5,175.1c-1.3,1.6-3.1,2.2-4.2,4c-1.3,2.4-2.3,4.4-4.8,2.1c-5-4.4,5.4-11.2,8.6-10.3l0.1,0
	c0.4,0.1,0.8,0.4,1,1C231.5,173.1,231.1,174.3,230.5,175.1"/>
<path style="fill:#868A8E;" d="M231.2,172.1c0,0.7-0.3,1.5-0.9,2.1c-0.8,0.9-2.2,1.4-3.2,2c-1.2,0.7-1.7,1.7-2.3,3
	c-0.5,1-1,2.2-2.3,2.3c0,0,0,0-0.1,0c-0.3,0-0.8-0.1-1.2-0.3l0.1,0.1c0,0,0,0,0,0c0.8,0.7,1.5,1,2.1,1c1.1-0.1,1.9-1.5,2.7-3.1
	c1.1-1.8,2.9-2.4,4.2-4c0.1-0.1,0.2-0.3,0.3-0.4C231.2,174,231.5,173,231.2,172.1"/>
<path style="fill:#9B9FA4;" d="M246.2,181.2c-2.6,0.4-4.2-3.4-5.3-5.3c-0.7-1.2-3.8-3.4-2.2-4.4h0c1.7-0.7,6.8,2.5,8.4,4.5
	C248.2,177.6,248.8,180.7,246.2,181.2"/>
<path style="fill:#868A8E;" d="M238.5,171.5c-0.3,0.2-0.4,0.6-0.4,1c0,1.5,2.2,2.5,2.7,3.4c0.9,1.5,1.9,4.8,3.8,5.2
	c0.3,0.1,0.6,0.1,0.9,0.1c0.2,0,0.4,0,0.6,0c0.6-0.1,1-0.4,1.3-0.7c-0.2,0-0.4,0-0.6,0c-4.2,0-5-4.9-5.5-5.7
	C240.7,173.8,238.8,172.9,238.5,171.5"/>
<path style="fill:#1C62B0;" d="M246.9,185.1c0,0-1.5-0.4-3.3-0.2c-2.8,0.3-6.1,1-9.1,3.6c-1.9,1.6-3.7,4-5.1,5.8
	c-0.8,1-1.4,1.7-1.4,1.7l-0.3-0.9c0,0,1-3.1,5.5-6.9c4.1-3.5,9.5-4.5,13-3.8C246.6,184.4,246.9,185.1,246.9,185.1z"/>
<path style="fill:#868A8E;" d="M263.1,181.7c0,0-2.6,2-3.6,6.2c-0.6,2.4-1.7,8.9-3.9,11.1c-1.1,1.2-5.4,2.5-6.2,1.5
	c-0.8-1,5-10.7,5-10.7S260.1,181.9,263.1,181.7z"/>
<path style="fill:#9B9FA4;" d="M263.1,181.7c0,0-1.7-0.9-3.4,0.5s-6.4,9.4-7.2,10.5c-0.9,1.3-1.8,4-3.8,4.3s0.8,3.5,0.8,3.5
	s2.5-0.4,5.3-4.2c1.3-1.7,2.1-4.8,3.2-7.7C259.5,185.1,261.3,181.8,263.1,181.7z"/>
<path style="fill:#C6CBCE;" d="M128.6,203.2c-0.2,0.2-0.3,0.6-0.3,0.9c0.3-0.1,0.6-0.1,0.9-0.1h0c0.5,1.8,1.6,3.2,3.1,4.4
	c-0.1,0.3-0.2,0.7-0.2,1c0.2-0.3,0.4-0.5,0.7-0.6c0.1,0.1,0.2,0.1,0.3,0.2c5.5,3.5,14.8,3.2,19.5-0.4c0.1-0.1,0.3-0.2,0.4-0.3
	c1-0.9,1.8-1.8,2.3-2.7c0.1,0,0.3,0.1,0.4,0.2c0-0.2-0.1-0.3-0.2-0.4c0.2-0.3,0.4-0.6,0.5-0.9c0.2,0,0.4,0.1,0.6,0.1
	c0-0.2,0-0.5-0.1-0.8c0.2,0,0.5,0.1,0.7,0.2c-0.1-0.4-0.3-0.8-0.6-1c0.4-1.5,0.4-3.1,0.1-4.6c-0.1-0.8-0.4-1.5-0.6-2.3l0-0.1l0,0
	c-1.1-3-3.1-5.9-5.2-8.6c-0.8-0.9-1.7-1.7-2.7-2.2c-3.9-2.2-8.9-1.7-11.8,1.2c-4.8,4.6-8.3,9.4-7.4,15.8c-0.5,0.3-0.8,0.9-1,1.4
	C128.1,203.4,128.4,203.3,128.6,203.2"/>
<path style="fill:#C6CBCE;" d="M130,229.9c0.6-9.9,5.8-14.5,8.1-14.5c1.2,0,1.5,2.8,3.1,4.1c0.5,0.5,2.5-1.2,2.5-1.2
	s0.3,1.1,0.3,1.7c0.2,3.6,0.4,10.3,1,10.5c3.1,1.2,7-0.5,4.4-2.7c0.4-3.9,0.3-15.6-4.9-22.1c-1-1.2-3.7-2.7-7.8-2.7
	c-2.3,0-13.3,4.1-14.7,5.6c-2.3,2.6,4.3,11.8,4.2,12.3c-0.2,2.2-0.3,4.4-0.2,6.5c-0.4,0.4-0.6,0.8-0.7,1.1c-0.2,1,0.1,2,1,2.1
	C127.3,230.7,129.9,230.5,130,229.9z"/>
<path style="fill:#B8C1CB;" d="M138.6,217.3c0,0,1.3,2.3,2.9,2.3s2.9-2.3,2.9-2.3s-1.3,0.9-2.9,0.9S138.6,217.3,138.6,217.3z"/>
<path style="fill:#AFB6BE;" d="M122.9,214.6c0,4.2,3.6,6.5,8.1,6.5c4.5,0,8.1-2.3,8.1-6.5c0-4.2-3.6-7.7-8.1-7.7
	C126.5,207,122.9,210.4,122.9,214.6z"/>
<path style="fill:#B8C1CB;" d="M137.4,211.3c1.5,1.1,3.9,4,4,7.4c0.3,0.1-0.4,1.8-1.1,1.6c-0.2-0.4-0.4-0.8-0.8-1.1
	c0.3-1.9-2-5.4-3-7.5"/>
<path style="fill:#C6CBCE;" d="M124.1,233c1.3-20.3,10.3-18.4,9.8,0c0,0.6,0,0.3,3.3,0.6c3.3,0.3,7-0.5,4.4-2.7
	c0.4-3.9,0.3-15.6-4.9-22.1c-1-1.2-3.7-2.7-7.8-2.7c-2.3,0-6.7,1.2-8.1,2.7c-2.3,2.6-3.3,8.3-4,13.7v0c-0.1,0.5-0.1,1-0.2,1.5
	c-0.2,2.2-0.3,4.4-0.2,6.5c-0.4,0.4-0.6,0.8-0.7,1.1c-0.2,1,0.9,2.1,1.9,2.1C118.4,233.8,124.1,233.6,124.1,233z"/>
<g>
	<path style="fill:#A05D41;" d="M112,202.9c0,4.2,4.9,11.5,9.4,12.3c4.6,0.8,7.9-0.2,7.9-4.4c0-4.2-1.4-0.3-7-0.1
		c-1.4,0.1-2.8-1.2-4.1-2.8c-0.6-0.8-1.2-1.7-1.7-2.5c-0.5-0.7-2.3-2-2.3-2S112,201.3,112,202.9z"/>
	<path style="fill:#A05D41;" d="M112.7,207.3c-0.4,2,6.1,7.2,8.7,7.9c-0.3-0.1-4.7-6.2-4.5-6.7c-0.9-1.8-3.8-7.6-4-8.1
		c-0.2,0.4-0.2,0.8-0.2,1.2c-0.4-0.4-0.8-1.1-0.9-1.9c-0.9,1.4-0.6,3.9,0.5,5.4c-0.4,0.1-0.8,0.1-1.2,0
		C111.4,206.1,111.8,206.8,112.7,207.3"/>
	<path style="fill:#A05D41;" d="M118.6,205.9c1.3,0.6,0.7,4.5,4.8,4.6c0.4,0-0.1,0.7-0.2,0.7c-0.5,0.2-3.9-1.7-4.4-1.8
		c-1.3-1.6-2.8-3.2-4.4-4.7c-0.4-0.4-0.7-0.7-1.1-1l0,0c0.1-0.4,0-0.7-0.3-1.1c0.3,0.1,0.7,0.3,0.9,0.5c-0.3-0.5-0.7-1.1-1.3-1.6
		c1.3,0.1,3.2,1.6,4.2,3.1c0.1-0.2,0.2-0.5,0.2-0.8C117.9,204.4,118.4,205.1,118.6,205.9"/>
</g>
<path style="fill:#A05D41;" d="M147.2,189.7c1.6,2,3.9,2.7,5.2,5c1.6,2.9,2.8,5.4,5.9,2.6c6.1-5.4-6.6-13.8-10.6-12.7l-0.1,0
	c-0.6,0.1-1,0.5-1.3,1.3C145.9,187.2,146.5,188.7,147.2,189.7"/>
<path style="fill:#8E5032;" d="M146.3,186c0,0.9,0.4,1.8,1.1,2.5c1,1.1,2.7,1.7,3.9,2.4c1.5,0.9,2.1,2.1,2.9,3.7
	c0.6,1.2,1.3,2.7,2.8,2.8c0,0,0.1,0,0.1,0c0.4,0,0.9-0.1,1.5-0.3l-0.2,0.1c0,0,0,0,0,0c-1,0.9-1.9,1.2-2.6,1.2
	c-1.4-0.1-2.3-1.9-3.4-3.8c-1.3-2.3-3.6-3-5.2-5c-0.1-0.2-0.2-0.3-0.3-0.5C146.3,188.2,146,187,146.3,186"/>
<path style="fill:#A05D41;" d="M127.8,197.1c3.2,0.5,5.8-2.6,7.3-4.9c0.8-1.5,4-5.9,2.1-7.1h0c-2-0.8-8.4,3.1-10.3,5.6
	C125.4,192.7,124.6,196.5,127.8,197.1"/>
<path style="fill:#8F7F5F;" d="M129.6,197L129.6,197c-0.4,0.1-0.7,0.1-1.1,0.1h0C128.9,197.2,129.3,197.1,129.6,197"/>
<path style="fill:#8E5032;" d="M137.3,185.2c0.3,0.3,0.5,0.7,0.5,1.2c0,1.8-2,4.6-2.7,5.8c-1.1,1.9-3.1,4.2-5.4,4.8
	c-0.4,0.1-0.7,0.1-1.1,0.1c-0.2,0-0.5,0-0.7-0.1c-0.7-0.1-1.3-0.5-1.6-0.9c0.3,0,0.5,0,0.8,0c5.2,0,7.7-5.4,8.4-6.4
	C136.2,188.6,136.9,186.9,137.3,185.2"/>
<path style="fill:#D76317;" d="M135,203.2l-0.3,0.2c0,0,1.5,0.1,2.7,0.2c1.8,0.2,3.6,0.6,5.6,2.2c1.2,1,2.3,2.4,3.3,3.5
	c0.5,0.7,1.1,1.7,1.1,1.7l0.8-0.4c0,0-0.5-3.1-3.3-5.6c-2.6-2.3-7.7-2.4-9.4-2C135,203.2,135,203.2,135,203.2z"/>
<g>
	<path style="fill:#96683D;" d="M307.1,171.9c0.3,0.3,0.4,0.8,0.4,1.3c-0.4-0.2-0.8-0.2-1.2-0.2h0c-0.7,2.6-2.1,4.8-4,6.4
		c0.1,0.5,0.2,1,0.2,1.5c-0.2-0.4-0.6-0.7-1-0.9c-0.1,0.1-0.3,0.2-0.4,0.3c-7.2,5.1-19.5,4.8-25.6-0.5c-0.2-0.2-0.4-0.3-0.5-0.5
		c-1.3-1.3-2.3-2.6-3.1-3.9c-0.2,0-0.4,0.1-0.6,0.2c0.1-0.2,0.2-0.4,0.3-0.6c-0.2-0.4-0.5-0.9-0.6-1.4c-0.2,0-0.5,0.1-0.7,0.2
		c-0.1-0.4,0-0.7,0.1-1.1c-0.3,0-0.6,0.1-0.9,0.3c0.1-0.6,0.4-1.2,0.8-1.5c-0.5-2.2-0.5-4.5-0.1-6.9c0.2-1.1,0.5-2.2,0.8-3.3l0-0.1
		l0-0.1c1.5-4.4,4.1-8.8,6.8-12.7c1.1-1.4,2.3-2.5,3.6-3.3c5.1-3.3,11.7-2.4,15.6,1.8c6.3,6.9,10.6,15.7,9.4,25.2
		c0.6,0.4,1.6,0.3,1.6,0.3C307.7,172.1,307.4,172,307.1,171.9"/>
	<path style="fill:#96683D;" d="M311.7,216.6c-0.1-0.6-0.4-1.2-1-1.9c0.1-3.4,0-10.7-0.3-14.5c-0.1-0.8,9.4-16.4,6.1-20.7
		c-1.9-2.5-17.8-9.5-21.1-9.4c-5.9,0-9.8,2.4-11.2,4.5c-7.4,11-7.5,34.2-7,40.9c-3.6,3.6,1.9,6.5,6.4,4.5c0.8-0.3,1.1-15.2,1.4-21.2
		c0-1.2,0.1-3.8,0.1-3.8s2.9,2.5,3.9,2.8c3.9,1.5,6.8,3.5,8.6,3.5c2,0,1.1-6.5,3.8,0.2c1.8,4.6,3.3,10.6,3.6,17.4
		c0.1,1,2.8,1.3,3.9,1.3C311.6,220.1,312,218.3,311.7,216.6z"/>
	<path style="fill:#B58857;" d="M308.9,201.1c0,0-6.2,2-12.8,0.3c-6.6-1.7-11-6.6-11-6.6s5,2.9,11.5,4.6
		C303.2,201.1,308.9,201.1,308.9,201.1z"/>
	<path style="fill:#B58857;" d="M302.3,183.8c-2.1,1.9-7.2,10.8-7.3,16.6c-0.4,0.1,2.2-1.1,3.1-1.3c0.2-0.7,0.6-1.4,1.2-1.9
		c-0.4-3.1,2.9-9.2,4.3-12.7"/>
	<path style="fill:#313133;" d="M304.4,140.4c-0.2,2.9-1.7,4.8-1.7,7.9c0.2,4,0.8,6.3-3.5,5.6c-13-2-1.8-18.5,2.1-19l0.1,0
		c0.5-0.1,1.1,0.1,1.7,0.9C304.1,137.1,304.4,139,304.4,140.4"/>
	<path style="fill:#3F3F40;" d="M303.2,135.9c0.4,1,0.6,2.2,0.4,3.3c-0.3,1.7-1.3,3.1-2,4.5c-0.8,1.7-0.6,3.4-0.4,5.4
		c0.1,1.6,0.4,3.6-0.8,4.4c0,0,0,0-0.1,0c-0.3,0.2-0.8,0.3-1.4,0.3l0.2,0.1c0,0,0,0,0,0c1.3,0.6,2.2,0.6,2.7,0.2
		c1.1-0.8,0.9-3.1,0.8-5.8c-0.1-3.1,1.4-5,1.7-7.9c0-0.2,0-0.5,0-0.7C304.3,138.4,304,136.9,303.2,135.9"/>
	<path style="fill:#880C51;" d="M306.5,170.3l0.1,1.1c0,0-1-0.3-2.7-0.1c-2.6,0.3-12.1-1.8-17.6,3.3c-1.8,1.7-3.3,4-4.7,6
		c-0.7,1.1-1.2,2.2-1.2,2.2l-1.1-0.6c0,0,2.4-7.9,7.7-10.4C296.9,167.1,304.1,169.6,306.5,170.3
		C307.2,170.5,306.5,170.3,306.5,170.3z"/>
	<path style="fill:#313133;" d="M273.7,153.5c2.6,6.2,12.5,1.5,9.9-4.7c-2.6-6.2-7.8-12.3-10.6-11c-1.4,0.6,0,3.3,0.2,6.2
		C273.3,147,272.4,150.4,273.7,153.5z"/>
	<path style="fill:#3F3F40;" d="M273.7,153.5c0.9,2.1,2.6,2.6,2.6,2.6s-2.4-4.3-1-8.1c1.4-3.8-2.2-10.2-2.2-10.2s-0.4,0.3-0.5,0.6
		c-0.3,1.1,0.5,3.2,0.7,5.6C273.3,147,272.4,150.4,273.7,153.5z"/>
	<path style="fill:#603B1D;" d="M321.5,178c-2.3-2.5-17.4-8.1-21.2-8.1c-7,0-10.9,2.4-13.2,4.5c-1.9,1.8-3,4.4-4,7.1
		c-1,2.7,12-0.9,14-1.1C299,180.3,321.5,178,321.5,178z"/>
	<path style="fill:#B58857;" d="M327.6,190.7c0,7.1-6.2,11-13.8,11c-7.6,0-13.8-3.9-13.8-11c0-7.1,6.2-12.9,13.8-12.9
		C321.4,177.7,327.6,183.5,327.6,190.7z"/>
	<path style="fill:#96683D;" d="M333.3,221.8c-0.1-0.6-0.4-1.2-1-1.9c0.1-3.4,0-10.7-0.3-14.5c-0.1-0.8-0.2-1.7-0.3-2.5v0
		c-1-9.1-2.4-18.7-5.8-23c-1.9-2.5-8.3-4.6-11.6-4.6c-5.9,0-9.8,2.4-11.2,4.5c-7.4,11-7.5,34.2-7,40.9c-3.6,3.6,1.6,4.8,6.4,4.5
		c4-0.2,4-0.1,3.9-1.1c-1.1-37.4,13.8-34.1,15.7,0.1c0.1,1,6.5,1.5,7.4,1.4C332.3,225.3,333.6,223.5,333.3,221.8z"/>
	<g>
		<path style="fill:#B58857;" d="M338.8,169.8c0,7.1-7.1,19.4-13.5,20.7c-6.6,1.4-12.3,0.4-11.4-7.5c0.4-3.8,2-0.6,10-0.2
			c2,0.1,4-2,5.8-4.8c0.9-1.3,1.7-2.8,2.5-4.3c0.7-1.2,3.2-3.4,3.2-3.4S338.8,166.9,338.8,169.8z"/>
		<path style="fill:#B58857;" d="M337.8,177.1c0.5,3.3-8.8,12.2-12.5,13.4c0.5-0.2,6.8-10.4,6.4-11.4c1.3-3,5.4-12.8,5.8-13.6
			c0.3,0.7,0.3,1.3,0.2,1.9c0.6-0.7,1.1-1.8,1.3-3.1c1.3,2.4,0.9,6.5-0.7,9.1c0.6,0.1,1.1,0.2,1.7,0
			C339.7,175.1,339.1,176.3,337.8,177.1"/>
		<path style="fill:#313133;" d="M329.3,174.8c-1.8,1-3.7,8.7-15,5.6c-0.6-0.2-0.3,6.9-0.2,6.9c11.7,2.3,14.1-6.3,14.8-6.5
			c1.8-2.6,4-5.4,6.3-8c0.5-0.6,1-1.2,1.5-1.7l0,0c-0.1-0.6,0-1.2,0.4-1.9c-0.5,0.1-1,0.4-1.4,0.8c0.4-0.9,1-1.8,1.9-2.7
			c-1.9,0.2-4.6,2.7-6.1,5.2c-0.2-0.4-0.3-0.8-0.3-1.4C330.4,172.3,329.6,173.4,329.3,174.8"/>
	</g>
</g>
<path style="fill:#F69F29;" d="M23,204.8c-0.1,0.2-0.2,0.4-0.2,0.7c0.2-0.1,0.4-0.1,0.6-0.1h0c0.4,1.3,1.1,2.4,2.2,3.3
	c-0.1,0.3-0.1,0.5-0.1,0.8c0.1-0.2,0.3-0.3,0.5-0.5c0.1,0.1,0.2,0.1,0.2,0.2c3.9,2.6,10.5,2.4,13.8-0.3c0.1-0.1,0.2-0.2,0.3-0.2
	c0.7-0.6,1.3-1.3,1.7-2c0.1,0,0.2,0.1,0.3,0.1c0-0.1-0.1-0.2-0.2-0.3c0.1-0.2,0.3-0.5,0.3-0.7c0.1,0,0.3,0,0.4,0.1
	c0-0.2,0-0.4-0.1-0.6c0.2,0,0.3,0.1,0.5,0.1c0-0.3-0.2-0.6-0.4-0.8c0.3-1.1,0.3-2.3,0.1-3.5c-0.1-0.6-0.3-1.1-0.5-1.7l0,0l0,0
	c-0.8-2.3-2.2-4.5-3.7-6.4c-0.6-0.7-1.2-1.2-1.9-1.7c-2.8-1.7-6.3-1.2-8.4,0.9c-3.4,3.5-5.7,8-5.1,12.8c-0.3,0.2-0.9,0.1-0.9,0.1
	C22.6,204.9,22.8,204.8,23,204.8"/>
<path style="fill:#F69F29;" d="M24,228.6c0.2-3.5,0.9-6.5,1.9-8.8c1.3-3.4,0.9-0.1,1.9-0.1c0.9,0,2.4-1.1,4.4-1.8
	c0.5-0.2,2-1.4,2-1.4s0,1.3,0.1,1.9c0.1,3.1,0.3,10.6,0.7,10.8c2.3,1,5.1-0.5,3.2-2.3c0.3-3.4,0.2-15.2-3.5-20.7
	c-0.7-1-6.3-2.4-9.3-2.4c-1.6,0-10.1,3.2-11.1,4.5c-1.7,2.2,7.2,10.5,7.2,10.9c-0.2,1.9-0.2,5.6-0.2,7.3c-0.3,0.4-0.5,0.7-0.5,1
	c-0.2,0.9-0.1,1.3,0.7,1.6C22,229.3,24,229.1,24,228.6z"/>
<path style="fill:#B58857;" d="M22,218.8c0,0,3.2,1.8,6.5,1c3.3-0.9,5.6-3.5,5.6-3.5s-2.5,1.6-5.8,2.5S22,218.8,22,218.8z"/>
<path style="fill:#B58857;" d="M25.4,210.8c1.1,1,3.7,5.5,3.7,8.4c0.2,0.1-1.5,0.1-2,0c-0.1-0.3,0.1-1.3-0.2-1.6
	c0.2-1.6-1.5-4.7-2.2-6.4"/>
<path style="fill:#CE8126;" d="M24.4,188.8c0.1,1.5,0.9,2.4,0.9,4c-0.1,2-0.4,3.2,1.9,2.8c7-1,1-9.4-1.1-9.6l-0.1,0
	c-0.3-0.1-0.6,0.1-0.9,0.4C24.6,187.1,24.4,188.1,24.4,188.8"/>
<path style="fill:#880C51;" d="M22.8,204.1l-0.2,0.2c0,0,1.1,0.1,2,0.1c1.3,0.1,6.2-0.9,8.9,1.7c0.9,0.9,1.7,2,2.4,3
	c0.4,0.6,0.8,1.5,0.8,1.5l0.6-0.3c0,0,0.2-3.5-2.4-4.8c-6.5-3.2-10.4-1.9-11.7-1.5C22.8,204.1,22.8,204.1,22.8,204.1z"/>
<path style="fill:#CE8126;" d="M41,195.5c-1.4,3.2-6.7,0.8-5.3-2.4c1.4-3.2,4.2-6.2,5.7-5.6c0.7,0.3,0,1.7-0.1,3.2
	C41.1,192.2,41.7,193.9,41,195.5z"/>
<path style="fill:#B58857;" d="M12.5,214.3c0,3.6,3.1,5.6,7,5.6s7-2,7-5.6s-3.1-6.6-7-6.6S12.5,210.7,12.5,214.3z"/>
<path style="fill:#F69F29;" d="M15.3,231.3c0.2-3.5-0.4-6.4,0.3-8.6c2.4-8.6,8.7-7.7,8.3,7.4c0,0.5-0.1,1.6,1.4,1.7
	c2.4,0.1,4.4-0.5,2.5-2.3c0.3-3.4,0.9-15.1-2.8-20.7c-0.7-1-2.7-2.3-5.7-2.3c-1.6,0-4.9,1.1-5.9,2.3c-1.7,2.2-2.4,7.1-2.9,11.7v0
	c-0.1,0.4-0.1,0.8-0.1,1.3c-0.2,1.9-0.2,5.6-0.2,7.3c-0.3,0.4-0.5,0.7-0.5,1c-0.2,0.9,0.4,1.8,1.4,1.8
	C12.2,231.9,15.2,231.8,15.3,231.3z"/>
<path style="fill:#CE8126;" d="M9.2,196.7c0,0,1.9,3.7,2.7,5.6s3.1,8.6,3.9,9.7c0.8,1,2.6,2.1,3.2,1.3c0.6-0.8-3.7-9-3.7-9
	S11.4,196.8,9.2,196.7z"/>
<path style="fill:#CE8126;" d="M9.2,196.7c0,0,0.9-0.4,2.2,0.8c1.2,1.2,4.8,8.3,5.4,9.2c0.7,1.1,1.3,3.4,2.8,3.6
	c1.5,0.2-0.6,2.9-0.6,2.9s-4.1-8.4-6.2-11.6C10.7,198.4,10.9,197,9.2,196.7z"/>
<path style="fill:#DDAE91;" d="M163.1,115.9c-0.1,0.7-0.6,2.6-1.1,4.7c-0.7,3-1.4,6.3-1.1,7.2c0.5,1.5,2.2,5.8,2.1,7.1
	c-0.1,1.3-0.9,4.3-2,3.6c-0.6-0.4,1.3-4.5-0.2-4.4c-1.1,0-1.8,0.1-2.1,1.3c-0.2,1.2,0.9,1.6,1.6,1.8c0.7,0.2,0.9,1.9,0.3,1.9
	c-0.6,0.1-2,0.6-1.5,0.8s0.5,0.8-0.4,1.2c-0.9,0.4-2,0.5-3.2-0.3s-1.1-1.1-1.1-1.1s-0.1-1.2-0.1-2.4c0-1.2-0.8-4.5,0.1-5.7
	s2.9-7.3,2.6-8.8c-0.1-0.4,0.1-2.2,0.4-4.5"/>
<path style="fill:#DDAE91;" d="M214.1,107c0.1,0.7,2.7,2.3,3.1,4.4c0.4,3-1.5,6.9-1.8,7.8c-0.6,1.4-2.7,5.6-2.6,7
	c0,1.3,0.5,4.3,1.6,3.8c0.6-0.3-1-4.6,0.6-4.4c1.1,0.1,1.8,0.2,2,1.4c0.1,1.2-1.1,1.6-1.8,1.7c-0.7,0.1-1,1.8-0.5,1.9
	c0.6,0.1,1.9,0.8,1.4,0.9c-0.5,0.1-0.6,0.7,0.3,1.2c0.8,0.5,1.1-0.7,2.4-1.4c1.3-0.7,0.9-0.6,0.9-0.6s0.2-0.6,0.3-1.8
	c0.1-1.2,0.4-4-0.3-5.3c-0.7-1.3-2.5-7.9-2.2-9.3c0.1-0.4,0.4-1.8,0.2-4.1"/>
<g>
	<path style="fill:#7596C0;" d="M153.6,147.3c4.5-1.2,8.9-4.4,8.9-9.4c0-2.8-2.2-5.6-5-3.4c-2,1.6-2.8,4.4-3.5,6.7
		c-1.1,3.6-1.4,7.4-2.4,11.1c-1.9,6.8-5.1,13.3-9.3,19c-4.7,6.3-11.4,11.9-19.5,12.3c-11.3,0.5-20.4-9.5-26.5-17.7
		c-0.3-0.5-1.7,0.1-1.3,0.6c5.5,7.4,12.5,14.9,21.7,17.4c6.2,1.7,12.5,0.1,17.7-3.3c5.7-3.7,10-9.4,13.3-15.3
		c3.2-5.7,5.6-12,6.6-18.4c0.6-3.7,1.3-7.9,3.5-11c1-1.4,2.1-1.5,2.9,0.1c2.3,5-3,9.5-7.3,10.6C152.5,146.7,152.7,147.6,153.6,147.3
		L153.6,147.3z"/>
</g>
<path style="fill:none;stroke:#7A7979;stroke-width:1.25;stroke-miterlimit:10;" d="M142.9,205.4c0-0.8,2-3.5,1.7,0.3"/>
<path style="fill:#5A5A5A;" d="M142.9,204.2c0,0.2,0,0.5,0.1,0.7c0,0.1,0.1,0.1,0.2,0.1c0.3,0.1,0.5,0.2,0.8,0.3
	c0.1,0,0.2-0.3,0.2-0.3c-0.2-0.1-0.4-0.1-0.6-0.2c-0.1,0-0.2-0.1-0.3-0.1c-0.1,0-0.1-0.2-0.1-0.3c0-0.1-0.1-0.5,0.1-0.6
	c0.1,0,0.2,0,0.4,0c0.2,0.1,0.5,0.2,0.6,0.4c0.1,0.1,0.1,0.2,0.2,0.3c0,0,0,0,0,0c0,0.2,0,0.4-0.1,0.6c-0.1,0.1,0,0.2,0.1,0.3
	c0.2,0.1,0.5,0.2,0.7,0.3c0,0,0,0,0,0c0,0,0,0,0.1,0c0.4,0.2,0.9,0.4,1.3,0.5c0,0.6,0.2,1.2,0.9,1.2c0.5,0,1-0.4,1.1-0.8
	c0.3-0.8-0.2-1.4-1-1.4c-0.4,0-0.7,0.3-0.9,0.7c-0.5-0.2-1-0.4-1.4-0.6c-0.1,0-0.1-0.1-0.2-0.3c-0.1-0.2-0.2-0.5-0.3-0.7
	c-0.2-0.4-0.4-0.6-0.7-0.8C143.5,203.4,142.9,203.7,142.9,204.2z M147.9,205.7c0.5,0.2,0.7,0.9,0.4,1.3c-0.2,0.3-0.7,0.3-1,0.2
	c-0.5-0.2-0.6-0.7-0.5-1.1C146.9,205.5,147.4,205.5,147.9,205.7z"/>
<g>
	<path style="fill:#D76317;" d="M155.7,147.6c3.2-1.6,8-4.4,8.2-8.5c0.1-2.5-2.2-3.9-4.4-3.4c-3.6,0.8-5,4.9-5.5,8.1
		c-1,6.8,0.9,13.7,2.6,20.2c3.2,12.2,7.3,24.2,9.4,36.7c0.6,3.9,1.6,9-0.2,12.8c-1.8,3.7-6.8,0.6-9.1-0.9c-3-1.9-5.7-4.1-8.3-6.4
		c-0.5-0.5-2.2,0.2-1.6,0.7c3.9,3.4,18.4,16.1,21.2,5c1.1-4.4,0.1-9.4-0.7-13.7c-1.2-6.3-2.8-12.5-4.6-18.7c-1.7-6-3.4-11.9-5-17.9
		c-1.7-6.5-3.4-13.8-1.6-20.4c0.5-1.7,2.7-6.2,5.1-4c2.6,2.4-1.3,6.2-3.1,7.5c-1,0.7-2.1,1.4-3.3,1.9
		C153.9,147.2,154.9,148,155.7,147.6L155.7,147.6z"/>
</g>
<path style="fill:none;stroke:#7A7979;stroke-width:1.25;stroke-miterlimit:10;" d="M142.9,205.4c0-0.2,0.2-0.8,0.5-1.1
	c0.1-0.1,0.2-0.2,0.2-0.3"/>
<path style="fill:none;stroke:#7A7979;stroke-width:1.25;stroke-miterlimit:10;" d="M29.2,204.2c0-0.8,2-3.5,1.7,0.3"/>
<path style="fill:#5A5A5A;" d="M29.2,203.1c0,0.2,0,0.5,0.1,0.7c0,0.1,0.1,0.1,0.2,0.1c0.3,0.1,0.5,0.2,0.8,0.3
	c0.1,0,0.2-0.3,0.2-0.3c-0.2-0.1-0.4-0.1-0.6-0.2c-0.1,0-0.2-0.1-0.3-0.1c-0.1,0-0.1-0.2-0.1-0.3c0-0.1-0.1-0.5,0.1-0.6
	c0.1,0,0.2,0,0.4,0c0.2,0.1,0.5,0.2,0.6,0.4c0.1,0.1,0.1,0.2,0.2,0.3c0,0,0,0,0,0c0,0.2,0,0.4-0.1,0.6c-0.1,0.1,0,0.2,0.1,0.3
	c0.2,0.1,0.5,0.2,0.7,0.3c0,0,0,0,0,0c0,0,0,0,0.1,0c0.4,0.2,0.9,0.4,1.3,0.5c0,0.6,0.2,1.2,0.9,1.2c0.5,0,1-0.4,1.1-0.8
	c0.3-0.8-0.2-1.4-1-1.4c-0.4,0-0.7,0.3-0.9,0.7c-0.5-0.2-1-0.4-1.4-0.6c-0.1,0-0.1-0.1-0.2-0.3c-0.1-0.2-0.2-0.5-0.3-0.7
	c-0.2-0.4-0.4-0.6-0.7-0.8C29.8,202.3,29.3,202.5,29.2,203.1z M34.2,204.5c0.5,0.2,0.7,0.9,0.4,1.3c-0.2,0.3-0.7,0.3-1,0.2
	c-0.5-0.2-0.6-0.7-0.5-1.1C33.2,204.4,33.8,204.4,34.2,204.5z"/>
<path style="fill:none;stroke:#7A7979;stroke-width:1.25;stroke-miterlimit:10;" d="M29.2,204.2c0-0.2,0.2-0.8,0.5-1.1
	c0.1-0.1,0.2-0.2,0.2-0.3"/>
<g>
	<path style="fill:#880C51;" d="M161.6,147.2c-3.6-1.8-7.6-5.6-5.2-9.9c0.5-0.9,1.5-2.1,2.7-1.8c1.6,0.4,2,2.7,2.2,4.1
		c0.4,3.8-0.6,7.8-1.5,11.4c-0.8,3.1-2.3,6.1-3.9,8.9c-4,6.7-9.6,12.4-15.5,17.3c-13.5,11.2-29.9,18.9-46.7,23.9
		c-19.1,5.6-39.5,7.4-59.1,4c-0.5-0.1-1.7,0.7-0.9,0.9c20.5,3.6,41.6,1.6,61.4-4.3c17.6-5.3,34.7-13.8,48.6-25.9
		c5.5-4.8,10.5-10.4,14.2-16.8c3.2-5.7,5.4-12.8,4.9-19.4c-0.2-3-2-6.1-5.4-4.6c-2.8,1.3-3.7,4.8-2.7,7.6c1,2.6,3.4,4.4,5.8,5.5
		C160.9,148.2,162.2,147.5,161.6,147.2L161.6,147.2z"/>
</g>
<g>
	<path style="fill:#5A5A5A;" d="M238.1,185.1c0.1,0.2,0.1,0.5,0,0.7c0,0.1-0.1,0.1-0.2,0.2c-0.2,0.1-0.4,0.3-0.7,0.4
		c-0.1,0-0.3-0.2-0.2-0.2c0.2-0.1,0.7-0.4,0.8-0.4c0.1,0,0.1-0.2,0.1-0.3c0-0.1,0-0.5-0.1-0.6c-0.1,0-0.2,0-0.3,0.1
		c-0.2,0.1-0.4,0.3-0.5,0.5c-0.1,0.1-0.1,0.2-0.1,0.3c0,0,0,0,0,0c0,0.2,0.1,0.4,0.2,0.6c0.1,0.1,0.1,0.2,0,0.3
		c-0.2,0.1-0.4,0.3-0.6,0.4c0,0,0,0,0,0c0,0,0,0-0.1,0c-0.4,0.2-0.7,0.5-1.1,0.7c0.1,0.6,0,1.2-0.6,1.3c-0.4,0.1-0.9-0.2-1.1-0.6
		c-0.4-0.7,0-1.4,0.7-1.5c0.3,0,0.7,0.2,0.9,0.5c0.4-0.3,0.8-0.5,1.2-0.8c0.1-0.1,0.1-0.2,0.1-0.3c0-0.3,0.1-0.5,0.1-0.7
		c0.1-0.4,0.2-0.7,0.5-0.9C237.4,184.4,237.9,184.5,238.1,185.1z M233.9,187.3c-0.4,0.2-0.5,1-0.1,1.3c0.2,0.3,0.7,0.2,0.9,0.1
		c0.4-0.2,0.4-0.8,0.3-1.2C234.7,187,234.3,187.1,233.9,187.3z"/>
</g>
<g>
	<path style="fill:#1C62B0;" d="M222.8,138.2c-3.8-0.7-11.3-3.1-10.3-8.4c0.3-1.3,1.4-2.2,2.7-1.9c2.2,0.5,3.7,3.1,4.7,5
		c5.7,11.6,2,24.7-0.9,36.4c-1.3,5.1-2.7,10.2-3.7,15.3c-0.7,3.3-1.6,7.2-0.5,10.5c2.6,8.1,17.5-5.2,19.8-7.1
		c0.6-0.5-0.3-0.8-0.7-0.4c-3,2.5-6,4.9-9.3,6.9c-1.7,1.1-3.9,2.4-6,2.4c-3.4,0-3.1-4.9-2.9-7.1c0.5-5.3,1.9-10.4,3.2-15.5
		c1.5-6,3.1-12,4.2-18.2c0.9-5.2,1.5-10.4,0.5-15.6c-0.8-4.2-2.7-12.1-7.8-13.3c-2.6-0.6-4.7,1.6-4.5,4.2c0.5,4.8,7,6.8,10.9,7.6
		C222.6,139,223.5,138.3,222.8,138.2L222.8,138.2z"/>
</g>
<g>
	<path style="fill:none;stroke:#7A7979;stroke-width:1.25;stroke-miterlimit:10;" d="M239.5,185.4c-0.3-0.7-2.6-2.2-1.7,0.7"/>
</g>
<path style="fill:#5A5A5A;" d="M236.3,186.6c0.1-0.1,0.1-0.2,0.1-0.3c0-0.3,0.1-0.5,0.1-0.7c0.1-0.4,0.2-0.7,0.5-0.9
	c0.4-0.3,0.9-0.2,1,0.4c0.1,0.2,0.1,0.5,0,0.7c0,0.1-0.2-0.4-0.2-0.5c0-0.1,0-0.5-0.1-0.6c-0.1,0-0.2,0-0.3,0.1
	c-0.2,0.1-0.4,0.3-0.5,0.5c-0.1,0.1-0.1,0.2-0.1,0.3c0,0,0,0,0,0c0,0.2,0.1,0.4,0.2,0.6c0.1,0.1,0.1,0.2,0,0.3
	c-0.2,0.1-0.4,0.3-0.6,0.4c0,0,0,0,0,0c0,0,0,0-0.1,0"/>
<g>
	<path style="fill:#5A5A5A;" d="M291.5,169.7c0.1,0.2,0.1,0.5,0,0.7c0,0.1-0.1,0.1-0.2,0.2c-0.2,0.1-0.4,0.3-0.7,0.4
		c-0.1,0-0.3-0.2-0.2-0.2c0.2-0.1,0.7-0.4,0.8-0.4c0.1,0,0.1-0.2,0.1-0.3c0-0.1,0-0.5-0.1-0.6c-0.1,0-0.2,0-0.3,0.1
		c-0.2,0.1-0.4,0.3-0.5,0.5c-0.1,0.1-0.1,0.2-0.1,0.3c0,0,0,0,0,0c0,0.2,0.1,0.4,0.2,0.6c0.1,0.1,0.1,0.2,0,0.3
		c-0.2,0.1-0.4,0.3-0.6,0.4c0,0,0,0,0,0c0,0,0,0-0.1,0c-0.4,0.2-0.7,0.5-1.1,0.7c0.1,0.6,0,1.2-0.6,1.3c-0.4,0.1-0.9-0.2-1.1-0.6
		c-0.4-0.7,0-1.4,0.7-1.5c0.3,0,0.7,0.2,0.9,0.5c0.4-0.3,0.8-0.5,1.2-0.8c0.1-0.1,0.1-0.2,0.1-0.3c0-0.3,0.1-0.5,0.1-0.7
		c0.1-0.4,0.2-0.7,0.5-0.9C290.9,169,291.3,169.1,291.5,169.7z M287.3,171.9c-0.4,0.2-0.5,1-0.1,1.3c0.2,0.3,0.7,0.2,0.9,0.1
		c0.4-0.2,0.4-0.8,0.3-1.2C288.2,171.6,287.7,171.7,287.3,171.9z"/>
</g>
<g>
	<path style="fill:none;stroke:#7A7979;stroke-width:1.25;stroke-miterlimit:10;" d="M293,170c-0.3-0.7-2.6-2.2-1.7,0.7"/>
</g>
<path style="fill:#5A5A5A;" d="M289.7,171.2c0.1-0.1,0.1-0.2,0.1-0.3c0-0.3,0.1-0.5,0.1-0.7c0.1-0.4,0.2-0.7,0.5-0.9
	c0.4-0.3,0.9-0.2,1,0.4c0.1,0.2,0.1,0.5,0,0.7c0,0.1-0.2-0.4-0.2-0.5c0-0.1,0-0.5-0.1-0.6c-0.1,0-0.2,0-0.3,0.1
	c-0.2,0.1-0.4,0.3-0.5,0.5c-0.1,0.1-0.1,0.2-0.1,0.3c0,0,0,0,0,0c0,0.2,0.1,0.4,0.2,0.6c0.1,0.1,0.1,0.2,0,0.3
	c-0.2,0.1-0.4,0.3-0.6,0.4c0,0,0,0,0,0c0,0,0,0-0.1,0"/>
<g>
	<path style="fill:#880C51;" d="M213,138.3c2.2-1.4,9.8-6.8,5.5-10c-3-2.3-6.4,0.8-7.1,3.8c-1.4,6.4,3,13.8,6.5,18.7
		c4.9,6.9,11.6,12.6,18.8,17c15.3,9.4,34.3,12.4,51.1,5.2c0.9-0.4,0.1-1-0.6-0.7c-18.8,8.1-39.9,2.5-55.6-9.5
		c-6.6-5-12.5-11.4-16.2-18.9c-1.5-3.1-2.8-6.7-2.7-10.2c0-1.8,0.7-4.7,2.9-5c1.5-0.2,2.7,1.1,2.6,2.6c-0.2,3-3.9,5.3-6.1,6.6
		C211.3,138.2,212.5,138.6,213,138.3L213,138.3z"/>
</g>
<g>
	<path style="fill:#8F7F5F;" d="M56.5,174.8L56.5,174.8c0.5,0.2,1.1,0.2,1.6,0.2h0C57.6,175,57.1,174.9,56.5,174.8"/>
	<ellipse style="fill:#030303;" cx="114" cy="151.4" rx="1.5" ry="1.4"/>
	<path style="fill:#DDC4D5;" d="M94.6,133.7c3.5,0.5,0.8,4.8,1.8,7c1.1,2.2,3.5-2,3.3,1s4,1.9,4.7,3.4c0.7,1.6,10.5,3.8,10.4,5.7
		s-3.8,8.5-11.5,7.2c-8.8-1.5-5.2,13.1-5.2,13.1s-39.2-2.3-29.9-5.1S80,149.4,80,149.4s4.7-11.8,8.6-14.4s3.5-2.3,6.9-1.8"/>
	<path style="fill:#DD94C1;" d="M79.5,146.8c3,0.6,4.8-4.5,6.1-7c0.8-1.6,6.8-4.6,5-5.9h-1.5c-1.9-0.9-8.8,3.4-10.7,6
		C77.2,142.1,76.6,146.2,79.5,146.8"/>
	<path style="fill:#DDC4D5;" d="M87.9,134c0.3,0.3,0.4,0.8,0.4,1.3c0,2-2.5,3.3-3.2,4.5c-1.1,2-2.2,6.3-4.4,7
		c-0.3,0.1-0.7,0.2-1,0.2c-0.2,0-0.4,0-0.7-0.1c-0.7-0.2-1.2-0.5-1.5-1c0.2,0,0.5,0,0.7,0c4.9,0,5.8-6.5,6.3-7.5
		C85.4,137,87.6,135.8,87.9,134"/>
	<path style="fill:#DDC4D5;" d="M69.9,225.9c1.1-20.4,10.2-39.8,14.2-39.8c2.2,0,2.6,5.7,5.4,8.5c0.9,0.9,4.4-2.4,4.4-2.4
		s0.5,2.2,0.5,3.6c0.1,2.5,1.2,6.8,1.4,11.4c0.3,9.2-0.3,19.7,0.4,20c5.5,2.4,12.3-1.1,7.8-5.5c0.2-2.3-0.7-6.8-0.8-12.2
		c-0.2-6.7,0.5-14.9-0.5-22.7c-1.1-8.1-3.9-15.7-7.2-20.5c-1.7-2.5-6.4-5.5-13.7-5.5c-4,0-23.4,8.5-25.8,11.6
		c-4.1,5.3,7.8,17.5,7.7,18.6c-0.4,4.6-0.9,25.8-0.7,30c-0.7,0.9-1.5,1.3-1.8,2.2c-0.6,2,0.5,3.8,2.4,4.5
		C65.4,227.8,69.8,227.1,69.9,225.9z"/>
	<path style="fill:#B0A0AC;" d="M80.7,193.3c0,0,3.6,4,8.7,2c3.9-1.5,5.1-3.9,5.1-3.9s-2,1.1-6.1,1.9
		C84.3,194.1,80.7,193.3,80.7,193.3z"/>
	<polygon style="fill:#7596C0;" points="89.9,162.6 89.8,162.9 89.5,164.2 97.2,168.4 97.7,168 97.6,165.3 	"/>
	<path style="fill:#B0A0AC;" d="M57.4,184.6c0,8.7,6.4,13.5,14.2,13.5s14.7,0.5,16.3-3.1c3.5-8-8.4-26.2-16.3-26.2
		S57.4,175.9,57.4,184.6z"/>
	<path style="fill:#DD94C1;" d="M59.5,170.6c2.4-3.1,18-9.9,22-9.9c7.3,0,20.4,8.1,21.8,14.3c1.2,5.6,3.1,14.9-18.7,2.9L59.5,170.6z
		"/>
	<path style="fill:#DDC4D5;" d="M58.7,232.3c0-3.2-0.9-6.2-0.8-9c1.9-43.9,19.9-45,22.3,1.5c0.1,2.5,0.7,3.3,0,6
		c-0.3,1.2,0.4,2.4,4.1,2.9c5.9,0.7,10.6-1.2,6.2-5.6c0.3-3-2.9-47.2-8.5-55.5c-1.7-2.5-6.4-5.5-13.7-5.5c-4,0-11.8,2.6-14.2,5.7
		c-4.1,5.3-4.4,17.1-5.6,28.2v0c-0.1,1-0.2,2-0.3,3.1c-0.3,3.8,1,14.4,1,20.3c0,1.2-1.2,2.6-1.4,2.8c-0.2,0.3-1.1,1.6-1.2,2.4
		c-0.4,2.1,1.8,4.3,3.4,4.3C50.7,234,58.7,233.6,58.7,232.3z"/>
	<g>
		<path style="fill:#DD94C1;" d="M56.1,222.8h-5.2c-1.6,0-3-1.3-3-3v-0.6c0-1.6,1.3-3,3-3h5.2c1.6,0,3,1.3,3,3v0.6
			C59,221.5,57.7,222.8,56.1,222.8z"/>
		<ellipse style="fill:#DD94C1;" cx="51.6" cy="217.2" rx="3.6" ry="2"/>
		<ellipse style="fill:#DD94C1;" cx="55.2" cy="221.3" rx="3.6" ry="2"/>
		<ellipse style="fill:#DD94C1;" cx="55.6" cy="217.8" rx="2" ry="2"/>
		<ellipse style="fill:#DD94C1;" cx="57.6" cy="219.9" rx="2" ry="2.7"/>
		<ellipse style="fill:#DD94C1;" cx="49.6" cy="219.3" rx="2" ry="2.7"/>
	</g>
	<g>
		<path style="fill:#DD94C1;" d="M69,220.2h-4c-1.3,0-2.3-1-2.3-2.3v-0.5c0-1.3,1-2.3,2.3-2.3h4c1.3,0,2.3,1,2.3,2.3v0.5
			C71.3,219.1,70.3,220.2,69,220.2z"/>
		<ellipse style="fill:#DD94C1;" cx="65.5" cy="215.8" rx="2.8" ry="1.6"/>
		<ellipse style="fill:#DD94C1;" cx="68.4" cy="219" rx="2.8" ry="1.6"/>
		<ellipse style="fill:#DD94C1;" cx="68.6" cy="216.3" rx="1.6" ry="1.6"/>
		<ellipse style="fill:#DD94C1;" cx="70.2" cy="217.9" rx="1.6" ry="2.1"/>
		<ellipse style="fill:#DD94C1;" cx="64" cy="217.4" rx="1.6" ry="2.1"/>
	</g>
	<g>
		<path style="fill:#DD94C1;" d="M102.2,221.8h-4.8c-1.3,0-2.3-1-2.3-2.3V219c0-1.3,1-2.3,2.3-2.3h4.8c1.3,0,2.3,1,2.3,2.3v0.5
			C104.5,220.7,103.5,221.8,102.2,221.8z"/>
		<ellipse style="fill:#DD94C1;" cx="98.2" cy="217.4" rx="3.1" ry="1.6"/>
		<ellipse style="fill:#DD94C1;" cx="101.2" cy="220.6" rx="3.1" ry="1.6"/>
		<ellipse style="fill:#DD94C1;" cx="101.6" cy="217.9" rx="1.7" ry="1.6"/>
		<ellipse style="fill:#DD94C1;" cx="103.3" cy="219.5" rx="1.7" ry="2.1"/>
		<ellipse style="fill:#DD94C1;" cx="96.5" cy="219" rx="1.7" ry="2.1"/>
	</g>
	<g>
		<path style="fill:#DD94C1;" d="M81.2,218H88c1.7,0,3,1.4,3,3v1.4c0,1.6-1.3,3-3,3h-6.7c-1.7,0-3-1.4-3-3V221
			C78.2,219.4,79.6,218,81.2,218z"/>
		<ellipse style="fill:#DD94C1;" cx="86.8" cy="224.4" rx="4.1" ry="2.3"/>
		<ellipse style="fill:#DD94C1;" cx="82.6" cy="219.7" rx="4.1" ry="2.3"/>
		<ellipse style="fill:#DD94C1;" cx="82.2" cy="223.7" rx="2.3" ry="2.3"/>
		<ellipse style="fill:#DD94C1;" cx="79.9" cy="221.4" rx="2.3" ry="3.1"/>
		<ellipse style="fill:#DD94C1;" cx="89.1" cy="222.1" rx="2.3" ry="3.1"/>
	</g>
	<path style="fill:#B0A0AC;" d="M45.6,148.4c0,0,3.7,7.3,5.4,11c1.7,3.7,6.1,17,7.7,19s5.1,4.2,6.2,2.6c1.1-1.7-7.3-17.8-7.3-17.8
		S50,148.6,45.6,148.4z"/>
	<path style="fill:#B0A0AC;" d="M45.6,148.4c0,0,1.8-0.9,4.2,1.5s9.5,16.3,10.6,18.1c1.3,2.2,2.6,6.7,5.6,7.2c3,0.5-1.1,5.8-1.1,5.8
		s-8.1-16.6-12.2-22.8C48.5,151.8,48.9,149,45.6,148.4z"/>
	<path style="fill:#DD94C1;" d="M43.8,148.2c-3.8,5,2.7,7.4,4.2,9.8c0.8,1.3,0.4,8.4,2.8,10.3c2.4,1.9,8.9-1.7,8.9-1.7
		s-2.9-7.2-3.4-9.1C55.9,155.6,48.4,142.1,43.8,148.2z"/>
	<path style="fill:#DD94C1;" d="M73.7,163.7c-0.2,0.2-0.3,0.6-0.3,1c0.3-0.1,0.1-0.1,0.4-0.1h0.5c0.5,1.9,7-2.4,8.4-1.2
		c-0.1,0.4-0.2,0.7-0.2,1.1c0.2-0.3,0.4-0.5,0.7-0.7c0.1,0.1,0.2,0.2,0.3,0.2c5.5,3.8,17.1-7.5,17.6-8.5c0.1,0,0.3,0.1,0.4,0.2
		c0-0.2-0.1-0.3-0.2-0.5c0.2-0.3,0.4-0.7,0.5-1c0.2,0,0.4,0.1,0.6,0.1c0-0.3,0-0.5-0.1-0.8c0.2,0,1,0,1.3,0.1
		c-0.1-0.4-0.9-0.8-1.2-1c0.4-1.6,0.4-3.3,0.1-5c-0.1-0.8,2.1-1.6,1.8-2.4l1.5-0.1l-1.6,0c-1.1-3.2-1-6.4-3.1-9.2
		c-0.8-1-1.7-1.8-2.7-2.4c-3.9-2.4-8.9-1.8-11.8,1.3c-2.8,3-4.4,10.3-7.3,16.8c-2,4.5-5.9,8.2-5.5,11c-0.5,0.3-0.8,0.9-1,1.5
		c0.2-0.1,0-0.2,0.2-0.3"/>
	<path style="fill:#DD94C1;" d="M96.1,138.9c1.5,2.1,3.6,2.9,4.9,5.4c1.5,3.1,2.6,5.8,5.6,2.8c5.8-5.8-6.2-14.9-10-13.7l-0.1,0
		c-0.5,0.1-0.9,0.5-1.2,1.4C94.8,136.2,95.4,137.8,96.1,138.9"/>
	<path style="fill:#DDC4D5;" d="M95.2,134.9c0,1,0.4,2,1,2.7c1,1.2,2.5,1.8,3.7,2.6c1.4,1,2,2.3,2.7,4c0.6,1.3,1.2,2.9,2.6,3
		c0,0,0,0,0.1,0c0.4,0,0.9-0.1,1.4-0.3l-0.1,0.2c0,0,0,0,0,0c-1,1-1.7,1.3-2.4,1.3c-1.3-0.1-2.1-2-3.1-4.1c-1.2-2.4-3.4-3.2-4.9-5.4
		c-0.1-0.2-0.2-0.3-0.3-0.5C95.3,137.3,94.9,136,95.2,134.9"/>
</g>
<path style="fill:#DDAE91;" d="M171.2,80.3c0,0,10,12,10,14.1c0,2.1-9.5,13.5-9.5,13.5s-1.2,5.6,1.3,5.2c6-1,28.3,3,30.4,2.5
	c2.1-0.5-9.3-16.8-9.3-19.7s9.4-20.2,9.4-20.2s3.6,11.3,4.6,13.9c1.1,2.6,5.8,16,5.9,17.8c0.1,1.9,1.7,10.7,1.1,12.1
	c-0.6,1.4-2.3,5.3-2.3,6.7s0.8-1.4,1.8-1.1c1.1,0.2,1.8,1,1.9,2.2c0.1,1.2-1.1,1.5-1.8,1.7c-0.7,0.1-1.1,1.8-0.5,1.9
	c0.6,0.1,0.1,1.2-0.4,1.3c-0.5,0.1,0.6,1.3,1.4,1.7c0.8,0.5,2.5-0.2,3.8-0.9s1.4-1.3,1.4-1.3s0-1,0.1-2.2c0.1-1.2,1.2-4.4,0.5-5.7
	c-0.7-1.3-2.1-7.6-1.8-9s-0.7-17.1-1.3-19.2s-5-16.8-5.2-18.5c-0.2-1.7-12.3-8.5-14-10.7s-2.7-17.1-4.9-17.5s-9.9-0.1-11.1,0
	c-1.2,0.1-2.2,10.6-3.7,13.3s-16.1,5-17.1,16.1c-0.9,11-2.1,17.3-3,18.6c-0.8,1.3-2,7.3-1.7,8.9c0.1,0.6,0.2,3.8,0,7.5
	c-0.2,5.2-0.7,11.7-1.2,13.2c-0.8,2.5,4.7,0.8,4.5,0.1c-0.1-0.4,1.4-7.2,3-13.5c1.2-5,2.2-9.7,2.7-10.3c1.1-1.3,1.9-7,2.3-9.2
	S171.2,80.3,171.2,80.3z"/>
<path style="fill:#1F297F;" d="M172.1,106.2l31.8,1.5c0,0,3.5,10.3,4,14.5c0.5,4.3,2.4,11.3,1.7,14.9c-0.7,3.6-5.5,18.9-5.7,23.8
	c-0.3,4.9-1.1,19.8-1.1,21c0,1.2-13.6,0-13.6,0s0.8-18.5,1.1-23.2s-0.9-22.4-2-23.4c-1.1-1.1-2.5-0.9-3.3,1.2
	c-0.8,2.1-0.4,22.1,0.3,24.5c0.7,2.4,3.6,22.8,3.6,22.8l-15.1,2.3l-0.9-1.1c0,0-0.9-19.8-1.6-24s-2-14.8-2.7-17.1
	s-2.8-12.3-2.4-17.2C166.5,121.9,172.1,106.2,172.1,106.2z"/>
<path style="fill:#DDAE91;" d="M177.5,193.4c0,0-0.4,6,0,9.6c0.4,3.6,2,14.9,1.6,17.2c-0.4,2.3-2.9,2.3-2.9,2.3s-3.6,3.3-1.6,4.8
	c2,1.5,3.9,0.9,5.9,1.1s6,0.4,6.8-0.7c0.8-1.1,0.7-3.5,0-4.3s-1.5-10-1.6-12.5s1.3-14.5,1.3-15.8C187,193.8,177.5,193.4,177.5,193.4
	z"/>
<path style="fill:#23347B;" d="M173,184.2c0,0,5.5,0.9,9.7,0.4c3.6-0.4,6-2.3,6-2.3l2.1,11.3c0,0-3.9,2.3-8.1,2.8
	c-4.7,0.5-6.8,0.9-8.3,0C173,195.5,171,187.3,173,184.2z"/>
<path style="fill:#1F2777;" d="M187.9,192c-0.9,2,3.1,3.3,4.4,4c1.3,0.7,10.8,2.4,12,0.8c1.2-1.6,0.1-10.7-4.3-12
	C194.7,183.1,189.5,188.4,187.9,192z"/>
<path style="fill:#DDAE91;" d="M191.8,187.7l-1,1.3c0,0,0.6,10,1,13.1c0.4,3.1-0.7,11.6-1,12.9c-0.3,1.3,0,6.4,0,6.4
	s4.7,0.1,5.4,0.9c0.7,0.8,2.3,1.3,2.3,1.3s-0.5-16.5,0-18.9c0.5-2.4,3.6-11.9,3.2-13.5C201.3,189.7,191.8,187.7,191.8,187.7z"/>
<path style="fill:#39498E;" d="M172.2,119.2h10.7l-1.1,14.7l-6.8,2.7l-4.8-4.1C170.2,132.4,169.5,128.5,172.2,119.2z"/>
<polygon style="fill:#39498E;" points="191.3,120 205.1,120 206.4,133.7 200.1,136.7 192,133.9 "/>
<path style="fill:#23347B;" d="M188.7,182l-0.8,10.5c0,0,1.3-2.8,3.1-3.5c1.7-0.7,10.1,0.5,11.7,4.1c1.6,3.7,1.6,3.7,1.6,3.7
	s2.8-7.9,2.4-9.9s-2.5-7.6-7.7-8.1C193.8,178.3,190.1,180.3,188.7,182z"/>
<path style="fill:#2E3A7E;" d="M188.7,182l-0.8,10.5c0,0,1.3-2.8,3.1-3.5c0.9-0.4,3.3-0.2,5.8,0.4c2.6,0.7,7.4-10,2.2-10.6
	C193.8,178.3,190.1,180.3,188.7,182z"/>
<g>
	<path style="fill:#4C2A0E;" d="M167.7,48.2c0-0.1,0-0.3,0-0.4c0.8-1.7,1.7-3.4,2.3-5.2c1-3,1.1-6.1-0.4-9c-0.4-0.8-0.6-1.7-0.8-2.6
		c-1.2-6.9-0.5-13.6,1.2-20.3c0.6-2.2,1.9-3.8,3.8-4.8c2-1,4.2-1.9,6.3-2.6c1.8-0.6,3.6-0.8,5.5-1.2c1.2,0,2.4,0,3.6,0
		c0.3,0.1,0.5,0.2,0.8,0.2c3.3,0.5,6.4,1.3,9.5,2.7c3.1,1.4,5.1,3.6,5.8,7.1c0.8,3.7,1.3,7.5,1.4,11.3c0.1,4-0.1,8-1.9,11.8
		c-0.3,0.5-0.3,1.2-0.4,1.8c-0.4,3.6,0.8,6.9,2.4,10.1c0.6,1.2,0.6,1.2-0.5,1.9c-2.3,1.5-4.8,2.2-7.4,2.7
		c-6.5,1.3-13.1,1.4-19.7,0.5C175.2,51.6,171.1,50.8,167.7,48.2z"/>
</g>
<g>
	<path style="fill:#603B1D;" d="M185.7,2.2c1.2,0,2.4,0,3.6,0c0.3,0.1,0.5,0.2,0.8,0.2c3.3,0.5,6.4,1.3,9.5,2.7
		c3.1,1.4,5.1,3.6,5.8,7.1c0.8,3.7,1.3,7.5,1.4,11.3c0.1,4-0.1,8-1.9,11.8c-0.3,0.5-0.3,1.2-0.4,1.8c-0.4,3.6,0.8,6.9,2.4,10.1
		c0.6,1.2,0.6,1.2-0.5,1.9c-2.3,1.5-4.8,2.2-7.4,2.7c-2.5,0.5-5,0.8-7.5,1c-4.1,0.3,4-14.4-1.9-26.7C184.3,14.9,184.9,2.3,185.7,2.2
		z"/>
</g>
<path style="fill:#2E3A7E;" d="M205.8,226.6c0.4,1.4,1.6,8.3-5.8,8.2c-4.5-0.1-5.5-7.7-6-9c-1.6-4.1-5.1-6.5-5.1-9.4
	c0-2.6,1.8-4.7,4.6-4.7c1.8,0,3.5,1.5,4.6,2.9C198.9,215.3,205.2,224.2,205.8,226.6z"/>
<path style="fill:#1F2565;" d="M205.9,227.6c0.4,1.4,1.6,8.3-5.8,8.2c-4.5-0.1-5.5-7.7-6-9c-1.6-4.1-5.1-6.5-5.1-9.4
	c0-2.6,1.8-4.7,4.6-4.7c1.8,0,3.5,1.5,4.6,2.9C198.9,216.4,205.2,225.2,205.9,227.6z"/>
<path style="fill:#1F2565;" d="M187.4,221.1c-3.4,0.2-9,1-11.4,0.7c-2.5-0.2-5.3,0.4-6.2,1.7c-1,1.3-1.4,4.8-0.7,5.3
	c1.6,0.9,18.3,0.5,18.3,0.5s1.3-2.6,0.5-4.1C187,223.7,187.4,221.1,187.4,221.1z"/>
<path style="fill:#DDAE91;" d="M163.1,115.9c-0.1,0.7-0.6,2.6-1.1,4.7c-0.7,3-1.4,6.3-1.1,7.2c0.4,1.3,1.8,4.8,2,6.5
	c0,0.2-1.8-0.2-2.1-0.2c-1.1,0-1.8,0.1-2.1,1.3c-0.2,1.2,0.9,1.6,1.6,1.8c0.7,0.2,0.9,1.9,0.3,1.9c-0.6,0.1-2,0.6-1.5,0.8
	s0.5,0.8-0.4,1.2c-0.9,0.4-2,0.5-3.2-0.3s-1.1-1.1-1.1-1.1s-0.1-1.2-0.1-2.4c0-1.2-0.8-4.5,0.1-5.7s2.9-7.3,2.6-8.8
	c-0.1-0.4,0.1-2.2,0.4-4.5"/>
<path style="fill:#4EC5E1;" d="M171.2,80.3c0,0,3.7,11.7,3.7,13.8s-3.3,13.1-3.5,13.9c-0.4,1.1-2.5,5.4-0.3,5.5
	c6.5,0.3,32.6,2.1,34.7,1.6c0.9-0.2-0.5-3.1-1.4-6.9c-1.2-5.4-3.3-12.2-3.3-14c0-3,2.5-16,2.5-16s3.6,8.9,4.6,11.5
	c0.4,1.1,1.5,4,2.6,7.2c1.6,4.5,7.9,0.8,7.3-1.3s-5-16.8-5.2-18.5c-0.2-1.7-2.1-13.2-3.8-15.4s-3.5-3.5-5.8-3.9
	c-2.3-0.4-28.2-2.9-33.2,0c-2.7,1.6-7,9.4-7.9,20.4c-0.9,11-2.1,17.3-3,18.6c-0.3,0.4-0.6,1.4-0.9,2.6c-0.6,2.3,7.1,4.5,8.1,3.2
	c0.4-0.5,0.8-1.7,1.1-3c0.5-2.2,0.9-4.8,1.1-6.2C169.2,91,171.2,80.3,171.2,80.3z"/>
</svg>
