<?xml version="1.0" encoding="utf-8"?>
<!-- Generator: Adobe Illustrator 19.1.0, SVG Export Plug-In . SVG Version: 6.00 Build 0)  -->
<svg version="1.1" id="Layer_1" xmlns="http://www.w3.org/2000/svg" xmlns:xlink="http://www.w3.org/1999/xlink" x="0px" y="0px"
	 viewBox="0 0 280 200" style="enable-background:new 0 0 280 200;" xml:space="preserve">
<style type="text/css">
	.st0{fill:#CDCCCB;}
	.st1{fill:#F7F6F5;}
	.st2{fill:#0680B9;}
	.st3{fill-rule:evenodd;clip-rule:evenodd;fill:#023334;}
	.st4{fill:#E9D5BA;}
	.st5{fill:#EED4B7;}
	.st6{fill:#023334;}
	.st7{fill:#653614;}
	.st8{fill:#FFFFFF;}
	.st9{fill:#000100;}
	.st10{fill:#EA2227;}
	.st11{fill:#F37920;}
	.st12{fill:#359846;}
	.st13{fill:#676767;}
	.st14{fill:#37A967;}
	.st15{fill:#FFCC67;}
	.st16{fill:none;stroke:#FFFFFF;stroke-width:3;stroke-miterlimit:10;}
	.st17{clip-path:url(#SVGID_2_);fill:#EA2227;}
	.st18{fill-rule:evenodd;clip-rule:evenodd;fill:#EED4B7;}
	.st19{fill:#EBDDCB;}
	.st20{opacity:0.5;fill:#FBF3E8;}
	.st21{fill:#4A4A4A;}
	.st22{fill:#986732;}
	.st23{fill-rule:evenodd;clip-rule:evenodd;fill:#C1E8FA;}
	.st24{fill-rule:evenodd;clip-rule:evenodd;fill:#343433;}
	.st25{fill:#343433;}
	.st26{fill:#343433;stroke:#0680B9;stroke-width:0.5;stroke-miterlimit:10;}
	.st27{fill:#D7D8DA;}
	.st28{fill:#31B67B;}
	.st29{fill:#98216A;}
</style>
<g>
	<g>
		<path class="st0" d="M279,195.4c0,1.7-1.3,3-3,3H7.4c-1.6,0-3-1.3-3-3V4.9c0-1.7,1.4-3,3-3H276c1.7,0,3,1.3,3,3V195.4z"/>
	</g>
	<rect x="7" y="25.1" class="st1" width="269.7" height="170.6"/>
	<rect x="15.6" y="53" class="st2" width="142.7" height="100.1"/>
	<path class="st3" d="M68.5,97.4H51.1v0.2H34.5c-3.9,0-7,3.2-7,7.1l7,49.2c6.8,14.9,14.6,4.5,31.9,5.1h3.6c1.9-0.1,3.8-0.3,5.7-0.6
		v-54C75.6,100.5,72.4,97.4,68.5,97.4z"/>
	<path class="st4" d="M51.4,105c4.2,0,7.7-3.4,7.7-7.7H43.7C43.7,101.6,47.1,105,51.4,105z"/>
	<polygon class="st5" points="81.7,111.7 91.7,123.2 84.3,131.1 73.9,109.5 	"/>
	<polygon class="st6" points="75.1,101.1 81.5,111.5 78.3,118 66.4,110.9 	"/>
	<path class="st7" d="M59.3,97.2l10.4,18.3l-1.6,6c0,0-11.6-21.9-12.3-23.8C55.1,95.9,59.3,97.2,59.3,97.2z"/>
	<rect x="56.4" y="6.4" class="st8" width="185" height="15"/>
	<g>
		<path class="st9" d="M108.3,14.2h1.3v2.6c-0.7,0.8-1.8,1.2-3.1,1.2c-1.1,0-2.1-0.4-2.9-1.1c-0.8-0.8-1.2-1.7-1.2-2.9
			c0-1.1,0.4-2.1,1.2-2.9c0.8-0.8,1.7-1.1,2.8-1.1c1.1,0,2,0.3,2.8,1l-0.7,1c-0.3-0.3-0.6-0.4-0.9-0.5c-0.3-0.1-0.7-0.1-1.1-0.1
			c-0.8,0-1.4,0.3-2,0.8c-0.5,0.5-0.8,1.2-0.8,2c0,0.8,0.3,1.5,0.8,2c0.5,0.5,1.1,0.7,1.9,0.7c0.7,0,1.3-0.2,1.8-0.5V14.2z"/>
		<path class="st9" d="M111.2,10.9c-0.2-0.2-0.2-0.3-0.2-0.6c0-0.2,0.1-0.4,0.2-0.6c0.2-0.2,0.3-0.2,0.6-0.2c0.2,0,0.4,0.1,0.6,0.2
			c0.2,0.2,0.2,0.3,0.2,0.6c0,0.2-0.1,0.4-0.2,0.6c-0.2,0.2-0.3,0.2-0.6,0.2C111.5,11.2,111.3,11.1,111.2,10.9z M112.3,18h-1.2v-5.9
			h1.2V18z"/>
		<path class="st9" d="M119.6,12.1v5.1c0,1-0.3,1.8-0.8,2.3c-0.6,0.5-1.3,0.8-2.2,0.8c-0.9,0-1.7-0.3-2.4-0.8l0.6-0.9
			c0.6,0.4,1.2,0.7,1.7,0.7c0.6,0,1-0.2,1.4-0.5c0.3-0.3,0.5-0.8,0.5-1.4v-0.8c-0.2,0.3-0.4,0.6-0.8,0.8c-0.3,0.2-0.7,0.3-1.2,0.3
			c-0.8,0-1.4-0.3-1.9-0.8c-0.5-0.5-0.8-1.2-0.8-2c0-0.8,0.3-1.5,0.8-2c0.5-0.5,1.1-0.8,1.9-0.8c0.8,0,1.4,0.3,1.9,1v-0.9H119.6z
			 M115,14.8c0,0.5,0.1,0.9,0.4,1.2c0.3,0.3,0.7,0.5,1.2,0.5c0.5,0,0.9-0.2,1.2-0.5c0.3-0.3,0.5-0.8,0.5-1.3c0-0.5-0.2-0.9-0.5-1.3
			c-0.3-0.4-0.7-0.5-1.2-0.5c-0.5,0-0.9,0.2-1.2,0.5C115.1,13.9,115,14.3,115,14.8z"/>
		<path class="st9" d="M125.1,18h-1.5l-3.1-7.7h1.5l2.4,5.8l2.4-5.8h1.5L125.1,18z"/>
		<path class="st9" d="M129.2,10.9c-0.2-0.2-0.2-0.3-0.2-0.6c0-0.2,0.1-0.4,0.2-0.6c0.2-0.2,0.3-0.2,0.6-0.2s0.4,0.1,0.6,0.2
			c0.2,0.2,0.2,0.3,0.2,0.6c0,0.2-0.1,0.4-0.2,0.6c-0.2,0.2-0.3,0.2-0.6,0.2S129.3,11.1,129.2,10.9z M130.3,18h-1.2v-5.9h1.2V18z"/>
		<path class="st9" d="M133.4,18h-1.2V9.8h1.2V18z"/>
		<path class="st9" d="M136.4,18h-1.2V9.8h1.2V18z"/>
		<path class="st9" d="M142.9,18h-1.1v-0.8c-0.5,0.6-1.1,0.9-2,0.9c-0.6,0-1.1-0.2-1.5-0.5c-0.4-0.3-0.6-0.8-0.6-1.4
			c0-0.6,0.2-1,0.6-1.3c0.4-0.3,1-0.4,1.7-0.4h1.6v-0.2c0-0.8-0.4-1.2-1.3-1.2c-0.5,0-1.1,0.2-1.7,0.6l-0.6-0.8
			c0.7-0.6,1.5-0.9,2.4-0.9c0.7,0,1.3,0.2,1.7,0.5c0.4,0.4,0.7,0.9,0.7,1.7V18z M141.7,15.8v-0.5h-1.4c-0.9,0-1.3,0.3-1.3,0.8
			c0,0.3,0.1,0.5,0.3,0.7c0.2,0.2,0.5,0.2,0.9,0.2c0.4,0,0.7-0.1,1-0.3C141.6,16.5,141.7,16.2,141.7,15.8z"/>
		<path class="st9" d="M150.1,12.1v5.1c0,1-0.3,1.8-0.8,2.3c-0.6,0.5-1.3,0.8-2.2,0.8c-0.9,0-1.7-0.3-2.4-0.8l0.6-0.9
			c0.6,0.4,1.2,0.7,1.7,0.7c0.6,0,1-0.2,1.4-0.5c0.3-0.3,0.5-0.8,0.5-1.4v-0.8c-0.2,0.3-0.4,0.6-0.8,0.8c-0.3,0.2-0.7,0.3-1.2,0.3
			c-0.8,0-1.4-0.3-1.9-0.8c-0.5-0.5-0.8-1.2-0.8-2c0-0.8,0.3-1.5,0.8-2c0.5-0.5,1.1-0.8,1.9-0.8c0.8,0,1.4,0.3,1.9,1v-0.9H150.1z
			 M145.5,14.8c0,0.5,0.1,0.9,0.4,1.2c0.3,0.3,0.7,0.5,1.2,0.5c0.5,0,0.9-0.2,1.2-0.5c0.3-0.3,0.5-0.8,0.5-1.3
			c0-0.5-0.2-0.9-0.5-1.3c-0.3-0.4-0.7-0.5-1.2-0.5c-0.5,0-0.9,0.2-1.2,0.5C145.7,13.9,145.5,14.3,145.5,14.8z"/>
		<path class="st9" d="M157.4,15.6h-4.6c0,0.4,0.2,0.8,0.6,1c0.4,0.3,0.8,0.4,1.2,0.4c0.7,0,1.3-0.2,1.7-0.7l0.7,0.8
			c-0.6,0.7-1.5,1-2.5,1c-0.8,0-1.5-0.3-2.1-0.8c-0.6-0.5-0.9-1.3-0.9-2.2c0-0.9,0.3-1.7,0.9-2.2c0.6-0.5,1.3-0.8,2.1-0.8
			s1.5,0.2,2,0.7c0.6,0.5,0.8,1.1,0.8,2V15.6z M152.8,14.6h3.4c0-0.5-0.2-0.9-0.5-1.1c-0.3-0.3-0.7-0.4-1.1-0.4
			c-0.5,0-0.9,0.1-1.2,0.4C152.9,13.8,152.8,14.2,152.8,14.6z"/>
		<path class="st9" d="M158.8,17.8c-0.2-0.2-0.2-0.4-0.2-0.6c0-0.2,0.1-0.4,0.2-0.6c0.2-0.2,0.4-0.2,0.6-0.2c0.2,0,0.4,0.1,0.6,0.2
			c0.2,0.2,0.2,0.4,0.2,0.6c0,0.2-0.1,0.4-0.2,0.6c-0.2,0.2-0.4,0.2-0.6,0.2C159.2,18.1,159,18,158.8,17.8z"/>
		<path class="st9" d="M164.4,18.1c-0.8,0-1.5-0.3-2.1-0.8c-0.6-0.6-0.9-1.3-0.9-2.2c0-0.9,0.3-1.6,0.9-2.2c0.6-0.6,1.4-0.8,2.2-0.8
			c0.9,0,1.6,0.3,2.2,0.9l-0.7,0.9c-0.5-0.4-1-0.7-1.5-0.7c-0.5,0-1,0.2-1.3,0.5c-0.4,0.3-0.6,0.8-0.6,1.3c0,0.5,0.2,1,0.6,1.4
			c0.4,0.4,0.8,0.6,1.4,0.6c0.5,0,1.1-0.3,1.6-0.8l0.7,0.8C166.2,17.7,165.4,18.1,164.4,18.1z"/>
		<path class="st9" d="M173,17.2c-0.6,0.6-1.3,0.9-2.2,0.9c-0.9,0-1.6-0.3-2.2-0.9c-0.6-0.6-0.9-1.3-0.9-2.1c0-0.8,0.3-1.6,0.9-2.1
			c0.6-0.6,1.3-0.9,2.2-0.9c0.9,0,1.6,0.3,2.2,0.9c0.6,0.6,0.9,1.3,0.9,2.1C173.9,15.9,173.6,16.6,173,17.2z M169.4,16.4
			c0.3,0.4,0.8,0.5,1.3,0.5s1-0.2,1.3-0.5c0.3-0.4,0.5-0.8,0.5-1.4s-0.2-1-0.5-1.4c-0.4-0.4-0.8-0.5-1.3-0.5s-1,0.2-1.3,0.5
			c-0.4,0.4-0.5,0.8-0.5,1.4S169.1,16.1,169.4,16.4z"/>
		<path class="st9" d="M176.5,14.8V18h-1.2v-5.9h1.2v1.1c0.2-0.4,0.4-0.6,0.8-0.9c0.4-0.2,0.7-0.3,1.2-0.3c0.9,0,1.6,0.4,1.9,1.1
			c0.6-0.8,1.3-1.1,2.2-1.1c0.7,0,1.2,0.2,1.6,0.6c0.4,0.4,0.6,1,0.6,1.8V18h-1.2v-3.2c0-1.1-0.4-1.6-1.3-1.6
			c-0.4,0-0.8,0.1-1.1,0.4c-0.3,0.3-0.5,0.7-0.5,1.2V18h-1.2v-3.2c0-0.6-0.1-1-0.3-1.2c-0.2-0.3-0.5-0.4-0.9-0.4
			c-0.4,0-0.8,0.1-1.1,0.4C176.7,13.9,176.5,14.3,176.5,14.8z"/>
	</g>
	<g>
		<circle class="st10" cx="13.7" cy="10.1" r="2.8"/>
		<circle class="st11" cx="21.5" cy="10.1" r="2.8"/>
		<circle class="st12" cx="29.2" cy="10.1" r="2.8"/>
	</g>
	<rect x="180.5" y="133.2" class="st13" width="72.3" height="21.2"/>
	<g>
		<path class="st8" d="M192.5,148.2H189v-8.1h3.1c0.5,0,1,0.1,1.4,0.2c0.4,0.1,0.7,0.3,0.9,0.5c0.4,0.4,0.6,0.9,0.6,1.4
			c0,0.6-0.2,1.1-0.6,1.4c-0.1,0.1-0.2,0.2-0.3,0.2c-0.1,0-0.2,0.1-0.3,0.1c0.5,0.1,0.9,0.3,1.2,0.7c0.3,0.3,0.4,0.8,0.4,1.3
			c0,0.6-0.2,1.1-0.6,1.5C194.4,147.9,193.6,148.2,192.5,148.2z M190.4,143.5h1.7c1,0,1.5-0.3,1.5-1c0-0.4-0.1-0.7-0.4-0.8
			c-0.2-0.2-0.6-0.3-1.1-0.3h-1.7V143.5z M190.4,146.9h2.1c0.5,0,0.9-0.1,1.1-0.2c0.3-0.2,0.4-0.5,0.4-0.9c0-0.7-0.6-1.1-1.7-1.1h-2
			V146.9z"/>
		<path class="st8" d="M203.9,147.1c-0.8,0.8-1.8,1.2-3,1.2c-1.2,0-2.2-0.4-3-1.2c-0.8-0.8-1.2-1.8-1.2-3s0.4-2.2,1.2-3
			c0.8-0.8,1.8-1.2,3-1.2c1.2,0,2.2,0.4,3,1.2c0.8,0.8,1.2,1.8,1.2,3S204.7,146.3,203.9,147.1z M202.9,142c-0.5-0.6-1.2-0.9-2-0.9
			c-0.8,0-1.5,0.3-2,0.9c-0.5,0.6-0.8,1.3-0.8,2.1c0,0.8,0.3,1.5,0.8,2.1c0.5,0.6,1.2,0.9,2,0.9c0.8,0,1.5-0.3,2-0.9
			c0.5-0.6,0.8-1.3,0.8-2.1C203.7,143.3,203.4,142.6,202.9,142z"/>
		<path class="st8" d="M213.6,147.1c-0.8,0.8-1.8,1.2-3,1.2s-2.2-0.4-3-1.2c-0.8-0.8-1.2-1.8-1.2-3s0.4-2.2,1.2-3
			c0.8-0.8,1.8-1.2,3-1.2s2.2,0.4,3,1.2c0.8,0.8,1.2,1.8,1.2,3S214.4,146.3,213.6,147.1z M212.6,142c-0.5-0.6-1.2-0.9-2-0.9
			s-1.5,0.3-2,0.9c-0.5,0.6-0.8,1.3-0.8,2.1c0,0.8,0.3,1.5,0.8,2.1c0.5,0.6,1.2,0.9,2,0.9s1.5-0.3,2-0.9c0.5-0.6,0.8-1.3,0.8-2.1
			C213.4,143.3,213.1,142.6,212.6,142z"/>
		<path class="st8" d="M216.5,140.1h1.4v3.9l3.7-3.9h1.7l-3.2,3.5l3.3,4.5h-1.6l-2.7-3.5l-1.2,1.3v2.3h-1.4V140.1z"/>
		<path class="st8" d="M229.6,146.3c0.4,0.4,0.9,0.6,1.5,0.6c0.6,0,1.1-0.2,1.5-0.6c0.4-0.4,0.6-1,0.6-1.8v-4.5h1.4v4.5
			c0,1.2-0.3,2.1-1,2.7s-1.5,0.9-2.5,0.9c-1,0-1.8-0.3-2.5-0.9c-0.6-0.6-1-1.5-1-2.7v-4.5h1.4v4.5
			C229,145.3,229.2,145.9,229.6,146.3z"/>
		<path class="st8" d="M239.1,141.2c-0.4,0-0.7,0.1-1,0.2c-0.3,0.2-0.4,0.4-0.4,0.7c0,0.3,0.1,0.6,0.4,0.7c0.3,0.2,0.8,0.4,1.6,0.6
			c0.8,0.2,1.4,0.5,1.9,0.8c0.4,0.4,0.6,0.9,0.6,1.6c0,0.7-0.3,1.3-0.8,1.7c-0.5,0.4-1.2,0.7-2.1,0.7c-1.3,0-2.4-0.4-3.4-1.3l0.9-1
			c0.8,0.7,1.7,1.1,2.5,1.1c0.4,0,0.8-0.1,1-0.3c0.3-0.2,0.4-0.4,0.4-0.7c0-0.3-0.1-0.6-0.4-0.7c-0.2-0.2-0.7-0.3-1.3-0.5
			c-0.6-0.1-1-0.3-1.3-0.4c-0.3-0.1-0.6-0.3-0.8-0.5c-0.5-0.4-0.7-0.9-0.7-1.7c0-0.7,0.3-1.3,0.8-1.7c0.5-0.4,1.2-0.6,2-0.6
			c0.5,0,1,0.1,1.5,0.3c0.5,0.2,0.9,0.4,1.3,0.7l-0.7,1c-0.2-0.2-0.6-0.4-1-0.5C239.9,141.2,239.5,141.2,239.1,141.2z"/>
		<path class="st8" d="M244.5,148.3c-0.2,0-0.4-0.1-0.6-0.3c-0.2-0.2-0.3-0.4-0.3-0.6c0-0.2,0.1-0.4,0.3-0.6
			c0.2-0.2,0.4-0.3,0.6-0.3c0.2,0,0.4,0.1,0.6,0.3c0.2,0.2,0.3,0.4,0.3,0.6c0,0.2-0.1,0.4-0.3,0.6
			C244.9,148.2,244.7,148.3,244.5,148.3z M243.7,139.9h1.6v1.5l-0.3,4.2H244l-0.3-4.2V139.9z"/>
	</g>
	<g>
		<path class="st13" d="M186.3,62.4v-0.8c-1.1-0.1-2-0.5-2.8-1.3l0.8-1c0.6,0.6,1.3,0.9,2,1v-2.2c-0.9-0.2-1.5-0.5-1.9-0.8
			c-0.4-0.3-0.6-0.8-0.6-1.5c0-0.7,0.2-1.2,0.7-1.6c0.5-0.4,1.1-0.7,1.8-0.7v-0.6h0.7v0.6c0.8,0.1,1.6,0.3,2.4,0.9l-0.7,1.1
			c-0.5-0.4-1.1-0.6-1.6-0.7v2.2h0c0.9,0.2,1.5,0.5,1.9,0.8c0.4,0.4,0.6,0.9,0.6,1.5c0,0.7-0.2,1.2-0.7,1.6
			c-0.5,0.4-1.1,0.7-1.9,0.7v0.8H186.3z M185.5,55c-0.2,0.2-0.3,0.4-0.3,0.6c0,0.3,0.1,0.5,0.2,0.6c0.2,0.1,0.4,0.3,0.9,0.4v-2
			C186,54.7,185.7,54.8,185.5,55z M187.9,60c0.2-0.2,0.3-0.4,0.3-0.7c0-0.3-0.1-0.5-0.3-0.6c-0.2-0.2-0.5-0.3-0.9-0.4v2.1
			C187.4,60.3,187.7,60.2,187.9,60z"/>
		<path class="st13" d="M194.5,56.7c0.2-0.3,0.3-0.6,0.3-1c0-0.3-0.1-0.6-0.4-0.8c-0.2-0.2-0.6-0.3-0.9-0.3c-0.7,0-1.2,0.3-1.6,1
			l-1.1-0.6c0.4-0.5,0.7-0.9,1.2-1.2c0.4-0.3,1-0.4,1.6-0.4c0.7,0,1.3,0.2,1.8,0.6c0.5,0.4,0.8,1,0.8,1.7c0,0.4-0.1,0.8-0.3,1.2
			c-0.2,0.4-0.6,0.9-1.2,1.5l-1.9,1.9h3.7v1.3h-5.5v-1.2l2.4-2.5C193.9,57.4,194.2,57,194.5,56.7z"/>
		<path class="st13" d="M198.5,60.5c-0.5-0.8-0.8-1.8-0.8-3c0-1.3,0.3-2.3,0.8-3c0.5-0.8,1.4-1.1,2.5-1.1c1.1,0,1.9,0.4,2.5,1.1
			c0.5,0.8,0.8,1.8,0.8,3c0,1.3-0.3,2.3-0.8,3c-0.5,0.8-1.4,1.1-2.5,1.1C199.9,61.7,199,61.3,198.5,60.5z M199.5,55.3
			c-0.3,0.6-0.5,1.3-0.5,2.2s0.2,1.6,0.5,2.2c0.3,0.6,0.8,0.8,1.5,0.8c0.7,0,1.2-0.3,1.5-0.8c0.3-0.5,0.5-1.3,0.5-2.2
			c0-0.9-0.2-1.6-0.5-2.2c-0.3-0.5-0.8-0.8-1.5-0.8C200.3,54.5,199.8,54.8,199.5,55.3z"/>
		<path class="st13" d="M206.4,60.5c-0.5-0.8-0.8-1.8-0.8-3c0-1.3,0.3-2.3,0.8-3c0.5-0.8,1.4-1.1,2.5-1.1c1.1,0,1.9,0.4,2.5,1.1
			c0.5,0.8,0.8,1.8,0.8,3c0,1.3-0.3,2.3-0.8,3c-0.5,0.8-1.4,1.1-2.5,1.1C207.8,61.7,207,61.3,206.4,60.5z M207.4,55.3
			c-0.3,0.6-0.5,1.3-0.5,2.2s0.2,1.6,0.5,2.2c0.3,0.6,0.8,0.8,1.5,0.8c0.7,0,1.2-0.3,1.5-0.8c0.3-0.5,0.5-1.3,0.5-2.2
			c0-0.9-0.2-1.6-0.5-2.2c-0.3-0.5-0.8-0.8-1.5-0.8C208.2,54.5,207.7,54.8,207.4,55.3z"/>
		<path class="st13" d="M217.9,52.2h1.2l-5,10.7h-1.2L217.9,52.2z"/>
		<path class="st13" d="M221.2,58.3v3.3h-1.3v-6.1h1.3v1.1c0.2-0.4,0.5-0.7,0.9-0.9c0.4-0.2,0.8-0.3,1.2-0.3c0.7,0,1.2,0.2,1.7,0.6
			c0.4,0.4,0.6,1,0.6,1.8v3.8h-1.3v-3.4c0-1.1-0.5-1.7-1.4-1.7c-0.4,0-0.8,0.1-1.2,0.4C221.4,57.3,221.2,57.7,221.2,58.3z"/>
		<path class="st13" d="M227.5,54.2c-0.2-0.2-0.2-0.4-0.2-0.6c0-0.2,0.1-0.4,0.2-0.6c0.2-0.2,0.4-0.2,0.6-0.2c0.2,0,0.4,0.1,0.6,0.2
			c0.2,0.2,0.2,0.4,0.2,0.6c0,0.2-0.1,0.4-0.2,0.6c-0.2,0.2-0.4,0.2-0.6,0.2C227.8,54.5,227.6,54.4,227.5,54.2z M228.7,61.6h-1.3
			v-6.1h1.3V61.6z"/>
		<path class="st13" d="M236.2,55.5v5.3c0,1.1-0.3,1.9-0.9,2.4c-0.6,0.5-1.3,0.8-2.3,0.8c-0.9,0-1.8-0.3-2.5-0.9l0.6-1
			c0.6,0.5,1.2,0.7,1.8,0.7c0.6,0,1.1-0.2,1.5-0.5c0.4-0.3,0.5-0.8,0.5-1.5v-0.8c-0.2,0.4-0.5,0.6-0.8,0.9c-0.4,0.2-0.8,0.3-1.2,0.3
			c-0.8,0-1.5-0.3-2-0.9c-0.5-0.6-0.8-1.3-0.8-2.1c0-0.8,0.3-1.6,0.8-2.1c0.5-0.6,1.2-0.9,2-0.9c0.8,0,1.5,0.3,2,1v-0.9H236.2z
			 M231.4,58.3c0,0.5,0.2,0.9,0.5,1.3c0.3,0.4,0.7,0.5,1.3,0.5s1-0.2,1.3-0.5c0.3-0.4,0.5-0.8,0.5-1.3c0-0.5-0.2-1-0.5-1.3
			c-0.3-0.4-0.8-0.5-1.3-0.5c-0.5,0-0.9,0.2-1.2,0.6C231.6,57.3,231.4,57.8,231.4,58.3z"/>
		<path class="st13" d="M239.4,58.3v3.3h-1.3v-8.5h1.3v3.5c0.2-0.4,0.5-0.7,0.8-0.9c0.4-0.2,0.8-0.3,1.2-0.3c0.7,0,1.2,0.2,1.7,0.6
			c0.4,0.4,0.6,1,0.6,1.8v3.8h-1.3v-3.4c0-1.1-0.5-1.7-1.4-1.7c-0.4,0-0.8,0.1-1.2,0.4C239.5,57.3,239.4,57.7,239.4,58.3z"/>
		<path class="st13" d="M247.1,56.5v3.1c0,0.3,0.1,0.5,0.2,0.7c0.2,0.2,0.4,0.3,0.6,0.3c0.3,0,0.5-0.1,0.8-0.4l0.5,0.9
			c-0.5,0.4-1,0.6-1.5,0.6c-0.5,0-1-0.2-1.4-0.6c-0.4-0.4-0.6-0.9-0.6-1.5v-3.1h-0.8v-1h0.8v-1.9h1.3v1.9h1.6v1H247.1z"/>
	</g>
	<rect x="179.9" y="71.9" class="st14" width="74.5" height="51.5"/>
	<polygon class="st15" points="254.4,123.3 239.7,123.3 209.3,98.2 254.4,98.2 	"/>
	<line class="st16" x1="175" y1="71.4" x2="245.1" y2="127.1"/>
	<line class="st16" x1="208.9" y1="98.4" x2="255.1" y2="98.4"/>
	<rect x="172.9" y="123.3" class="st1" width="85.4" height="8.2"/>
	<rect x="163.7" y="64.1" class="st1" width="16" height="67.5"/>
	<g>
		<rect x="225.1" y="91.1" class="st8" width="4.7" height="5.9"/>
		<g>
			<defs>
				<rect id="SVGID_1_" x="222.3" y="88.7" width="10.7" height="15.6"/>
			</defs>
			<clipPath id="SVGID_2_">
				<use xlink:href="#SVGID_1_"  style="overflow:visible;"/>
			</clipPath>
			<path class="st17" d="M227.6,96c-0.7,0-1.5-0.3-1.8-1.3c-0.1-0.2-0.1-0.5-0.1-0.5v-0.4c0-1.2,1-1.8,1.9-1.8c1.1,0,2,0.9,2,2
				C229.7,95.1,228.7,96,227.6,96 M232.8,92.6c-0.1-0.2-0.2-0.4-0.3-0.6c-1-2.4-3.2-3.3-4.9-3.3c-2.4,0-5,1.6-5.3,4.8v0.7
				c0,0,0,0.3,0,0.4c0.2,1.6,1.4,3.2,2.3,4.8c1,1.7,2,3.3,3,4.9c0.6-1.1,1.2-2.1,1.9-3.2c0.2-0.3,0.4-0.6,0.5-0.9
				c0.1-0.2,0.3-0.4,0.4-0.6c1-1.8,2.6-3.6,2.6-5.4v-0.7C233,93.3,232.8,92.7,232.8,92.6"/>
		</g>
	</g>
	<rect x="253" y="64.1" class="st1" width="16" height="67.5"/>
	<polygon class="st18" points="73.8,124.8 92.6,120.3 95.8,118.3 95.5,125.6 75.7,130.2 	"/>
	<polygon class="st18" points="105,124.5 71.9,136.2 65.4,132.8 103.2,119.4 	"/>
	<path d="M57.1,68.1c1.1,2.9,3.4,4.7,5.1,4c1.7-0.7,2.2-3.5,1.1-6.4c-1.1-2.9-3.4-4.7-5.1-4C56.5,62.4,56,65.3,57.1,68.1z"/>
	<path class="st5" d="M110,119.4c0.1,0.3,0.5,0.5,0.9,0.3l0,0c0.3-0.1,0.5-0.5,0.4-0.8l-2.9-6.3c-0.1-0.3-0.5-0.5-0.9-0.3l0,0
		c-0.3,0.1-0.5,0.5-0.4,0.8L110,119.4z"/>
	<path class="st18" d="M106.2,114.9c0.8-0.9,2.2-0.9,3.1,0l1.4,1.3c1,0.9,1.1,2.3,0.3,3.2l-4.6,5.2c-0.8,0.9-2.2,0.9-3.1,0l-1.4-1.3
		c-1-0.9-1.1-2.3-0.4-3.2L106.2,114.9z"/>
	<ellipse class="st19" cx="61.8" cy="73.9" rx="1.9" ry="3.3"/>
	<path class="st4" d="M41.2,89.2c0,2.8,2.6,5.1,5.9,5.1h8.7c3.2,0,5.9-2.3,5.9-5.1V69.6c0-2.8-2.6-5.1-5.9-5.1H47
		c-3.2,0-5.9,2.3-5.9,5.1V89.2z"/>
	<path class="st20" d="M51.4,64.4h4.4c3.2,0,5.9,2.3,5.9,5.1v19.7c0,2.8-2.6,5.1-5.9,5.1h-4.4V64.4z"/>
	<path class="st2" d="M46.5,76.3c0,0.4,0.3,0.7,0.7,0.7s0.7-0.3,0.7-0.7c0-0.4-0.3-0.7-0.7-0.7S46.5,75.9,46.5,76.3z"/>
	<path class="st2" d="M55.4,76.3c0,0.4,0.3,0.7,0.7,0.7c0.4,0,0.7-0.3,0.7-0.7c0-0.4-0.3-0.7-0.7-0.7C55.7,75.6,55.4,75.9,55.4,76.3
		z"/>
	<rect x="45.3" y="72.8" width="4.4" height="1.2"/>
	<rect x="54.4" y="72.8" width="4.4" height="1.2"/>
	<path class="st4" d="M38.7,73.9c0,1.8,1,3.3,2.3,3.3c1.3,0,2.3-1.5,2.3-3.3c0-1.8-1-3.3-2.3-3.3C39.8,70.6,38.7,72.1,38.7,73.9z"/>
	<path d="M41.6,63.2c0.7,6.3,26.1,11.5,21.5-5.5C60.9,65.4,40.3,51.5,41.6,63.2z"/>
	<path d="M38.3,64.8c-0.6,3,0.3,5.8,2.1,6.2c1.8,0.4,3.8-1.8,4.4-4.8c0.6-3-0.3-5.8-2.1-6.2C40.9,59.6,39,61.8,38.3,64.8z"/>
	<polygon class="st4" points="51.3,72.5 55.1,85 51.3,85 	"/>
	<path class="st21" d="M51.7,88.8c0.5,0,1,0,1.4-0.1c1.3-0.2,2.1-0.5,2.1-0.5L55.1,88c0,0-3.4,1.2-6.5,0l-0.1,0.3
		C49.6,88.7,50.7,88.8,51.7,88.8z"/>
	<rect x="46.1" y="94.3" class="st4" width="10.5" height="5"/>
	<path class="st22" d="M67.4,123.6c-3.4,1.2-5.2,5.1-4,8.5c1.2,3.4,5.1,5.2,8.5,4c2.3-0.8,3.8-2.7,4.2-4.9l-2.2,0.8
		c-0.5,1.1-1.5,2-2.7,2.4c-2.5,0.9-5.3-0.4-6.2-2.9c-0.9-2.5,0.4-5.3,2.9-6.2c1.3-0.5,2.6-0.4,3.7,0.2l2.1-0.8
		C72.2,123.3,69.7,122.8,67.4,123.6z"/>
	<path class="st7" d="M71.8,125.5c-1.1-0.5-2.4-0.6-3.7-0.2c-2.5,0.9-3.8,3.7-2.9,6.2c0.9,2.5,3.7,3.8,6.2,2.9
		c1.2-0.4,2.2-1.4,2.7-2.4L71.8,125.5z"/>
	<path class="st7" d="M72,136.1c-3.4,1.2-7.3-0.5-8.5-4c-1.2-3.4,0.5-7.3,4-8.5c2.3-0.8,4.7-0.3,6.5,1.1l1.2-0.4
		c-2.1-2-5.1-2.8-8-1.7c-4,1.5-6.1,5.9-4.6,9.9c1.5,4,5.9,6.1,9.9,4.6c2.8-1,4.7-3.6,5-6.4l-1.2,0.4C75.8,133.3,74.2,135.3,72,136.1
		z"/>
	<path class="st22" d="M128.8,108.9c0.1-0.6-0.1-0.7-0.3-0.8c-1-0.8-3.3-2.8-3.3-2.8s-9.7,3.7-10.8,4.3c-0.4,0.2-0.8,0.9-1.1,1.2
		c-0.3,0.3-0.5,0.5-0.8,0.7c-0.3,0.2-1.8,0.7-3.8,1.4l0,0c-7.5,2.6-24.8,8.1-24.8,8.1c-0.2-0.3-2.1-3.9-3.4-5c-1.2-1-3.2-1.8-4.1-2
		c-1.6-0.5-4.2-0.9-7.2,0.4c-1.2,0.5-2.3,1.4-3.4,2.3c-1.3,1.1-2.7,2.2-4.3,2.6c-1.7,0.4-4.1-0.1-6.2-0.5c-1-0.2-1.9-0.4-2.6-0.5
		c-2.8-0.3-6.2-0.7-9.4,0.2c-0.9,0.3-1.8,0.6-2.5,0.9c-6.5,3-8.5,9.9-5.6,19.2c0.3,1,0.6,1.9,1,2.9c0.3,0.9,0.7,1.8,1.1,2.7
		c1.2,2.8,3.6,7.8,6.9,10.3c3.5,2,7,2.5,10.6,1.5c1.1-0.3,1.9-0.6,2.7-1c3.8-1.8,6.2-4.8,8.5-7.8c0.3-0.4,0.6-0.8,0.9-1.2
		c0.1-0.2,0.3-0.3,0.4-0.5c0.8-1,1.6-2,2.6-2.5c1.9-1,3.8-1,5.6-1.1c1.4,0,2.9-0.1,4.4-0.6c3-1,5-2.9,6.1-5.6c0.9-2.4,1-5.3,0.3-8.6
		c2.3-0.9,17.3-7.1,24.2-9.8l0,0c2.1-0.8,3.6-1.3,4-1.4c0.3-0.1,0.7,0,1,0c0.4,0,1.3,0.3,1.7,0.1c2.6-0.7,9.5-3,10.7-3.3
		C127.9,113.2,128.7,109.8,128.8,108.9z M51.5,145.8l-5.7-15.7l3.3-1.2l5.7,15.7L51.5,145.8z M72.3,137.1c-4,1.5-8.5-0.6-9.9-4.6
		c-1.5-4,0.6-8.5,4.6-9.9c2.9-1,6-0.3,8,1.7l-1.2,0.4l-2.1,0.8l2.3,6.4l2.2-0.8l1.2-0.4C77,133.5,75.2,136.1,72.3,137.1z"/>
	
		<rect x="41.9" y="135.6" transform="matrix(-0.341 -0.9401 0.9401 -0.341 -61.6406 231.4516)" class="st7" width="16.7" height="3.6"/>
	<path class="st5" d="M63.1,131.1c-0.3,0.3-0.3,0.7,0,1l0,0c0.3,0.3,0.7,0.3,1,0.1l5.4-5.4c0.3-0.3,0.3-0.7,0-1l0,0
		c-0.3-0.3-0.7-0.3-1-0.1L63.1,131.1z"/>
	<path class="st18" d="M66.5,129.1c1.1-0.6,2.5-0.2,3.2,0.9l0.9,1.7c0.6,1.1,0.3,2.6-0.9,3.2l-6.7,3.7c-1.1,0.6-2.5,0.2-3.2-0.9
		L59,136c-0.6-1.1-0.2-2.6,0.9-3.2L66.5,129.1z"/>
	<path class="st5" d="M64.5,130.1c-0.3,0.2-0.4,0.6-0.3,0.9l0,0c0.2,0.3,0.6,0.4,0.9,0.3l6.6-3.7c0.3-0.2,0.4-0.6,0.3-0.9l0,0
		c-0.2-0.3-0.6-0.4-0.9-0.3L64.5,130.1z"/>
	<path class="st5" d="M64.5,132c-0.3,0.2-0.4,0.6-0.3,0.9l0,0c0.2,0.3,0.6,0.4,0.9,0.3l6.6-3.7c0.3-0.2,0.4-0.6,0.3-0.9l0,0
		c-0.2-0.3-0.6-0.4-0.9-0.3L64.5,132z"/>
	<path class="st5" d="M64.5,133.8c-0.3,0.2-0.4,0.6-0.3,0.9l0,0c0.2,0.3,0.6,0.4,0.9,0.3l6.6-3.7c0.3-0.2,0.4-0.6,0.3-0.9l0,0
		c-0.2-0.3-0.6-0.4-0.9-0.3L64.5,133.8z"/>
	<path class="st5" d="M64.5,135.4c-0.3,0.2-0.4,0.6-0.3,0.9l0,0c0.2,0.3,0.6,0.4,0.9,0.3l6.6-3.7c0.3-0.2,0.4-0.6,0.3-0.9l0,0
		c-0.2-0.3-0.6-0.4-0.9-0.3L64.5,135.4z"/>
	<path class="st18" d="M63.1,138.6c3.6-1.4-35.2,11.2-35.8,10.3c-1.4-2.1,0-8,0-8l33.9-8.7L63.1,138.6z"/>
	<path class="st5" d="M107.4,120.7c0.1,0.2,0.5,0.3,0.9,0.4l0,0c0.4,0,0.7-0.1,0.6-0.3l-2.2-3.4c-0.1-0.2-0.5-0.3-0.9-0.4l0,0
		c-0.4,0-0.7,0.1-0.5,0.3L107.4,120.7z"/>
	<path class="st5" d="M108.1,119.6c0.1,0.2,0.5,0.4,1,0.4l0,0c0.4,0,0.7-0.1,0.6-0.3l-2.2-3.9c-0.1-0.2-0.5-0.4-1-0.4l0,0
		c-0.4,0-0.7,0.1-0.6,0.3L108.1,119.6z"/>
	<path class="st5" d="M109.6,118c0,0.2,0.3,0.5,0.7,0.7l0,0c0.3,0.2,0.6,0.2,0.6,0l-0.6-3.6c0-0.2-0.3-0.5-0.7-0.7l0,0
		c-0.3-0.2-0.6-0.2-0.5,0L109.6,118z"/>
	<path class="st5" d="M108.7,118c0.1,0.2,0.4,0.3,0.7,0.3l0,0c0.3,0,0.5-0.1,0.4-0.3l-1.4-3.6c-0.1-0.2-0.4-0.3-0.7-0.3l0,0
		c-0.3,0-0.5,0.1-0.4,0.3L108.7,118z"/>
	<path class="st23" d="M107.8,126.8"/>
	<rect x="92.5" y="104.2" class="st24" width="2.1" height="50"/>
	<rect x="21.9" y="153.2" class="st1" width="84" height="11.7"/>
	<polygon class="st25" points="89,95.7 104.2,104.9 101.9,109 84.4,100.2 87.3,93.1 	"/>
	<path class="st26" d="M79.9,98.6c1,3,4.2,4.7,7.2,3.7c3-1,4.7-4.2,3.7-7.2c-1-3-4.2-4.7-7.2-3.7C80.7,92.4,79,95.6,79.9,98.6z"/>
	<ellipse class="st22" cx="116.4" cy="108.1" rx="0.4" ry="0.6"/>
	<ellipse class="st22" cx="118.5" cy="116.5" rx="0.4" ry="0.6"/>
	<path class="st22" d="M119.9,107c0-0.4-0.2-0.6-0.4-0.6c-0.2,0-0.4,0.3-0.4,0.6c0,0.4,0.2,0.6,0.4,0.6
		C119.8,107.7,119.9,107.4,119.9,107z"/>
	<ellipse class="st22" cx="122.7" cy="106" rx="0.4" ry="0.6"/>
	<ellipse class="st22" cx="121.6" cy="115.4" rx="0.4" ry="0.6"/>
	<ellipse class="st22" cx="125.8" cy="114.4" rx="0.4" ry="0.6"/>
	<g>
		<path class="st9" d="M59.3,164.3h1.3v2.6c-0.7,0.8-1.8,1.2-3.1,1.2c-1.1,0-2.1-0.4-2.9-1.1c-0.8-0.8-1.2-1.7-1.2-2.9
			s0.4-2.1,1.2-2.9c0.8-0.8,1.7-1.1,2.8-1.1c1.1,0,2,0.3,2.8,1l-0.7,1c-0.3-0.3-0.6-0.4-0.9-0.5c-0.3-0.1-0.7-0.1-1.1-0.1
			c-0.8,0-1.4,0.3-2,0.8c-0.5,0.5-0.8,1.2-0.8,2c0,0.8,0.3,1.5,0.8,2c0.5,0.5,1.1,0.7,1.9,0.7c0.7,0,1.3-0.2,1.8-0.5V164.3z"/>
		<path class="st9" d="M66.3,165.4v-3.2h1.2v5.9h-1.2V167c-0.2,0.4-0.5,0.6-0.8,0.9c-0.4,0.2-0.7,0.3-1.1,0.3
			c-0.7,0-1.2-0.2-1.6-0.6c-0.4-0.4-0.6-1-0.6-1.8v-3.6h1.2v3.2c0,1.1,0.4,1.6,1.3,1.6c0.4,0,0.8-0.1,1.1-0.4
			C66.1,166.3,66.3,165.9,66.3,165.4z"/>
		<path class="st9" d="M69.4,161c-0.2-0.2-0.2-0.3-0.2-0.6c0-0.2,0.1-0.4,0.2-0.6s0.3-0.2,0.6-0.2c0.2,0,0.4,0.1,0.6,0.2
			s0.2,0.3,0.2,0.6c0,0.2-0.1,0.4-0.2,0.6c-0.2,0.2-0.3,0.2-0.6,0.2C69.7,161.2,69.6,161.2,69.4,161z M70.6,168.1h-1.2v-5.9h1.2
			V168.1z"/>
		<path class="st9" d="M73.9,163.2v3c0,0.3,0.1,0.5,0.2,0.7c0.1,0.2,0.4,0.2,0.6,0.2s0.5-0.1,0.8-0.4l0.5,0.9
			c-0.4,0.4-0.9,0.6-1.4,0.6c-0.5,0-1-0.2-1.3-0.5c-0.4-0.4-0.6-0.9-0.6-1.5v-3h-0.7v-1h0.7v-1.8h1.2v1.8h1.5v1H73.9z"/>
		<path class="st9" d="M81.7,168.1h-1.1v-0.8c-0.5,0.6-1.1,0.9-2,0.9c-0.6,0-1.1-0.2-1.5-0.5c-0.4-0.3-0.6-0.8-0.6-1.4
			c0-0.6,0.2-1,0.6-1.3c0.4-0.3,1-0.4,1.7-0.4h1.6v-0.2c0-0.8-0.4-1.2-1.3-1.2c-0.5,0-1.1,0.2-1.7,0.6l-0.6-0.8
			c0.7-0.6,1.5-0.9,2.4-0.9c0.7,0,1.3,0.2,1.7,0.5c0.4,0.3,0.7,0.9,0.7,1.7V168.1z M80.5,165.9v-0.5h-1.4c-0.9,0-1.3,0.3-1.3,0.8
			c0,0.3,0.1,0.5,0.3,0.7c0.2,0.2,0.5,0.2,0.9,0.2c0.4,0,0.7-0.1,1-0.3C80.3,166.5,80.5,166.2,80.5,165.9z"/>
		<path class="st9" d="M86.5,163.3c-0.6,0-1.1,0.2-1.4,0.6c-0.3,0.4-0.5,0.9-0.5,1.6v2.5h-1.2v-5.9h1.2v1.2c0.2-0.4,0.5-0.7,0.8-0.9
			c0.3-0.2,0.7-0.4,1.1-0.4L86.5,163.3C86.6,163.3,86.6,163.3,86.5,163.3z"/>
		<path class="st9" d="M96.4,164.3h1.3v2.6c-0.7,0.8-1.8,1.2-3.1,1.2c-1.1,0-2.1-0.4-2.9-1.1c-0.8-0.8-1.2-1.7-1.2-2.9
			s0.4-2.1,1.2-2.9c0.8-0.8,1.7-1.1,2.8-1.1c1.1,0,2,0.3,2.8,1l-0.7,1c-0.3-0.3-0.6-0.4-0.9-0.5c-0.3-0.1-0.7-0.1-1.1-0.1
			c-0.8,0-1.4,0.3-2,0.8c-0.5,0.5-0.8,1.2-0.8,2c0,0.8,0.3,1.5,0.8,2c0.5,0.5,1.1,0.7,1.9,0.7c0.7,0,1.3-0.2,1.8-0.5V164.3z"/>
		<path class="st9" d="M104,168.1h-1.1v-0.8c-0.5,0.6-1.1,0.9-2,0.9c-0.6,0-1.1-0.2-1.5-0.5c-0.4-0.3-0.6-0.8-0.6-1.4
			c0-0.6,0.2-1,0.6-1.3c0.4-0.3,1-0.4,1.7-0.4h1.6v-0.2c0-0.8-0.4-1.2-1.3-1.2c-0.5,0-1.1,0.2-1.7,0.6l-0.6-0.8
			c0.7-0.6,1.5-0.9,2.4-0.9c0.7,0,1.3,0.2,1.7,0.5c0.4,0.3,0.7,0.9,0.7,1.7V168.1z M102.8,165.9v-0.5h-1.4c-0.9,0-1.3,0.3-1.3,0.8
			c0,0.3,0.1,0.5,0.3,0.7c0.2,0.2,0.5,0.2,0.9,0.2c0.4,0,0.7-0.1,1-0.3C102.6,166.5,102.8,166.2,102.8,165.9z"/>
		<path class="st9" d="M108.4,168.1H107l-2-5.9h1.3l1.5,4.4l1.5-4.4h1.3l1.5,4.4l1.5-4.4h1.3l-2,5.9h-1.4l-1.4-4L108.4,168.1z"/>
		<path class="st9" d="M116.2,167.3c-0.6-0.6-0.8-1.3-0.8-2.2c0-0.9,0.3-1.6,0.9-2.2c0.6-0.5,1.2-0.8,2-0.8c0.8,0,1.4,0.3,1.9,1
			v-3.2h1.2v8.2h-1.2v-0.9c-0.5,0.6-1.1,1-2,1C117.4,168.1,116.8,167.9,116.2,167.3z M116.6,165.1c0,0.6,0.2,1,0.5,1.4
			c0.4,0.4,0.8,0.5,1.3,0.5c0.5,0,0.9-0.2,1.2-0.5c0.3-0.4,0.5-0.8,0.5-1.4s-0.2-1-0.5-1.4c-0.3-0.4-0.8-0.6-1.2-0.6
			c-0.5,0-0.9,0.2-1.3,0.6C116.8,164.1,116.6,164.6,116.6,165.1z"/>
		<path class="st9" d="M127.4,166.3c0,0.6-0.2,1-0.6,1.3c-0.4,0.3-0.9,0.5-1.6,0.5c-0.4,0-0.9-0.1-1.3-0.2c-0.5-0.2-0.9-0.4-1.2-0.7
			l0.6-1c0.7,0.5,1.3,0.8,2,0.8c0.3,0,0.5-0.1,0.7-0.2s0.2-0.3,0.2-0.5c0-0.3-0.4-0.6-1.2-0.8c-0.1,0-0.1,0-0.1,0
			c-1.2-0.3-1.8-0.9-1.8-1.7c0-0.5,0.2-1,0.6-1.3c0.4-0.3,1-0.5,1.7-0.5c0.7,0,1.3,0.2,1.9,0.6l-0.5,0.9c-0.5-0.3-1-0.5-1.6-0.5
			c-0.3,0-0.5,0.1-0.7,0.2c-0.2,0.1-0.3,0.3-0.3,0.5c0,0.2,0.1,0.3,0.3,0.4c0.1,0.1,0.3,0.1,0.6,0.2c0.2,0.1,0.5,0.1,0.6,0.2
			c0.2,0.1,0.4,0.1,0.5,0.2c0.2,0.1,0.4,0.2,0.6,0.3C127.2,165.3,127.4,165.7,127.4,166.3z"/>
	</g>
	<polygon class="st18" points="26.9,147 28.6,114.5 41.2,115.2 38.8,143.3 	"/>
	<polygon class="st3" points="27.7,103.4 26.1,127.6 44.2,125.9 43,99.3 	"/>
	<path class="st27" d="M143.5,81.5c0-1.8-0.4-3.6-1-5.2c-0.7-1.7-1.7-3.2-3-4.4c-1.3-1.3-2.8-2.3-4.4-3c-1.6-0.7-3.3-1-5-1V36.5
		l-0.9,0l0.1,31.3c-1.7,0-3.2,0.4-4.8,1.1c-1.7,0.7-3.2,1.7-4.4,3c-1.3,1.3-2.3,2.8-3,4.4c-0.7,1.7-1,3.5-1,5.3c0,1.8,0.4,3.6,1,5.3
		c0.7,1.7,1.7,3.2,3,4.4c1.3,1.3,2.8,2.3,4.4,3c1.7,0.7,3.5,1,5.3,1l0,0l0,0l0,0c1.8,0,3.6-0.3,5.3-1c1.7-0.7,3.2-1.7,4.4-3
		c1.3-1.3,2.3-2.8,3-4.4C143.1,85.2,143.5,83.4,143.5,81.5C143.5,81.6,143.5,81.6,143.5,81.5L143.5,81.5L143.5,81.5L143.5,81.5
		C143.5,81.5,143.5,81.5,143.5,81.5z M129.8,90.8c-0.3,0-0.6,0-0.9,0c-0.1-0.8-0.1-1.5-0.2-2.3c0-0.1,0-0.1,0-0.2c0.4,0,0.8,0,1.2,0
		c0.4,0,0.8,0,1.2,0c0,0.1,0,0.1,0,0.2c-0.1,0.8-0.1,1.6-0.2,2.3C130.4,90.8,130.1,90.8,129.8,90.8z M130.7,91.1
		c0,0.3-0.1,0.5-0.1,0.8c-0.1,0.4-0.1,0.8-0.2,1.2c-0.2,0-0.4,0-0.6,0c-0.2,0-0.4,0-0.6,0c-0.1-0.4-0.1-0.8-0.2-1.2
		c0-0.3-0.1-0.5-0.1-0.8c0.3,0,0.6,0,0.9,0C130.1,91.1,130.4,91.1,130.7,91.1z M129.8,72.3c0.3,0,0.6,0,0.9,0
		c0.1,0.8,0.1,1.5,0.2,2.3c0,0.1,0,0.1,0,0.2c-0.4,0-0.8,0-1.2,0c-0.4,0-0.8,0-1.2,0c0-0.1,0-0.1,0-0.2c0.1-0.8,0.1-1.6,0.2-2.3
		C129.2,72.3,129.5,72.3,129.8,72.3z M140.8,79.1c-0.5-0.2-1.1-0.4-1.6-0.5c-0.1-0.5-0.2-1-0.3-1.5c0-0.1,0-0.1,0-0.2
		c0.3,0.1,0.5,0.2,0.8,0.4c0.5,0.2,0.9,0.5,1.4,0.8c0.1,0.4,0.2,0.8,0.2,1.2C141,79.2,140.9,79.2,140.8,79.1z M138.8,78.8
		c0.1,0.5,0.1,1,0.2,1.5c-0.8-0.1-1.5-0.1-2.3-0.2c-0.1,0-0.2,0-0.2,0c0-0.6-0.1-1.2-0.1-1.8c0.3,0,0.5,0.1,0.8,0.1
		C137.7,78.6,138.3,78.7,138.8,78.8z M136,78.3c0.1,0.6,0.1,1.2,0.2,1.8c-0.8,0-1.5-0.1-2.3-0.1c0-0.7-0.1-1.3-0.1-2
		C134.5,78.1,135.2,78.1,136,78.3z M131.4,85.6c0.7,0,1.3-0.1,2-0.1c-0.1,0.8-0.2,1.5-0.3,2.3c-0.6,0.1-1.2,0.1-1.8,0.2
		C131.3,87.1,131.4,86.4,131.4,85.6z M133.7,85.1c0.1-0.7,0.1-1.3,0.1-2c0.8,0,1.5-0.1,2.3-0.1c0,0.6-0.1,1.2-0.2,1.8
		C135.2,85,134.5,85.1,133.7,85.1z M137.8,76.1c-0.7-0.2-1.3-0.4-2-0.6c-0.2-0.7-0.4-1.4-0.6-2c-0.1-0.1-0.1-0.3-0.2-0.4
		c0.8,0.2,1.6,0.5,2.3,0.9c0.4,0.7,0.7,1.5,0.9,2.3C138.1,76.2,138,76.2,137.8,76.1z M132.9,74.2c0,0.3,0.1,0.5,0.1,0.8
		c-0.6-0.1-1.2-0.1-1.8-0.2c0-0.1,0-0.2,0-0.2c-0.1-0.8-0.1-1.5-0.2-2.3c0.5,0,1,0.1,1.5,0.2C132.7,73.1,132.8,73.7,132.9,74.2z
		 M128.4,79.9c0-0.7,0-1.4,0-2.1c0.4,0,0.9,0,1.3,0c0.4,0,0.9,0,1.3,0c0,0.7,0,1.4,0,2.1c-0.4,0-0.9,0-1.3,0
		C129.3,79.9,128.9,79.9,128.4,79.9z M131.1,77.5c-0.4,0-0.9,0-1.3,0c-0.4,0-0.9,0-1.3,0c0-0.8,0.1-1.5,0.1-2.3c0.4,0,0.8,0,1.2,0
		c0.4,0,0.8,0,1.2,0C131,76,131,76.7,131.1,77.5z M128.1,82.9c-0.7,0-1.4,0-2,0c0-0.4,0-0.9,0-1.3c0-0.4,0-0.9,0-1.3
		c0.7,0,1.4,0,2,0c0,0.4,0,0.9,0,1.3C128.1,82,128.1,82.5,128.1,82.9z M126.1,79.9c0-0.7,0.1-1.3,0.1-2c0.7-0.1,1.3-0.1,2-0.1
		c0,0.7,0,1.4,0,2C127.4,79.9,126.8,79.9,126.1,79.9z M125.7,80.3c0,0.4,0,0.9,0,1.3c0,0.4,0,0.9,0,1.3c-0.8,0-1.5-0.1-2.3-0.1
		c0-0.4,0-0.8,0-1.2c0-0.4,0-0.8,0-1.2C124.2,80.3,125,80.3,125.7,80.3z M125.7,83.2c0,0.7,0.1,1.3,0.1,2c-0.8-0.1-1.5-0.2-2.3-0.3
		c-0.1-0.6-0.1-1.2-0.2-1.8C124.2,83.1,125,83.1,125.7,83.2z M126.1,83.2c0.7,0,1.4,0,2,0c0,0.7,0,1.4,0,2c-0.7,0-1.3-0.1-2-0.1
		C126.1,84.5,126.1,83.8,126.1,83.2z M128.2,85.6c0,0.8,0.1,1.5,0.1,2.3c-0.6,0-1.2-0.1-1.8-0.2c-0.1-0.8-0.2-1.5-0.3-2.3
		C126.9,85.5,127.5,85.6,128.2,85.6z M124.3,73.5c-0.2,0.7-0.4,1.3-0.6,2c-0.7,0.2-1.4,0.4-2,0.6c-0.1,0.1-0.3,0.1-0.4,0.2
		c0.2-0.8,0.5-1.6,0.9-2.3c0.8-0.4,1.5-0.7,2.3-0.9C124.5,73.2,124.4,73.4,124.3,73.5z M121.8,76.4c0.6-0.2,1.2-0.4,1.8-0.5
		c-0.1,0.5-0.2,1.1-0.3,1.6c0,0.2,0,0.3-0.1,0.5c-0.3,0-0.6,0.1-0.9,0.2c-0.5,0.1-1.1,0.2-1.6,0.4c0.1-0.5,0.2-0.9,0.3-1.4
		c0-0.1,0.1-0.3,0.1-0.4C121.4,76.6,121.6,76.5,121.8,76.4z M122.4,85c0.3,0.1,0.6,0.1,0.9,0.2c0,0.2,0,0.3,0.1,0.5
		c0.1,0.5,0.2,1.1,0.3,1.6c-0.6-0.2-1.2-0.3-1.8-0.5c-0.2-0.1-0.4-0.2-0.7-0.3c0-0.1-0.1-0.3-0.1-0.4c-0.1-0.5-0.2-0.9-0.3-1.4
		C121.3,84.8,121.9,84.9,122.4,85z M124.1,87.7c0.5,0.1,1.1,0.2,1.6,0.3c0.2,0,0.3,0,0.5,0.1c0,0.3,0.1,0.6,0.2,0.9
		c0.1,0.5,0.2,1.1,0.4,1.6c-0.5-0.1-0.9-0.2-1.4-0.3c-0.1,0-0.3-0.1-0.4-0.1c-0.1-0.2-0.2-0.4-0.2-0.7
		C124.4,88.9,124.3,88.3,124.1,87.7z M126.7,88.9c0-0.3-0.1-0.5-0.1-0.8c0.6,0.1,1.2,0.1,1.8,0.2c0,0.1,0,0.2,0,0.2
		c0,0.8,0.1,1.5,0.2,2.3c-0.5,0-1-0.1-1.5-0.2C126.4,88,127,90.8,126.7,88.9z M128.5,85.6c0.4,0,0.9,0,1.3,0c0.4,0,0.9,0,1.3,0
		c0,0.8-0.1,1.5-0.1,2.3c-0.4,0-0.8,0-1.2,0c-0.4,0-0.8,0-1.2,0C128.6,87.2,128.5,86.4,128.5,85.6z M131.2,88.5c0-0.1,0-0.2,0-0.2
		c0.6,0,1.2-0.1,1.8-0.2c0,0.3-0.1,0.5-0.1,0.8c-0.1,0.6-0.2,1.2-0.4,1.7c-0.5,0.1-1,0.1-1.5,0.2C131.1,90,131.2,89.2,131.2,88.5z
		 M133.2,88.9c0.1-0.3,0.1-0.6,0.2-0.9c0.2,0,0.3,0,0.5-0.1c0.5-0.1,1.1-0.2,1.6-0.3c-0.2,0.6-0.3,1.2-0.5,1.8
		c-0.1,0.2-0.2,0.4-0.3,0.7c-0.1,0-0.3,0.1-0.4,0.1c-0.5,0.1-0.9,0.2-1.4,0.3C133,90,133.1,89.5,133.2,88.9z M137.7,86.7
		c-0.6,0.2-1.2,0.4-1.8,0.5c0.1-0.5,0.2-1.1,0.3-1.6c0-0.2,0-0.3,0.1-0.5c0.3,0,0.6-0.1,0.9-0.2c0.5-0.1,1.1-0.2,1.6-0.4
		c-0.1,0.5-0.2,0.9-0.3,1.4c0,0.1-0.1,0.3-0.1,0.4C138.2,86.5,138,86.6,137.7,86.7z M136.7,82.7c-0.1,0-0.1,0-0.2,0
		c0-0.4,0-0.8,0-1.2c0-0.4,0-0.8,0-1.2c0.1,0,0.1,0,0.2,0c0.8,0.1,1.6,0.1,2.3,0.2c0,0.3,0,0.6,0,0.9c0,0.3,0,0.6,0,0.9
		C138.2,82.6,137.5,82.6,136.7,82.7z M139.7,76.9c-0.3-0.2-0.7-0.3-1.1-0.5c-0.2-0.8-0.5-1.5-0.8-2.3c0.2,0.1,0.4,0.2,0.6,0.3
		c0.6,0.4,1.2,0.8,1.8,1.3c0.1,0.3,0.2,0.6,0.4,0.9c0.1,0.3,0.2,0.6,0.3,0.9C140.5,77.3,140.1,77.1,139.7,76.9z M138.6,74.2
		c-0.3-0.2-0.6-0.3-0.9-0.5c-0.2-0.3-0.3-0.6-0.5-0.9c-0.3-0.5-0.6-0.9-0.9-1.4c0.8,0.4,1.6,0.9,2.3,1.4c0.5,0.7,1,1.5,1.4,2.3
		C139.5,74.8,139,74.5,138.6,74.2z M134.1,71.8c0.1,0.3,0.3,0.5,0.4,0.8c-0.1,0-0.1,0-0.2,0c-0.5-0.1-1-0.2-1.5-0.3
		c-0.1-0.6-0.3-1.1-0.5-1.6c-0.1-0.1-0.1-0.3-0.2-0.4c0.4,0.1,0.8,0.1,1.2,0.2C133.6,70.8,133.9,71.3,134.1,71.8z M128.6,71.2
		c0,0.3-0.1,0.6-0.1,0.8c-0.5,0-0.9,0.1-1.4,0.1c0.1-0.5,0.3-1,0.5-1.5c0.1-0.2,0.2-0.4,0.3-0.6c0.3,0,0.6-0.1,0.9-0.1
		C128.8,70.4,128.7,70.8,128.6,71.2z M127.3,70.6c-0.2,0.5-0.4,1.1-0.5,1.6c-0.5,0.1-1,0.2-1.5,0.3c-0.1,0-0.1,0-0.2,0
		c0.1-0.3,0.2-0.5,0.4-0.8c0.2-0.5,0.5-0.9,0.8-1.4c0.4-0.1,0.8-0.2,1.2-0.2C127.4,70.3,127.4,70.4,127.3,70.6z M121.2,74.5
		c0.2-0.1,0.4-0.2,0.6-0.3c-0.3,0.7-0.6,1.5-0.8,2.3c-0.4,0.2-0.7,0.3-1.1,0.5c-0.4,0.2-0.8,0.4-1.1,0.6c0.1-0.3,0.2-0.6,0.3-0.9
		c0.1-0.3,0.2-0.6,0.4-0.9C119.9,75.3,120.5,74.9,121.2,74.5z M119.5,80.7c0.3,0,0.5-0.1,0.8-0.1c0,0.3,0,0.6,0,0.9
		c0,0.3,0,0.6,0,0.9c-0.3,0-0.5-0.1-0.8-0.1c-0.4-0.1-0.8-0.1-1.2-0.2c0-0.2,0-0.4,0-0.6c0-0.2,0-0.4,0-0.6
		C118.6,80.9,119,80.8,119.5,80.7z M119.4,82.7c0.3,0,0.6,0.1,0.8,0.1c0,0.5,0.1,0.9,0.1,1.4c-0.5-0.1-1-0.3-1.5-0.5
		c-0.2-0.1-0.4-0.2-0.6-0.3c0-0.3-0.1-0.6-0.1-0.9C118.6,82.6,119,82.6,119.4,82.7z M118.8,84c0.5,0.2,1.1,0.4,1.6,0.5
		c0.1,0.5,0.2,1,0.3,1.5c0,0.1,0,0.1,0,0.2c-0.3-0.1-0.5-0.2-0.8-0.4c-0.5-0.2-0.9-0.5-1.4-0.8c-0.1-0.4-0.2-0.8-0.2-1.2
		C118.5,83.9,118.7,84,118.8,84z M121,88.9c0.3,0.2,0.6,0.3,0.9,0.5c0.2,0.3,0.3,0.6,0.5,1c0.3,0.5,0.6,0.9,0.9,1.4
		c-0.8-0.4-1.6-0.9-2.3-1.4c-0.5-0.7-1-1.5-1.4-2.3C120.1,88.3,120.5,88.6,121,88.9z M122.7,90.2c-0.1-0.2-0.2-0.4-0.3-0.6
		c0.7,0.3,1.5,0.6,2.2,0.8c0.2,0.4,0.3,0.7,0.5,1.1c0.2,0.4,0.4,0.8,0.6,1.1c-0.3-0.1-0.6-0.2-0.8-0.3c-0.3-0.1-0.6-0.2-0.9-0.4
		C123.5,91.4,123.1,90.8,122.7,90.2z M127.1,91c0.5,0.1,0.9,0.1,1.4,0.1c0,0.3,0.1,0.6,0.1,0.8c0.1,0.4,0.1,0.8,0.2,1.2
		c-0.3,0-0.6-0.1-0.9-0.1c-0.1-0.2-0.2-0.4-0.3-0.6C127.4,91.9,127.3,91.4,127.1,91z M134.4,91.5c0.2-0.3,0.3-0.7,0.5-1.1
		c0.8-0.2,1.5-0.5,2.3-0.8c-0.1,0.2-0.2,0.4-0.3,0.6c-0.4,0.6-0.8,1.3-1.3,1.8c-0.3,0.1-0.6,0.2-0.9,0.4c-0.3,0.1-0.6,0.2-0.9,0.3
		C134,92.3,134.2,91.9,134.4,91.5z M138.4,88.6c-0.2,0.1-0.4,0.2-0.6,0.3c0.3-0.7,0.6-1.5,0.8-2.3c0.4-0.1,0.7-0.3,1.1-0.5
		c0.4-0.2,0.8-0.4,1.1-0.6c-0.1,0.3-0.2,0.6-0.3,0.9c-0.1,0.3-0.2,0.6-0.4,0.9C139.7,87.8,139.1,88.3,138.4,88.6z M139.6,85.9
		c-0.3,0.1-0.5,0.3-0.8,0.4c0-0.1,0-0.1,0-0.2c0.1-0.5,0.2-1,0.3-1.5c0.6-0.1,1.1-0.3,1.6-0.5c0.1-0.1,0.3-0.1,0.4-0.2
		c-0.1,0.4-0.1,0.8-0.2,1.2C140.5,85.4,140.1,85.7,139.6,85.9z M140.6,83.7c-0.5,0.2-1,0.3-1.5,0.5c0.1-0.5,0.1-0.9,0.1-1.4
		c0.3,0,0.6-0.1,0.8-0.1c0.4-0.1,0.8-0.1,1.2-0.2c0,0.3,0,0.6-0.1,0.9C141,83.6,140.8,83.6,140.6,83.7z M129,68.5
		c0.1-0.1,0.2-0.1,0.3-0.2c-0.1,0.1-0.1,0.2-0.1,0.3c-0.1,0.3-0.2,0.6-0.2,0.8c0,0.1,0,0.1,0,0.2c-0.3,0-0.6,0-0.8,0.1
		c0.1-0.2,0.2-0.5,0.4-0.7C128.6,68.9,128.8,68.6,129,68.5z M128.6,68.4c-0.2,0.2-0.3,0.3-0.4,0.5c-0.2,0.3-0.4,0.6-0.5,0.9
		c-0.4,0-0.7,0.1-1.1,0.2c0.4-0.5,0.8-0.9,1.4-1.3C128.2,68.6,128.4,68.5,128.6,68.4z M117.5,76.9c3.2-6.2-1-0.1,2.6-3.3
		c-0.4,0.7-0.8,1.3-1.1,2c-0.6,0.5-1.1,1-1.5,1.7c-0.2,0.3-0.4,0.5-0.5,0.8C117.2,77.6,117.3,77.2,117.5,76.9z M116.8,79.4
		c0.2-0.7,0.6-1.4,1-2c0.3-0.4,0.6-0.8,1-1.2c0,0.1-0.1,0.2-0.1,0.3c-0.1,0.4-0.3,0.8-0.4,1.2c-0.1,0.1-0.1,0.1-0.2,0.2
		C117.6,78.4,117.1,78.9,116.8,79.4C116.7,79.4,116.8,79.4,116.8,79.4z M125.1,93.8c-1.3-0.6-2.4-1.5-3.3-2.6c0.7,0.4,1.3,0.8,2,1.1
		c0.5,0.6,1,1.1,1.7,1.5c0.3,0.2,0.5,0.4,0.8,0.5C125.9,94.2,125.5,94,125.1,93.8z M128,94.4c-0.5-0.3-1-0.8-1.4-1.3
		c0.4,0.1,0.7,0.1,1.1,0.2c0.2,0.3,0.3,0.6,0.5,0.9c0.1,0.2,0.3,0.4,0.4,0.5C128.4,94.6,128.2,94.5,128,94.4z M129,94.7
		c-0.2-0.2-0.4-0.4-0.6-0.6c-0.2-0.2-0.3-0.4-0.4-0.7c0.3,0,0.6,0.1,0.8,0.1c0,0.1,0,0.1,0,0.2c0.1,0.3,0.1,0.6,0.2,0.9
		c0,0.1,0.1,0.2,0.1,0.3C129.2,94.8,129.1,94.7,129,94.7z M129.9,94.8c0,0.1-0.1,0.1-0.1,0.1c0,0,0,0,0,0c0,0,0,0,0,0c0,0,0,0,0,0
		c0,0,0,0,0,0c0,0-0.1-0.1-0.1-0.1c-0.1-0.1-0.1-0.2-0.2-0.4c-0.1-0.3-0.2-0.5-0.2-0.8c0,0,0-0.1,0-0.1c0.2,0,0.4,0,0.6,0
		c0.2,0,0.4,0,0.6,0c0,0,0,0.1,0,0.1c-0.1,0.3-0.1,0.6-0.2,0.8C130.1,94.5,130,94.6,129.9,94.8z M133.3,94.3
		c0.3-0.2,0.6-0.3,0.8-0.5c0.6-0.4,1.2-1,1.7-1.5c0.7-0.3,1.4-0.7,2-1.1c-0.9,1-2.1,1.9-3.3,2.6C134.1,94,133.7,94.2,133.3,94.3z
		 M139.3,91c-1.2,1.2-2.7,2.2-4.3,2.9c1.4-0.8,2.6-1.8,3.5-3c0.1-0.1,0.2-0.2,0.3-0.3c0.1-0.1,0.2-0.2,0.4-0.3c1.2-1,2.3-2.2,3-3.5
		C141.5,88.3,140.5,89.8,139.3,91z M143.2,81.6L143.2,81.6C143.2,81.6,143.2,81.6,143.2,81.6C143.2,81.6,143.2,81.6,143.2,81.6
		c-0.1,0.1-0.1,0.1-0.2,0.2c-0.1,0.1-0.2,0.1-0.4,0.2c-0.3,0.1-0.5,0.2-0.8,0.2c0,0-0.1,0-0.1,0c0-0.2,0-0.4,0-0.6
		c0-0.2,0-0.4,0-0.6c0,0,0.1,0,0.1,0c0.3,0.1,0.6,0.1,0.8,0.2c0.1,0,0.3,0.1,0.4,0.2C143,81.4,143.1,81.5,143.2,81.6
		C143.2,81.5,143.2,81.5,143.2,81.6C143.2,81.6,143.2,81.6,143.2,81.6L143.2,81.6z"/>
	<rect x="10.9" y="30.9" class="st1" width="155.5" height="22.2"/>
	<rect x="128.6" y="80.2" class="st2" width="2.6" height="2.6"/>
	<polygon class="st2" points="133.5,77.5 131.5,77.5 131.5,75.3 133.1,75.4 	"/>
	<polygon class="st2" points="141.4,82.1 139.3,82.4 139.3,80.6 141.3,81 	"/>
	<polygon class="st2" points="126,77.7 123.8,77.8 123.9,75.9 126,75.4 	"/>
	<polygon class="st27" points="141.3,80 143.3,80 143.3,82.7 141.6,82.8 	"/>
	<polygon class="st27" points="142.2,86.5 142,87.4 141.3,88.6 140.4,90.2 138.4,92.3 136.1,93.7 134.2,94.1 133,94.7 138.5,89.4 	
		"/>
	<polygon class="st27" points="119.2,73.3 117.7,75.6 116.7,78.4 116.4,79.8 118.8,77.9 120.9,73.1 	"/>
	<polygon class="st27" points="125.8,92.6 127.6,94.8 130.6,95 131,93.4 127.7,93 125.8,92.9 127,94.7 123.1,93.3 120.8,90.2 	"/>
	<polyline class="st27" points="129.4,68 128.2,68.4 126.4,70 129.5,70 	"/>
	<g>
		<g>
			<path class="st13" d="M184.7,165c0.3,0.2,0.4,0.5,0.4,1c0,0.4-0.1,0.8-0.4,1c-0.3,0.2-0.7,0.3-1.2,0.3h-0.6v1.1h-0.6v-3.6h1.2
				C184.1,164.7,184.5,164.8,184.7,165z M184.3,166.5c0.1-0.1,0.2-0.3,0.2-0.6s-0.1-0.4-0.2-0.5c-0.2-0.1-0.4-0.2-0.7-0.2h-0.6v1.4
				h0.7C183.9,166.7,184.2,166.7,184.3,166.5z"/>
			<path class="st13" d="M188,168c-0.3,0.3-0.6,0.4-1,0.4c-0.4,0-0.8-0.1-1-0.4c-0.3-0.3-0.4-0.6-0.4-1c0-0.4,0.1-0.7,0.4-1
				c0.3-0.3,0.6-0.4,1-0.4c0.4,0,0.8,0.1,1,0.4c0.3,0.3,0.4,0.6,0.4,1C188.4,167.4,188.3,167.7,188,168z M186.3,167.6
				c0.2,0.2,0.4,0.3,0.6,0.3c0.3,0,0.5-0.1,0.6-0.3c0.2-0.2,0.2-0.4,0.2-0.6c0-0.3-0.1-0.5-0.2-0.6c-0.2-0.2-0.4-0.3-0.6-0.3
				c-0.3,0-0.5,0.1-0.6,0.3c-0.2,0.2-0.2,0.4-0.2,0.6C186.1,167.2,186.2,167.4,186.3,167.6z"/>
			<path class="st13" d="M190.3,168.3h-0.7l-1-2.8h0.6l0.7,2.1l0.7-2.1h0.6l0.7,2.1l0.7-2.1l0.6,0l-1,2.8h-0.7l-0.7-1.9L190.3,168.3
				z"/>
			<path class="st13" d="M196.3,167.2h-2.2c0,0.2,0.1,0.4,0.3,0.5c0.2,0.1,0.4,0.2,0.6,0.2c0.3,0,0.6-0.1,0.8-0.3l0.3,0.4
				c-0.3,0.3-0.7,0.5-1.2,0.5c-0.4,0-0.7-0.1-1-0.4c-0.3-0.3-0.4-0.6-0.4-1c0-0.4,0.1-0.8,0.4-1c0.3-0.3,0.6-0.4,1-0.4
				c0.4,0,0.7,0.1,1,0.3c0.3,0.2,0.4,0.5,0.4,0.9V167.2z M194.2,166.8h1.6c0-0.2-0.1-0.4-0.2-0.5c-0.1-0.1-0.3-0.2-0.5-0.2
				c-0.2,0-0.4,0.1-0.6,0.2C194.3,166.4,194.2,166.5,194.2,166.8z"/>
			<path class="st13" d="M198.4,166.1c-0.3,0-0.5,0.1-0.6,0.3c-0.1,0.2-0.2,0.4-0.2,0.8v1.2H197v-2.8h0.6v0.6
				c0.1-0.2,0.2-0.3,0.4-0.4c0.2-0.1,0.3-0.2,0.5-0.2L198.4,166.1C198.4,166.1,198.4,166.1,198.4,166.1z"/>
			<path class="st13" d="M201.6,167.2h-2.2c0,0.2,0.1,0.4,0.3,0.5c0.2,0.1,0.4,0.2,0.6,0.2c0.3,0,0.6-0.1,0.8-0.3l0.3,0.4
				c-0.3,0.3-0.7,0.5-1.2,0.5c-0.4,0-0.7-0.1-1-0.4c-0.3-0.3-0.4-0.6-0.4-1c0-0.4,0.1-0.8,0.4-1c0.3-0.3,0.6-0.4,1-0.4
				c0.4,0,0.7,0.1,1,0.3c0.3,0.2,0.4,0.5,0.4,0.9V167.2z M199.4,166.8h1.6c0-0.2-0.1-0.4-0.2-0.5c-0.1-0.1-0.3-0.2-0.5-0.2
				c-0.2,0-0.4,0.1-0.6,0.2C199.5,166.4,199.4,166.5,199.4,166.8z"/>
			<path class="st13" d="M202.4,168c-0.3-0.3-0.4-0.6-0.4-1c0-0.4,0.1-0.8,0.4-1c0.3-0.3,0.6-0.4,1-0.4c0.4,0,0.7,0.2,0.9,0.5v-1.5
				h0.6v3.8h-0.6v-0.4c-0.2,0.3-0.5,0.5-0.9,0.5C203,168.4,202.7,168.3,202.4,168z M202.6,167c0,0.3,0.1,0.5,0.3,0.6
				c0.2,0.2,0.4,0.2,0.6,0.2c0.2,0,0.4-0.1,0.6-0.3c0.2-0.2,0.2-0.4,0.2-0.6c0-0.3-0.1-0.5-0.2-0.7c-0.2-0.2-0.4-0.3-0.6-0.3
				c-0.2,0-0.4,0.1-0.6,0.3C202.7,166.5,202.6,166.7,202.6,167z"/>
			<path class="st13" d="M208.6,165.5c0.4,0,0.7,0.1,0.9,0.4c0.3,0.3,0.4,0.6,0.4,1c0,0.4-0.1,0.8-0.4,1c-0.3,0.3-0.6,0.4-0.9,0.4
				c-0.3,0-0.7-0.2-0.9-0.5v0.4h-0.6v-3.8h0.6v1.6C207.9,165.7,208.2,165.5,208.6,165.5z M207.7,167c0,0.3,0.1,0.5,0.2,0.6
				c0.2,0.2,0.4,0.3,0.6,0.3c0.2,0,0.4-0.1,0.6-0.2s0.3-0.4,0.3-0.6c0-0.3-0.1-0.5-0.2-0.7c-0.2-0.2-0.4-0.3-0.6-0.3
				c-0.2,0-0.4,0.1-0.6,0.3C207.8,166.5,207.7,166.7,207.7,167z"/>
			<path class="st13" d="M210.9,169.4c-0.3,0-0.5-0.1-0.7-0.3l0.3-0.5c0.1,0.1,0.2,0.2,0.4,0.2c0.1,0,0.2,0,0.3-0.1
				c0.1-0.1,0.1-0.2,0.1-0.3c0,0-0.4-1-1.1-2.8h0.6l0.8,2l0.8-2h0.6l-1.3,3.3c-0.1,0.2-0.2,0.3-0.3,0.4
				C211.3,169.4,211.1,169.4,210.9,169.4z"/>
		</g>
		<g>
			<g>
				<path class="st28" d="M220.9,164.3l-0.2-0.2l1.9-1.9c0.1-0.1,0.3-0.2,0.5-0.1l2.2,1.3l-0.1,0.2l-2.1-1.4c-0.1,0-0.2,0-0.2,0
					L220.9,164.3z"/>
				<path class="st28" d="M226.8,168.9c0,0.2-0.1,0.3-0.3,0.3l-5.4,0.8c-0.2,0-0.3-0.1-0.3-0.2l-0.8-5.4c0-0.2,0.1-0.3,0.2-0.3
					l5.4-0.8c0.2,0,0.3,0.1,0.3,0.2L226.8,168.9z"/>
				<path class="st8" d="M224.8,164.7c1.1,0.8,1.3,2.3,0.5,3.3c-0.8,1.1-2.3,1.3-3.4,0.5c-1.1-0.8-1.3-2.3-0.5-3.4
					C222.3,164.2,223.8,163.9,224.8,164.7"/>
				<g>
					<path class="st29" d="M223.6,166.7c0,0.1-0.1,0.2-0.2,0.2c-0.1,0-0.2-0.1-0.2-0.2c0-0.1,0.1-0.2,0.2-0.2
						C223.5,166.5,223.6,166.6,223.6,166.7 M223.9,166.6L223.9,166.6l-0.2-1.8l0,0c0-0.1-0.1-0.1-0.1-0.1c-0.1,0-0.1,0-0.2,0.1
						l-0.5,1.7l0,0c0,0,0,0.1,0,0.1c0,0.3,0.2,0.5,0.4,0.5c0.3,0,0.5-0.2,0.5-0.4C223.9,166.7,223.9,166.6,223.9,166.6"/>
					<path class="st29" d="M223.3,167.1L223.3,167.1l1,0.2c0.1,0,0.1,0,0.2-0.1c0-0.1,0-0.1,0-0.2l0,0l-0.7-0.7l0,0
						c0,0-0.1-0.1-0.1-0.1c-0.2-0.1-0.5-0.1-0.6,0.2c-0.1,0.2,0,0.5,0.2,0.6C223.2,167.1,223.2,167.1,223.3,167.1"/>
					<path class="st28" d="M222.9,162.3c0.1,0,0.3,0.1,0.3,0.2c0,0.1-0.1,0.3-0.2,0.3c-0.1,0-0.3-0.1-0.3-0.2
						C222.7,162.5,222.8,162.3,222.9,162.3"/>
				</g>
				<path class="st8" d="M223.6,166.7c0,0.1-0.1,0.2-0.2,0.2c-0.1,0-0.2-0.1-0.2-0.2c0-0.1,0.1-0.2,0.2-0.2
					C223.5,166.4,223.6,166.5,223.6,166.7"/>
			</g>
			<g>
				<polygon class="st28" points="227.6,168.9 227.6,164.4 228.7,164.4 230.9,167.2 230.9,167.2 230.9,164.4 232,164.4 232,168.9 
					230.9,168.9 228.7,166.2 228.7,166.2 228.7,168.9 				"/>
				<polygon class="st28" points="235.2,165.4 233.9,165.4 233.9,166.2 235.2,166.2 235.2,167.2 233.9,167.2 233.9,167.9 
					235.2,167.9 235.2,168.9 232.7,168.9 232.7,164.4 235.2,164.4 				"/>
				<path class="st28" d="M237.7,168.9h-1.8v-4.5h1.7c0.9,0,1.3,0.4,1.3,1.2c0,0.4-0.2,0.7-0.5,0.9v0c0.6,0.1,0.9,0.5,0.9,1.1
					c0,0.2,0,0.4-0.1,0.6c-0.1,0.2-0.2,0.3-0.4,0.4c-0.2,0.1-0.3,0.2-0.5,0.2C238.1,168.9,237.9,168.9,237.7,168.9 M237,165.3v0.9
					h0.1c0.2,0,0.3,0,0.5-0.1c0.1-0.1,0.2-0.2,0.2-0.3c0-0.1,0-0.2-0.1-0.2c0-0.1-0.1-0.1-0.2-0.1c-0.1,0-0.1,0-0.2-0.1
					C237.3,165.3,237.2,165.3,237,165.3L237,165.3L237,165.3z M237,167.1v1h0.2h0.2c0,0,0.1,0,0.2,0c0.1,0,0.2,0,0.2,0
					c0,0,0.1,0,0.2-0.1c0.1,0,0.1-0.1,0.1-0.1c0-0.1,0-0.1,0-0.2c0-0.1,0-0.1,0-0.2c0,0,0-0.1-0.1-0.1c0,0-0.1-0.1-0.1-0.1
					c0,0-0.1,0-0.1-0.1c-0.1,0-0.1,0-0.1,0c0,0-0.1,0-0.1,0c-0.1,0-0.1,0-0.1,0h-0.1h-0.1L237,167.1L237,167.1z"/>
				<path class="st28" d="M242.4,164.4h1.2v2.5c0,0.4,0,0.7-0.1,0.9c-0.1,0.2-0.2,0.5-0.4,0.7c-0.3,0.3-0.8,0.5-1.5,0.5
					c-0.7,0-1.1-0.2-1.5-0.5c-0.2-0.2-0.3-0.4-0.4-0.7c-0.1-0.2-0.1-0.5-0.1-0.9v-2.5h1.2v2.4c0,0.1,0,0.3,0,0.3
					c0,0.1,0,0.2,0.1,0.3c0,0.1,0.1,0.2,0.1,0.3c0.1,0.1,0.1,0.1,0.2,0.2c0.1,0.1,0.2,0.1,0.4,0.1c0.1,0,0.3,0,0.4-0.1
					c0.1-0.1,0.2-0.1,0.2-0.2c0.1-0.1,0.1-0.2,0.1-0.3c0-0.1,0-0.2,0.1-0.3c0-0.1,0-0.2,0-0.3V164.4z"/>
				<path class="st28" d="M247.1,164.7l-0.5,0.9c-0.2-0.2-0.5-0.3-0.8-0.3c-0.1,0-0.2,0-0.3,0.1c-0.1,0.1-0.2,0.2-0.2,0.3
					c0,0.1,0,0.2,0.1,0.2c0.1,0.1,0.1,0.1,0.2,0.1c0.1,0,0.1,0.1,0.2,0.1l0.3,0.1c0.3,0.1,0.6,0.2,0.8,0.4c0.2,0.2,0.3,0.5,0.3,0.8
					c0,0.5-0.1,0.9-0.5,1.2c-0.3,0.3-0.8,0.4-1.3,0.4c-0.6,0-1.1-0.2-1.6-0.5l0.5-0.9c0.4,0.3,0.7,0.5,1,0.5c0.2,0,0.3,0,0.4-0.1
					c0.1-0.1,0.2-0.2,0.2-0.3c0-0.2-0.2-0.4-0.6-0.5c0,0-0.1,0-0.1,0c-0.2-0.1-0.4-0.1-0.5-0.2c-0.1-0.1-0.2-0.1-0.4-0.2
					c-0.1-0.1-0.2-0.2-0.3-0.4c-0.1-0.1-0.1-0.3-0.1-0.5c0-0.5,0.1-0.8,0.4-1.1c0.3-0.3,0.7-0.4,1.1-0.4c0.2,0,0.5,0,0.7,0.1
					C246.6,164.5,246.9,164.6,247.1,164.7"/>
				<polygon class="st28" points="248.8,166.8 247.2,164.4 248.6,164.4 249.4,165.7 250.3,164.4 251.6,164.4 250,166.8 250,168.9 
					248.8,168.9 				"/>
				<path class="st28" d="M218.7,166.4h-1.2v0.9h0.9c0,0.2-0.2,0.4-0.3,0.6c-0.2,0.1-0.5,0.2-0.7,0.2c-0.4,0-0.7-0.1-0.9-0.4
					c-0.2-0.3-0.3-0.6-0.3-1c0-0.4,0.1-0.7,0.3-1c0.2-0.3,0.6-0.4,0.9-0.4c0.2,0,0.5,0.1,0.7,0.2c0.2,0.1,0.3,0.3,0.4,0.5l1-0.4
					c-0.2-0.4-0.4-0.7-0.8-0.9c-0.3-0.2-0.8-0.4-1.2-0.4c-0.7,0-1.3,0.2-1.8,0.7c-0.4,0.4-0.7,1-0.7,1.7c0,0.7,0.2,1.3,0.7,1.7
					c0.4,0.4,1,0.6,1.7,0.6c0.6,0,1-0.2,1.4-0.5v0.5h0.8v-2.6H218.7z"/>
			</g>
		</g>
	</g>
</g>
</svg>
