<svg id="Layer_1" data-name="Layer 1" xmlns="http://www.w3.org/2000/svg" width="130.43" height="28" viewBox="0 0 130.43 28"><defs><style>.cls-1{fill:#30b77b;}.cls-2{fill:none;}.cls-3{fill:#fff;}.cls-4{fill:#982069;}</style></defs><title>gone-busy-logo</title><polygon class="cls-1" points="44.81 24.06 44.81 8.2 48.92 8.2 56.48 17.92 56.54 17.92 56.54 8.2 60.65 8.2 60.65 24.06 56.54 24.06 48.98 14.34 48.92 14.34 48.92 24.06 44.81 24.06"/><polygon class="cls-1" points="72.11 11.7 67.19 11.7 67.19 14.34 71.84 14.34 71.84 17.84 67.19 17.84 67.19 20.59 72.11 20.59 72.11 24.06 63.08 24.06 63.08 8.2 72.11 8.2 72.11 11.7"/><path class="cls-1" d="M80.73,24.06H74.38V8.2h5.9c3.15,0,4.7,1.36,4.7,4.11a3.3,3.3,0,0,1-1.74,3.23V15.6c2.16,0.29,3.23,1.63,3.23,4A4.29,4.29,0,0,1,86,21.71a3.85,3.85,0,0,1-1.31,1.39,6.79,6.79,0,0,1-1.82.72,9,9,0,0,1-2.14.24M78.49,11.38v3.07h0.45a3.61,3.61,0,0,0,1.63-.32,1.26,1.26,0,0,0,.61-1.23A1.62,1.62,0,0,0,81,12a1,1,0,0,0-.59-0.45,4.37,4.37,0,0,0-.75-0.19,6.9,6.9,0,0,0-.85-0.05H78.49v0Zm0,6.14v3.42h1.23l0.69-.05a2.09,2.09,0,0,0,.75-0.16,5.89,5.89,0,0,0,.56-0.29A0.89,0.89,0,0,0,82.17,20a2,2,0,0,0,.13-0.72,3.33,3.33,0,0,0-.05-0.56A1.07,1.07,0,0,0,82,18.24a3,3,0,0,0-.29-0.29,0.93,0.93,0,0,0-.4-0.21,2.75,2.75,0,0,1-.43-0.13,4.92,4.92,0,0,0-1-.11H78.49v0Z"/><path class="cls-1" d="M97.66,8.2h4.11v8.92a16,16,0,0,1-.29,3.26,4.92,4.92,0,0,1-1.36,2.35,7.2,7.2,0,0,1-5.26,1.76,7.2,7.2,0,0,1-5.26-1.76,4.92,4.92,0,0,1-1.36-2.35,14.13,14.13,0,0,1-.29-3.26V8.2h4.11v8.36c0,0.51,0,.93,0,1.26A6.8,6.8,0,0,0,92.27,19a2.55,2.55,0,0,0,.45,1,2.35,2.35,0,0,0,.83.64,3.34,3.34,0,0,0,2.62,0A2.35,2.35,0,0,0,97,20a2.76,2.76,0,0,0,.45-1,6.8,6.8,0,0,0,.19-1.15c0-.35,0-0.75,0-1.26V8.2Z"/><path class="cls-1" d="M114.11,9.08l-1.63,3.2a4.25,4.25,0,0,0-2.72-1,2.17,2.17,0,0,0-1.2.35,1.1,1.1,0,0,0-.56,1,1,1,0,0,0,.35.75,2.61,2.61,0,0,0,.64.45c0.21,0.08.48,0.19,0.83,0.29l1,0.32a7,7,0,0,1,2.88,1.55,3.69,3.69,0,0,1,1,2.78A5.29,5.29,0,0,1,113.15,23a6.76,6.76,0,0,1-4.51,1.5,9.6,9.6,0,0,1-5.58-1.82l1.76-3.31A5.6,5.6,0,0,0,108.48,21a2.42,2.42,0,0,0,1.39-.4,1.34,1.34,0,0,0,.59-1.2c0-.72-0.67-1.28-2-1.66-0.05,0-.21-0.05-0.51-0.16a15.62,15.62,0,0,1-1.79-.59,5.61,5.61,0,0,1-1.31-.77,2.74,2.74,0,0,1-.93-1.26,5.43,5.43,0,0,1-.27-1.87,5.15,5.15,0,0,1,1.52-3.87,5.49,5.49,0,0,1,3.93-1.47,10,10,0,0,1,2.56.35,15.53,15.53,0,0,1,2.46,1"/><polygon class="cls-1" points="120.44 16.45 114.59 8.2 119.53 8.2 122.53 12.53 125.49 8.2 130.43 8.2 124.58 16.45 124.58 24.06 120.44 24.06 120.44 16.45"/><path class="cls-1" d="M13.33,15.22H8.95v3.23h3.23a2.83,2.83,0,0,1-1.18,2,4.4,4.4,0,0,1-2.56.72A3.81,3.81,0,0,1,5.29,20a5.21,5.21,0,0,1-1.2-3.61,5.42,5.42,0,0,1,1.09-3.55,4,4,0,0,1,3.34-1.55,4.2,4.2,0,0,1,2.38.67,4.13,4.13,0,0,1,1.34,1.84l3.66-1.58A7.69,7.69,0,0,0,13.14,9,8.09,8.09,0,0,0,8.73,7.67,8.65,8.65,0,0,0,2.38,10,8.37,8.37,0,0,0,0,16.21a8,8,0,0,0,8.39,8.36,7,7,0,0,0,4.94-1.82v1.68h2.88V15.22H13.33Z"/><path class="cls-2" d="M34.48,4.54L29.11,1.13a0.84,0.84,0,0,1,.07.15,0.81,0.81,0,0,1,0,.17,0.9,0.9,0,0,1-1.79.24,0.79,0.79,0,0,1,0-.15s0,0,0-.06V1.4a0.84,0.84,0,0,1,.05-0.18h0L22.4,6.29Z"/><path class="cls-1" d="M42.06,24.17L39.15,4.89A1,1,0,0,0,38,4l-2.3.33L29,0.22A1.45,1.45,0,0,0,27.27.4l-6.2,6.08-2.26.33A1,1,0,0,0,17.95,8l2.78,19.17a1,1,0,0,0,1.15.85l19.2-2.78A1,1,0,0,0,42.06,24.17ZM27.48,1.23a0.84,0.84,0,0,0-.05.18V1.47s0,0,0,.06a0.79,0.79,0,0,0,0,.15,0.9,0.9,0,0,0,1.79-.24,0.81,0.81,0,0,0,0-.17,0.84,0.84,0,0,0-.07-0.15l5.37,3.42L22.4,6.29l5.09-5.07h0ZM36.77,21.1A8.51,8.51,0,1,1,35,9.19,8.55,8.55,0,0,1,36.77,21.1Z"/><path class="cls-3" d="M35,9.19A8.52,8.52,0,1,0,36.77,21.1,8.52,8.52,0,0,0,35,9.19Zm-1.36,9a0.5,0.5,0,0,1-.64.19l-3.53-.69-0.22-.09h0l-0.17-.07a1.77,1.77,0,0,1-.37-0.28h0l-0.09-.09,0,0-0.05-.07L28.52,17l0-.05,0-.09,0-.05,0-.09,0-.06,0-.09,0-.07,0-.08V16.23s0-.05,0-0.08,0-.06,0-0.09,0,0,0,0,0-.06,0-0.09v0a1.67,1.67,0,0,1,.11-0.44l1.7-6.05a0.5,0.5,0,0,1,1,.11l0.5,5.89,2,2.17A0.48,0.48,0,0,1,33.68,18.21Z"/><path class="cls-4" d="M33.52,17.57l-2-2.17-0.5-5.89a0.5,0.5,0,0,0-1-.11l-1.7,6.05a1.67,1.67,0,0,0-.11.44v0s0,0.06,0,.09,0,0,0,0,0,0.06,0,.09,0,0.05,0,.08v0.16l0,0.08,0,0.07,0,0.09,0,0.06,0,0.09,0,0.05,0,0.09,0,0.05,0.05,0.07,0.05,0.07,0,0,0.09,0.09h0a1.77,1.77,0,0,0,.37.28l0.17,0.07h0l0.22,0.09L33,18.4a0.5,0.5,0,0,0,.64-0.19A0.48,0.48,0,0,0,33.52,17.57Zm-4.46-1.5a0.89,0.89,0,0,1,.88-0.88,0.86,0.86,0,0,1,.88.88A0.88,0.88,0,0,1,29.06,16.08Z"/><path class="cls-3" d="M29.94,17a0.89,0.89,0,0,0,.88-0.88,0.86,0.86,0,0,0-.88-0.88A0.88,0.88,0,1,0,29.94,17Z"/><polygon class="cls-1" points="44.81 24.06 44.81 8.2 48.92 8.2 56.48 17.92 56.54 17.92 56.54 8.2 60.65 8.2 60.65 24.06 56.54 24.06 48.98 14.34 48.92 14.34 48.92 24.06 44.81 24.06"/><polygon class="cls-1" points="72.11 11.7 67.19 11.7 67.19 14.34 71.84 14.34 71.84 17.84 67.19 17.84 67.19 20.59 72.11 20.59 72.11 24.06 63.08 24.06 63.08 8.2 72.11 8.2 72.11 11.7"/><path class="cls-1" d="M80.73,24.06H74.38V8.2h5.9c3.15,0,4.7,1.36,4.7,4.11a3.3,3.3,0,0,1-1.74,3.23V15.6c2.16,0.29,3.23,1.63,3.23,4A4.29,4.29,0,0,1,86,21.71a3.85,3.85,0,0,1-1.31,1.39,6.79,6.79,0,0,1-1.82.72,9,9,0,0,1-2.14.24M78.49,11.38v3.07h0.45a3.61,3.61,0,0,0,1.63-.32,1.26,1.26,0,0,0,.61-1.23A1.62,1.62,0,0,0,81,12a1,1,0,0,0-.59-0.45,4.37,4.37,0,0,0-.75-0.19,6.9,6.9,0,0,0-.85-0.05H78.49v0Zm0,6.14v3.42h1.23l0.69-.05a2.09,2.09,0,0,0,.75-0.16,5.89,5.89,0,0,0,.56-0.29A0.89,0.89,0,0,0,82.17,20a2,2,0,0,0,.13-0.72,3.33,3.33,0,0,0-.05-0.56A1.07,1.07,0,0,0,82,18.24a3,3,0,0,0-.29-0.29,0.93,0.93,0,0,0-.4-0.21,2.75,2.75,0,0,1-.43-0.13,4.92,4.92,0,0,0-1-.11H78.49v0Z"/><path class="cls-1" d="M97.66,8.2h4.11v8.92a16,16,0,0,1-.29,3.26,4.92,4.92,0,0,1-1.36,2.35,7.2,7.2,0,0,1-5.26,1.76,7.2,7.2,0,0,1-5.26-1.76,4.92,4.92,0,0,1-1.36-2.35,14.13,14.13,0,0,1-.29-3.26V8.2h4.11v8.36c0,0.51,0,.93,0,1.26A6.8,6.8,0,0,0,92.27,19a2.55,2.55,0,0,0,.45,1,2.35,2.35,0,0,0,.83.64,3.34,3.34,0,0,0,2.62,0A2.35,2.35,0,0,0,97,20a2.76,2.76,0,0,0,.45-1,6.8,6.8,0,0,0,.19-1.15c0-.35,0-0.75,0-1.26V8.2Z"/><path class="cls-1" d="M114.11,9.08l-1.63,3.2a4.25,4.25,0,0,0-2.72-1,2.17,2.17,0,0,0-1.2.35,1.1,1.1,0,0,0-.56,1,1,1,0,0,0,.35.75,2.61,2.61,0,0,0,.64.45c0.21,0.08.48,0.19,0.83,0.29l1,0.32a7,7,0,0,1,2.88,1.55,3.69,3.69,0,0,1,1,2.78A5.29,5.29,0,0,1,113.15,23a6.76,6.76,0,0,1-4.51,1.5,9.6,9.6,0,0,1-5.58-1.82l1.76-3.31A5.6,5.6,0,0,0,108.48,21a2.42,2.42,0,0,0,1.39-.4,1.34,1.34,0,0,0,.59-1.2c0-.72-0.67-1.28-2-1.66-0.05,0-.21-0.05-0.51-0.16a15.62,15.62,0,0,1-1.79-.59,5.61,5.61,0,0,1-1.31-.77,2.74,2.74,0,0,1-.93-1.26,5.43,5.43,0,0,1-.27-1.87,5.15,5.15,0,0,1,1.52-3.87,5.49,5.49,0,0,1,3.93-1.47,10,10,0,0,1,2.56.35,15.53,15.53,0,0,1,2.46,1"/><polygon class="cls-1" points="120.44 16.45 114.59 8.2 119.53 8.2 122.53 12.53 125.49 8.2 130.43 8.2 124.58 16.45 124.58 24.06 120.44 24.06 120.44 16.45"/><path class="cls-1" d="M13.33,15.22H8.95v3.23h3.23a2.83,2.83,0,0,1-1.18,2,4.4,4.4,0,0,1-2.56.72A3.81,3.81,0,0,1,5.29,20a5.21,5.21,0,0,1-1.2-3.61,5.42,5.42,0,0,1,1.09-3.55,4,4,0,0,1,3.34-1.55,4.2,4.2,0,0,1,2.38.67,4.13,4.13,0,0,1,1.34,1.84l3.66-1.58A7.69,7.69,0,0,0,13.14,9,8.09,8.09,0,0,0,8.73,7.67,8.65,8.65,0,0,0,2.38,10,8.37,8.37,0,0,0,0,16.21a8,8,0,0,0,8.39,8.36,7,7,0,0,0,4.94-1.82v1.68h2.88V15.22H13.33Z"/></svg>