<svg id="Layer_1" data-name="Layer 1" xmlns="http://www.w3.org/2000/svg" width="150" height="32.2" viewBox="0 0 150 32.2"><defs><style>.cls-1{fill:#30b77b;}.cls-2{fill:none;}.cls-3{fill:#fff;}.cls-4{fill:#e42355;}</style></defs><title>gone-busy-logo</title><polygon class="cls-1" points="51.54 27.67 51.54 9.43 56.27 9.43 64.96 20.61 65.02 20.61 65.02 9.43 69.75 9.43 69.75 27.67 65.02 27.67 56.33 16.5 56.27 16.5 56.27 27.67 51.54 27.67"/><polygon class="cls-1" points="82.92 13.45 77.27 13.45 77.27 16.5 82.62 16.5 82.62 20.52 77.27 20.52 77.27 23.68 82.92 23.68 82.92 27.67 72.54 27.67 72.54 9.43 82.92 9.43 82.92 13.45"/><path class="cls-1" d="M92.84,27.67H85.53V9.43h6.79c3.62,0,5.41,1.57,5.41,4.73a3.79,3.79,0,0,1-2,3.72v0.06c2.49,0.34,3.72,1.87,3.72,4.64a4.93,4.93,0,0,1-.55,2.4,4.43,4.43,0,0,1-1.5,1.6,7.81,7.81,0,0,1-2.09.83,10.38,10.38,0,0,1-2.46.28M90.26,13.09v3.53h0.52a4.15,4.15,0,0,0,1.87-.37,1.45,1.45,0,0,0,.71-1.41,1.87,1.87,0,0,0-.21-1,1.17,1.17,0,0,0-.68-0.52,5,5,0,0,0-.86-0.21,7.94,7.94,0,0,0-1-.06H90.26v0Zm0,7.06v3.93h1.41l0.8-.06a2.4,2.4,0,0,0,.86-0.18A6.78,6.78,0,0,0,94,23.5a1,1,0,0,0,.52-0.55,2.34,2.34,0,0,0,.15-0.83,3.83,3.83,0,0,0-.06-0.64A1.23,1.23,0,0,0,94.35,21,3.5,3.5,0,0,0,94,20.64a1.07,1.07,0,0,0-.46-0.25,3.17,3.17,0,0,1-.49-0.15,5.66,5.66,0,0,0-1.14-.12H90.26v0Z"/><path class="cls-1" d="M112.32,9.43H117V19.69a18.37,18.37,0,0,1-.34,3.75,5.66,5.66,0,0,1-1.57,2.7c-1.38,1.35-3.38,2-6.05,2s-4.67-.68-6.05-2a5.66,5.66,0,0,1-1.57-2.7,16.25,16.25,0,0,1-.34-3.75V9.43h4.73V19c0,0.58,0,1.07,0,1.44a7.82,7.82,0,0,0,.21,1.32,2.93,2.93,0,0,0,.52,1.17,2.7,2.7,0,0,0,1,.74,3.84,3.84,0,0,0,3,0,2.7,2.7,0,0,0,1-.74,3.18,3.18,0,0,0,.52-1.17,7.83,7.83,0,0,0,.21-1.32c0-.4,0-0.86,0-1.44V9.43Z"/><path class="cls-1" d="M131.23,10.44l-1.87,3.69a4.89,4.89,0,0,0-3.13-1.2,2.49,2.49,0,0,0-1.38.4,1.26,1.26,0,0,0-.64,1.11,1.09,1.09,0,0,0,.4.86,3,3,0,0,0,.74.52c0.25,0.09.55,0.21,1,.34l1.2,0.37a8.1,8.1,0,0,1,3.32,1.78A4.24,4.24,0,0,1,132,21.5a6.09,6.09,0,0,1-1.87,4.91,7.78,7.78,0,0,1-5.19,1.72A11,11,0,0,1,118.52,26l2-3.81a6.44,6.44,0,0,0,4.21,1.87,2.79,2.79,0,0,0,1.6-.46,1.54,1.54,0,0,0,.68-1.38c0-.83-0.77-1.47-2.3-1.9-0.06,0-.25-0.06-0.58-0.18a18,18,0,0,1-2.06-.68,6.45,6.45,0,0,1-1.5-.89,3.15,3.15,0,0,1-1.07-1.44A6.24,6.24,0,0,1,119.2,15a5.92,5.92,0,0,1,1.75-4.45,6.32,6.32,0,0,1,4.51-1.69,11.49,11.49,0,0,1,2.95.4,17.86,17.86,0,0,1,2.83,1.17"/><polygon class="cls-1" points="138.51 18.92 131.79 9.43 137.47 9.43 140.91 14.41 144.32 9.43 150 9.43 143.27 18.92 143.27 27.67 138.51 27.67 138.51 18.92"/><path class="cls-1" d="M15.33,17.51h-5v3.72H14a3.26,3.26,0,0,1-1.35,2.33,5.05,5.05,0,0,1-2.95.83,4.38,4.38,0,0,1-3.62-1.44A6,6,0,0,1,4.7,18.8,6.24,6.24,0,0,1,6,14.71,4.65,4.65,0,0,1,9.8,12.93a4.83,4.83,0,0,1,2.73.77,4.75,4.75,0,0,1,1.54,2.12L18.27,14a8.84,8.84,0,0,0-3.16-3.69A9.31,9.31,0,0,0,10,8.82a10,10,0,0,0-7.31,2.7A9.63,9.63,0,0,0,0,18.64a9.21,9.21,0,0,0,9.64,9.61,8,8,0,0,0,5.68-2.09V28.1h3.32V17.51H15.33Z"/><path class="cls-2" d="M39.65,5.23L33.48,1.3a1,1,0,0,1,.08.17,0.93,0.93,0,0,1,0,.19,1,1,0,0,1-2.06.28,0.91,0.91,0,0,1,0-.17s0,0,0-.07V1.61a1,1,0,0,1,.06-0.2h0L25.76,7.24Z"/><path class="cls-1" d="M48.37,27.8L45,5.62a1.15,1.15,0,0,0-1.32-1L41.06,5,33.38,0.25a1.67,1.67,0,0,0-2,.21l-7.13,7-2.6.38a1.15,1.15,0,0,0-1,1.32l3.19,22.05a1.15,1.15,0,0,0,1.32,1L47.24,29A1.16,1.16,0,0,0,48.37,27.8ZM31.61,1.41a1,1,0,0,0-.06.2V1.69s0,0,0,.07a0.91,0.91,0,0,0,0,.17,1,1,0,0,0,2.06-.28,0.93,0.93,0,0,0,0-.19,1,1,0,0,0-.08-0.17l6.17,3.93-13.9,2,5.85-5.83h0ZM42.29,24.26a9.79,9.79,0,1,1-2-13.7A9.84,9.84,0,0,1,42.29,24.26Z"/><path class="cls-3" d="M40.29,10.57a9.8,9.8,0,1,0,2,13.7A9.8,9.8,0,0,0,40.29,10.57ZM38.73,20.95a0.58,0.58,0,0,1-.74.21l-4.05-.8-0.25-.1h0l-0.19-.08a2,2,0,0,1-.42-0.33h0L33,19.75l0-.05-0.06-.08-0.06-.08,0-.06-0.06-.1,0-.06,0-.11,0-.07,0-.1,0-.08,0-.09,0-.1V18.67s0-.06,0-0.09,0-.07,0-0.11,0,0,0-.06,0-.07,0-0.1v0a1.92,1.92,0,0,1,.13-0.5l2-7a0.57,0.57,0,0,1,1.14.12l0.58,6.78,2.25,2.5A0.55,0.55,0,0,1,38.73,20.95Z"/><path class="cls-4" d="M38.54,20.21l-2.25-2.5-0.58-6.78a0.57,0.57,0,0,0-1.14-.12l-2,7a1.92,1.92,0,0,0-.13.5v0s0,0.07,0,.1,0,0,0,.06,0,0.07,0,.11,0,0.06,0,.09v0.09l0,0.1,0,0.09,0,0.08,0,0.1,0,0.07,0,0.11,0,0.06,0.06,0.1,0,0.06,0.06,0.08,0.06,0.08,0,0.05,0.1,0.11h0a2,2,0,0,0,.42.33l0.19,0.08h0l0.25,0.1L38,21.16a0.58,0.58,0,0,0,.74-0.21A0.55,0.55,0,0,0,38.54,20.21Zm-5.13-1.72a1,1,0,0,1,1-1,1,1,0,0,1,1,1A1,1,0,1,1,33.42,18.49Z"/><path class="cls-3" d="M34.43,19.5a1,1,0,0,0,1-1,1,1,0,0,0-1-1A1,1,0,0,0,34.43,19.5Z"/><polygon class="cls-1" points="51.54 27.67 51.54 9.43 56.27 9.43 64.96 20.61 65.02 20.61 65.02 9.43 69.75 9.43 69.75 27.67 65.02 27.67 56.33 16.5 56.27 16.5 56.27 27.67 51.54 27.67"/><polygon class="cls-1" points="82.92 13.45 77.27 13.45 77.27 16.5 82.62 16.5 82.62 20.52 77.27 20.52 77.27 23.68 82.92 23.68 82.92 27.67 72.54 27.67 72.54 9.43 82.92 9.43 82.92 13.45"/><path class="cls-1" d="M92.84,27.67H85.53V9.43h6.79c3.62,0,5.41,1.57,5.41,4.73a3.79,3.79,0,0,1-2,3.72v0.06c2.49,0.34,3.72,1.87,3.72,4.64a4.93,4.93,0,0,1-.55,2.4,4.43,4.43,0,0,1-1.5,1.6,7.81,7.81,0,0,1-2.09.83,10.38,10.38,0,0,1-2.46.28M90.26,13.09v3.53h0.52a4.15,4.15,0,0,0,1.87-.37,1.45,1.45,0,0,0,.71-1.41,1.87,1.87,0,0,0-.21-1,1.17,1.17,0,0,0-.68-0.52,5,5,0,0,0-.86-0.21,7.94,7.94,0,0,0-1-.06H90.26v0Zm0,7.06v3.93h1.41l0.8-.06a2.4,2.4,0,0,0,.86-0.18A6.78,6.78,0,0,0,94,23.5a1,1,0,0,0,.52-0.55,2.34,2.34,0,0,0,.15-0.83,3.83,3.83,0,0,0-.06-0.64A1.23,1.23,0,0,0,94.35,21,3.5,3.5,0,0,0,94,20.64a1.07,1.07,0,0,0-.46-0.25,3.17,3.17,0,0,1-.49-0.15,5.66,5.66,0,0,0-1.14-.12H90.26v0Z"/><path class="cls-1" d="M112.32,9.43H117V19.69a18.37,18.37,0,0,1-.34,3.75,5.66,5.66,0,0,1-1.57,2.7c-1.38,1.35-3.38,2-6.05,2s-4.67-.68-6.05-2a5.66,5.66,0,0,1-1.57-2.7,16.25,16.25,0,0,1-.34-3.75V9.43h4.73V19c0,0.58,0,1.07,0,1.44a7.82,7.82,0,0,0,.21,1.32,2.93,2.93,0,0,0,.52,1.17,2.7,2.7,0,0,0,1,.74,3.84,3.84,0,0,0,3,0,2.7,2.7,0,0,0,1-.74,3.18,3.18,0,0,0,.52-1.17,7.83,7.83,0,0,0,.21-1.32c0-.4,0-0.86,0-1.44V9.43Z"/><path class="cls-1" d="M131.23,10.44l-1.87,3.69a4.89,4.89,0,0,0-3.13-1.2,2.49,2.49,0,0,0-1.38.4,1.26,1.26,0,0,0-.64,1.11,1.09,1.09,0,0,0,.4.86,3,3,0,0,0,.74.52c0.25,0.09.55,0.21,1,.34l1.2,0.37a8.1,8.1,0,0,1,3.32,1.78A4.24,4.24,0,0,1,132,21.5a6.09,6.09,0,0,1-1.87,4.91,7.78,7.78,0,0,1-5.19,1.72A11,11,0,0,1,118.52,26l2-3.81a6.44,6.44,0,0,0,4.21,1.87,2.79,2.79,0,0,0,1.6-.46,1.54,1.54,0,0,0,.68-1.38c0-.83-0.77-1.47-2.3-1.9-0.06,0-.25-0.06-0.58-0.18a18,18,0,0,1-2.06-.68,6.45,6.45,0,0,1-1.5-.89,3.15,3.15,0,0,1-1.07-1.44A6.24,6.24,0,0,1,119.2,15a5.92,5.92,0,0,1,1.75-4.45,6.32,6.32,0,0,1,4.51-1.69,11.49,11.49,0,0,1,2.95.4,17.86,17.86,0,0,1,2.83,1.17"/><polygon class="cls-1" points="138.51 18.92 131.79 9.43 137.47 9.43 140.91 14.41 144.32 9.43 150 9.43 143.27 18.92 143.27 27.67 138.51 27.67 138.51 18.92"/><path class="cls-1" d="M15.33,17.51h-5v3.72H14a3.26,3.26,0,0,1-1.35,2.33,5.05,5.05,0,0,1-2.95.83,4.38,4.38,0,0,1-3.62-1.44A6,6,0,0,1,4.7,18.8,6.24,6.24,0,0,1,6,14.71,4.65,4.65,0,0,1,9.8,12.93a4.83,4.83,0,0,1,2.73.77,4.75,4.75,0,0,1,1.54,2.12L18.27,14a8.84,8.84,0,0,0-3.16-3.69A9.31,9.31,0,0,0,10,8.82a10,10,0,0,0-7.31,2.7A9.63,9.63,0,0,0,0,18.64a9.21,9.21,0,0,0,9.64,9.61,8,8,0,0,0,5.68-2.09V28.1h3.32V17.51H15.33Z"/></svg>