<svg id="Layer_1" data-name="Layer 1" xmlns="http://www.w3.org/2000/svg" width="48" height="55.69" viewBox="0 0 48 55.69"><defs><style>.cls-1{fill:#fff;}</style></defs><title>gone-busy-logo-small</title><path class="cls-1" d="M48,48.07L42.19,9.72A2,2,0,0,0,39.91,8l-4.58.66L22.06,0.43A2.89,2.89,0,0,0,18.56.8L6.22,12.9l-4.5.65A2,2,0,0,0,0,15.83L5.55,54a2,2,0,0,0,2.28,1.7L46,50.14A2,2,0,0,0,48,48.07ZM19,2.44h0a1.67,1.67,0,0,0-.1.35s0,0.09,0,.14,0,0.08,0,.12a1.57,1.57,0,0,0,0,.3,1.8,1.8,0,0,0,3.56-.48,1.61,1.61,0,0,0-.07-0.33,1.66,1.66,0,0,0-.13-0.3L32.91,9l-24,3.48ZM37.47,42A16.93,16.93,0,1,1,34,18.27,17,17,0,0,1,37.47,42Z"/><path class="cls-1" d="M31,35L27.1,30.63l-1-11.72a1,1,0,0,0-2-.21l-3.38,12a3.32,3.32,0,0,0-.22.87v0c0,0.06,0,.12,0,0.18s0,0.07,0,.1,0,0.12,0,.18,0,0.11,0,.16,0,0.1,0,.16,0,0.11,0,.17l0,0.16,0,0.14,0.06,0.18,0,0.12,0.08,0.18,0.05,0.11L21,33.67,21,33.78l0.1,0.14,0.1,0.14,0.07,0.09,0.17,0.19h0a3.53,3.53,0,0,0,.73.56L22.55,35h0L23,35.22l7,1.38a1,1,0,0,0,1.27-.37A1,1,0,0,0,31,35Zm-7.12-1.22a1.75,1.75,0,1,1,0-3.51A1.7,1.7,0,0,1,25.62,32,1.77,1.77,0,0,1,23.87,33.73Z"/></svg>