<?xml version="1.0" encoding="utf-8"?>
<!-- Generator: Adobe Illustrator 18.0.0, SVG Export Plug-In . SVG Version: 6.00 Build 0)  -->
<!DOCTYPE svg PUBLIC "-//W3C//DTD SVG 1.1//EN" "http://www.w3.org/Graphics/SVG/1.1/DTD/svg11.dtd">
<svg version="1.1" id="Layer_1_copy" xmlns="http://www.w3.org/2000/svg" xmlns:xlink="http://www.w3.org/1999/xlink" x="0px"
	 y="0px" viewBox="0 0 300 245" enable-background="new 0 0 300 245" xml:space="preserve">
<g>
	<path fill="#4EC5E1" d="M114.2,57c-2,0.6-3.8,1.5-5.3,2.7l-8.8-30.6L67,38.6c2.5,2,4.4,4.7,5.3,8c2.4,8.4-2.4,17.1-10.8,19.5
		c-8.4,2.4-17.1-2.4-19.5-10.8c-0.9-3.3-0.8-6.6,0.3-9.6l-31.6,9.1l8.8,30.6c-1.9-0.2-3.9,0-5.9,0.5C5.2,88.4,0.4,97.1,2.8,105.5
		c2.4,8.4,11.2,13.2,19.5,10.8c2-0.6,3.7-1.5,5.3-2.7l8.8,30.6l30.6-8.8c-1.8-1.8-3.1-4.1-3.9-6.7c-2.4-8.4,2.4-17.1,10.8-19.5
		c8.4-2.4,17.1,2.4,19.5,10.8c0.7,2.6,0.8,5.2,0.3,7.7l32.2-9.2l-8.8-30.6c1.9,0.2,3.9,0,5.9-0.5c8.4-2.4,13.2-11.2,10.8-19.5
		C131.4,59.5,122.6,54.6,114.2,57z"/>
	<path fill="#4EC5E1" d="M35.6,145.7l-8.7-30.2c-1.3,0.8-2.8,1.5-4.3,1.9c-4.4,1.3-8.9,0.7-12.9-1.5c-4-2.2-6.8-5.8-8.1-10.2
		c-2.6-9,2.6-18.4,11.6-21c1.5-0.4,3.1-0.7,4.6-0.7L9.2,54l34.9-10l-0.8,2.2c-1,2.9-1.1,5.9-0.3,8.9c1.1,3.8,3.6,6.9,7,8.7
		c3.4,1.9,7.4,2.3,11.1,1.3c7.7-2.2,12.2-10.3,10-18.1c-0.8-2.9-2.6-5.5-4.9-7.4l-1.8-1.4L101,27.6l8.7,30.2
		c1.3-0.8,2.8-1.5,4.3-1.9c4.4-1.3,8.9-0.7,12.9,1.5c4,2.2,6.8,5.8,8.1,10.2c2.6,9-2.6,18.4-11.6,21c-1.5,0.4-3.1,0.7-4.6,0.7
		l8.7,30.2l-35.2,10.1l0.4-1.9c0.5-2.4,0.4-4.8-0.2-7.1c-1.1-3.8-3.6-6.9-7-8.7c-3.4-1.9-7.4-2.3-11.1-1.3
		c-7.7,2.2-12.2,10.3-10,18.1c0.7,2.3,1.9,4.5,3.6,6.2l1.4,1.4L35.6,145.7z M28.3,111.6l9,31.2l27.7-8c-1.3-1.7-2.3-3.6-2.9-5.7
		c-2.6-9,2.6-18.4,11.6-21c4.4-1.3,8.9-0.7,12.9,1.5c4,2.2,6.8,5.8,8.1,10.2c0.6,2.1,0.8,4.3,0.6,6.4l29.3-8.4l-9-31.2l1.7,0.2
		c1.9,0.2,3.7,0,5.5-0.5c7.7-2.2,12.2-10.3,10-18.1c-1.1-3.8-3.6-6.9-7-8.8c-3.4-1.9-7.4-2.3-11.1-1.3c-1.8,0.5-3.4,1.3-4.9,2.5
		l-1.4,1.1l-9-31.2l-30,8.6c1.9,2,3.3,4.4,4.1,7.1c2.6,9-2.6,18.4-11.6,21c-4.4,1.3-8.9,0.7-12.9-1.5c-4-2.2-6.8-5.8-8.1-10.2
		c-0.8-2.7-0.9-5.5-0.3-8.2l-28.4,8.2l9,31.2l-1.7-0.2c-1.9-0.2-3.7,0-5.5,0.5c-7.7,2.2-12.2,10.3-10,18.1c1.1,3.8,3.6,6.9,7,8.7
		c3.4,1.9,7.4,2.3,11.1,1.3c1.8-0.5,3.4-1.3,4.9-2.5L28.3,111.6z"/>
</g>
<path fill="#FFFFFF" stroke="#CCCCCC" stroke-width="0.5" stroke-miterlimit="10" d="M123.6,220.8c-0.6-2-1.5-3.7-2.7-5.3l31.4-9
	l-9.5-33.2c-2,2.5-4.8,4.4-8.2,5.4c-8.6,2.5-17.5-2.3-19.9-10.7c-2.4-8.4,2.6-17.2,11.2-19.7c3.4-1,6.8-0.8,9.8,0.2l-9.1-31.6
	l-31.4,9c0.2-1.9,0.1-3.9-0.5-5.9c-2.4-8.4-11.3-13.2-19.9-10.7c-8.6,2.5-13.6,11.3-11.2,19.7c0.6,2,1.5,3.7,2.7,5.3l-31.4,9
	l8.8,30.6c1.9-1.8,4.2-3.2,6.9-3.9c8.6-2.5,17.5,2.3,19.9,10.7c2.4,8.4-2.6,17.2-11.2,19.7c-2.7,0.8-5.4,0.8-7.9,0.3l9.2,32.2
	l31.4-9c-0.2,1.9-0.1,3.9,0.5,5.9c2.4,8.4,11.3,13.2,19.9,10.7C121,238,126,229.2,123.6,220.8z"/>
<g>
	<path fill="#31B67B" d="M88.9,144l0.3-0.5l5.9,3.2c0.4,0.2,0.6,0.7,0.5,1.1l-1.7,6.1l-0.5-0.1l1.7-6.1c0-0.2-0.1-0.4-0.2-0.5
		L88.9,144z"/>
	<path fill="#31B67B" d="M82.1,161.3c-0.4,0.2-0.7-0.1-0.9-0.5l-5.7-12.3c-0.2-0.4,0-0.8,0.3-0.9l12.3-5.7c0.4-0.2,0.8,0,0.9,0.3
		l5.7,12.3c0.2,0.4,0,0.8-0.3,0.9L82.1,161.3z"/>
	<path fill="#FFFFFF" d="M90.7,153.7c-1.1,3.1-4.5,4.6-7.6,3.5c-3.1-1.1-4.6-4.5-3.5-7.6c1.1-3.1,4.5-4.6,7.6-3.5
		C90.2,147.2,91.8,150.6,90.7,153.7"/>
	<g>
		<path fill="#0A6598" d="M85.2,152.1c-0.3,0.1-0.6-0.1-0.6-0.4c-0.1-0.3,0.1-0.6,0.4-0.6c0.3-0.1,0.6,0.1,0.6,0.4
			C85.6,151.8,85.5,152.1,85.2,152.1 M85.6,152.7L85.6,152.7l4.1-1.6l0,0c0.2,0,0.3-0.2,0.2-0.4c0-0.2-0.2-0.3-0.4-0.3l-4.4,0.1l0,0
			c-0.1,0-0.2,0-0.3,0c-0.6,0.1-1,0.7-0.9,1.4c0.1,0.6,0.7,1,1.4,0.9C85.4,152.7,85.5,152.7,85.6,152.7"/>
		<path fill="#0A6598" d="M83.9,151.7L83.9,151.7l0.2,2.5c0,0.2,0.1,0.3,0.3,0.4c0.2,0,0.3-0.1,0.4-0.2l0,0l1.3-2.1l0,0
			c0-0.1,0.1-0.2,0.1-0.3c0.1-0.6-0.2-1.3-0.9-1.4c-0.6-0.1-1.3,0.2-1.4,0.9C83.9,151.5,83.9,151.6,83.9,151.7"/>
		<path fill="#31B67B" d="M95,147.4c0.1,0.3,0,0.7-0.3,0.8c-0.3,0.1-0.7,0-0.8-0.3c-0.1-0.3,0-0.7,0.3-0.8
			C94.5,146.9,94.9,147.1,95,147.4"/>
	</g>
	<path fill="#FFFFFF" d="M85.2,152.2c-0.3,0.1-0.7-0.1-0.8-0.4c-0.1-0.3,0.1-0.7,0.4-0.8c0.3-0.1,0.7,0.1,0.8,0.4
		C85.8,151.8,85.6,152.1,85.2,152.2"/>
	<polygon fill="#31B67B" points="82.7,163.2 93.3,160 94.1,162.8 89.1,169.7 89.1,169.8 95.6,167.8 96.4,170.6 85.8,173.7 85,171 
		90,164 90,164 83.5,165.9 	"/>
	<polygon fill="#31B67B" points="96.4,178.9 95.4,175.6 93.6,176.2 94.5,179.3 92.2,180 91.3,176.9 89.5,177.4 90.4,180.7 
		88.1,181.4 86.3,175.3 96.9,172.2 98.7,178.2 	"/>
	<path fill="#31B67B" d="M89.8,187.1l-1.3-4.2l10.6-3.1l1.2,3.9c0.6,2.1,0,3.4-1.8,4c-1,0.3-1.9,0.1-2.5-0.5l0,0
		c0.2,1.5-0.4,2.5-2.1,3c-0.5,0.2-1,0.2-1.5,0.1c-0.5-0.1-0.9-0.3-1.2-0.6c-0.3-0.3-0.6-0.7-0.8-1.1C90.2,188.1,90,187.7,89.8,187.1
		 M97.9,183.1l-2.1,0.6l0.1,0.3c0.1,0.4,0.3,0.8,0.5,1c0.2,0.2,0.5,0.3,0.9,0.2c0.2-0.1,0.4-0.2,0.5-0.3c0.1-0.1,0.2-0.3,0.2-0.5
		c0-0.2,0-0.4,0-0.5c0-0.2-0.1-0.4-0.1-0.6L97.9,183.1z M93.7,184.3l-2.3,0.7l0.1,0.4l0.1,0.5c0,0.1,0.1,0.2,0.2,0.4
		c0.1,0.2,0.2,0.4,0.2,0.5c0.1,0.1,0.2,0.2,0.3,0.3c0.1,0.1,0.3,0.2,0.4,0.2c0.2,0,0.3,0,0.5-0.1c0.1,0,0.3-0.1,0.4-0.2
		c0.1-0.1,0.2-0.1,0.2-0.2c0.1-0.1,0.1-0.2,0.1-0.3c0-0.1,0.1-0.2,0.1-0.3c0-0.1,0-0.2,0-0.3c0-0.1,0-0.2-0.1-0.4
		c0-0.2-0.1-0.3-0.1-0.3l-0.1-0.3l-0.1-0.3L93.7,184.3z"/>
	<path fill="#31B67B" d="M103.8,195.3l0.8,2.8l-6,1.8c-0.9,0.3-1.6,0.4-2.2,0.4c-0.6,0-1.2-0.1-1.8-0.4c-1-0.6-1.8-1.6-2.2-3.2
		c-0.5-1.5-0.4-2.8,0.1-3.9c0.3-0.6,0.8-1.1,1.3-1.4c0.5-0.3,1.2-0.6,2.1-0.8l6-1.8l0.8,2.8l-5.6,1.7c-0.3,0.1-0.6,0.2-0.8,0.3
		c-0.2,0.1-0.5,0.2-0.7,0.4c-0.3,0.2-0.5,0.3-0.6,0.5c-0.1,0.2-0.2,0.4-0.3,0.7c0,0.3,0,0.6,0.1,0.9s0.2,0.6,0.4,0.8
		c0.2,0.2,0.4,0.4,0.6,0.4c0.2,0.1,0.5,0.1,0.8,0.1c0.3,0,0.6,0,0.8-0.1c0.2-0.1,0.5-0.1,0.8-0.2L103.8,195.3z"/>
	<path fill="#31B67B" d="M106.4,206.5L104,206c0.3-0.7,0.4-1.4,0.2-2c-0.1-0.3-0.2-0.5-0.5-0.7c-0.2-0.2-0.5-0.3-0.8-0.2
		c-0.2,0.1-0.3,0.2-0.4,0.4c-0.1,0.2-0.2,0.4-0.2,0.5c0,0.2,0,0.4,0,0.6l0,0.8c0,0.9-0.2,1.6-0.5,2.2c-0.3,0.6-0.9,1-1.7,1.2
		c-1.3,0.4-2.3,0.3-3.2-0.2c-0.9-0.6-1.5-1.5-1.9-2.7c-0.4-1.3-0.4-2.7,0.1-4.1l2.6,0.5c-0.5,1.1-0.6,2-0.4,2.8
		c0.1,0.4,0.3,0.6,0.6,0.9c0.3,0.2,0.6,0.3,0.9,0.2c0.5-0.1,0.7-0.7,0.7-1.7c0,0,0-0.2,0-0.4c0-0.5,0-1,0-1.3c0-0.3,0.1-0.7,0.3-1
		c0.1-0.4,0.4-0.6,0.7-0.9c0.3-0.2,0.7-0.4,1.2-0.6c1.1-0.3,2-0.2,2.9,0.3c0.9,0.5,1.4,1.3,1.8,2.3c0.2,0.5,0.2,1.1,0.3,1.8
		C106.6,205.3,106.6,205.9,106.4,206.5"/>
	<polygon fill="#31B67B" points="102.8,212.2 107.1,206.6 108.1,209.9 105.8,212.8 109.3,213.9 110.3,217.2 103.6,214.9 98.5,216.4 
		97.7,213.7 	"/>
	<path fill="#31B67B" d="M82.3,140.4l-0.9-2.9l-2.2,0.6l0.6,2.2c-0.6,0.1-1.2-0.1-1.6-0.4c-0.4-0.3-0.8-0.9-1-1.6
		c-0.3-0.9-0.3-1.6,0.2-2.4c0.5-0.8,1.2-1.2,2.2-1.5c1-0.3,1.7-0.3,2.6,0c0.9,0.3,1.5,1.1,1.7,1.9c0.2,0.5,0.2,1.2,0,1.7
		c-0.2,0.5-0.5,0.9-1,1.3l1.8,2.1c0.8-0.7,1.3-1.5,1.6-2.5c0.3-1,0.3-2.1,0-3.2c-0.5-1.8-1.5-3-2.8-3.8c-1.4-0.7-2.9-0.9-4.6-0.4
		c-1.7,0.5-2.8,1.4-3.6,2.8c-0.7,1.4-0.9,2.8-0.4,4.5c0.4,1.4,1.1,2.3,2.2,2.9l-1.1,0.3l0.6,1.9l6.2-1.8L82.3,140.4z"/>
	<path fill="#31B67B" d="M88.9,144l0.3-0.5l5.9,3.2c0.4,0.2,0.6,0.7,0.5,1.1l-1.7,6.1l-0.5-0.1l1.7-6.1c0-0.2-0.1-0.4-0.2-0.5
		L88.9,144z"/>
	<path fill="#31B67B" d="M82.1,161.3c-0.4,0.2-0.7-0.1-0.9-0.5l-5.7-12.3c-0.2-0.4,0-0.8,0.3-0.9l12.3-5.7c0.4-0.2,0.8,0,0.9,0.3
		l5.7,12.3c0.2,0.4,0,0.8-0.3,0.9L82.1,161.3z"/>
	<path fill="#FFFFFF" d="M90.7,153.7c-1.1,3.1-4.5,4.6-7.6,3.5c-3.1-1.1-4.6-4.5-3.5-7.6c1.1-3.1,4.5-4.6,7.6-3.5
		C90.2,147.2,91.8,150.6,90.7,153.7"/>
	<g>
		<path fill="#972068" d="M85.2,152.1c-0.3,0.1-0.6-0.1-0.6-0.4c-0.1-0.3,0.1-0.6,0.4-0.6c0.3-0.1,0.6,0.1,0.6,0.4
			C85.6,151.8,85.5,152.1,85.2,152.1 M85.6,152.7L85.6,152.7l4.1-1.6l0,0c0.2,0,0.3-0.2,0.2-0.4c0-0.2-0.2-0.3-0.4-0.3l-4.4,0.1l0,0
			c-0.1,0-0.2,0-0.3,0c-0.6,0.1-1,0.7-0.9,1.4c0.1,0.6,0.7,1,1.4,0.9C85.4,152.7,85.5,152.7,85.6,152.7"/>
		<path fill="#972068" d="M83.9,151.7L83.9,151.7l0.2,2.5c0,0.2,0.1,0.3,0.3,0.4c0.2,0,0.3-0.1,0.4-0.2l0,0l1.3-2.1l0,0
			c0-0.1,0.1-0.2,0.1-0.3c0.1-0.6-0.2-1.3-0.9-1.4c-0.6-0.1-1.3,0.2-1.4,0.9C83.9,151.5,83.9,151.6,83.9,151.7"/>
		<path fill="#31B67B" d="M95,147.4c0.1,0.3,0,0.7-0.3,0.8c-0.3,0.1-0.7,0-0.8-0.3c-0.1-0.3,0-0.7,0.3-0.8
			C94.5,146.9,94.9,147.1,95,147.4"/>
	</g>
	<path fill="#FFFFFF" d="M85.2,152.2c-0.3,0.1-0.7-0.1-0.8-0.4c-0.1-0.3,0.1-0.7,0.4-0.8c0.3-0.1,0.7,0.1,0.8,0.4
		C85.8,151.8,85.6,152.1,85.2,152.2"/>
	<polygon fill="#31B67B" points="82.7,163.2 93.3,160 94.1,162.8 89.1,169.7 89.1,169.8 95.6,167.8 96.4,170.6 85.8,173.7 85,171 
		90,164 90,164 83.5,165.9 	"/>
	<polygon fill="#31B67B" points="96.4,178.9 95.4,175.6 93.6,176.2 94.5,179.3 92.2,180 91.3,176.9 89.5,177.4 90.4,180.7 
		88.1,181.4 86.3,175.3 96.9,172.2 98.7,178.2 	"/>
	<path fill="#31B67B" d="M89.8,187.1l-1.3-4.2l10.6-3.1l1.2,3.9c0.6,2.1,0,3.4-1.8,4c-1,0.3-1.9,0.1-2.5-0.5l0,0
		c0.2,1.5-0.4,2.5-2.1,3c-0.5,0.2-1,0.2-1.5,0.1c-0.5-0.1-0.9-0.3-1.2-0.6c-0.3-0.3-0.6-0.7-0.8-1.1C90.2,188.1,90,187.7,89.8,187.1
		 M97.9,183.1l-2.1,0.6l0.1,0.3c0.1,0.4,0.3,0.8,0.5,1c0.2,0.2,0.5,0.3,0.9,0.2c0.2-0.1,0.4-0.2,0.5-0.3c0.1-0.1,0.2-0.3,0.2-0.5
		c0-0.2,0-0.4,0-0.5c0-0.2-0.1-0.4-0.1-0.6L97.9,183.1z M93.7,184.3l-2.3,0.7l0.1,0.4l0.1,0.5c0,0.1,0.1,0.2,0.2,0.4
		c0.1,0.2,0.2,0.4,0.2,0.5c0.1,0.1,0.2,0.2,0.3,0.3c0.1,0.1,0.3,0.2,0.4,0.2c0.2,0,0.3,0,0.5-0.1c0.1,0,0.3-0.1,0.4-0.2
		c0.1-0.1,0.2-0.1,0.2-0.2c0.1-0.1,0.1-0.2,0.1-0.3c0-0.1,0.1-0.2,0.1-0.3c0-0.1,0-0.2,0-0.3c0-0.1,0-0.2-0.1-0.4
		c0-0.2-0.1-0.3-0.1-0.3l-0.1-0.3l-0.1-0.3L93.7,184.3z"/>
	<path fill="#31B67B" d="M103.8,195.3l0.8,2.8l-6,1.8c-0.9,0.3-1.6,0.4-2.2,0.4c-0.6,0-1.2-0.1-1.8-0.4c-1-0.6-1.8-1.6-2.2-3.2
		c-0.5-1.5-0.4-2.8,0.1-3.9c0.3-0.6,0.8-1.1,1.3-1.4c0.5-0.3,1.2-0.6,2.1-0.8l6-1.8l0.8,2.8l-5.6,1.7c-0.3,0.1-0.6,0.2-0.8,0.3
		c-0.2,0.1-0.5,0.2-0.7,0.4c-0.3,0.2-0.5,0.3-0.6,0.5c-0.1,0.2-0.2,0.4-0.3,0.7c0,0.3,0,0.6,0.1,0.9s0.2,0.6,0.4,0.8
		c0.2,0.2,0.4,0.4,0.6,0.4c0.2,0.1,0.5,0.1,0.8,0.1c0.3,0,0.6,0,0.8-0.1c0.2-0.1,0.5-0.1,0.8-0.2L103.8,195.3z"/>
	<path fill="#31B67B" d="M106.4,206.5L104,206c0.3-0.7,0.4-1.4,0.2-2c-0.1-0.3-0.2-0.5-0.5-0.7c-0.2-0.2-0.5-0.3-0.8-0.2
		c-0.2,0.1-0.3,0.2-0.4,0.4c-0.1,0.2-0.2,0.4-0.2,0.5c0,0.2,0,0.4,0,0.6l0,0.8c0,0.9-0.2,1.6-0.5,2.2c-0.3,0.6-0.9,1-1.7,1.2
		c-1.3,0.4-2.3,0.3-3.2-0.2c-0.9-0.6-1.5-1.5-1.9-2.7c-0.4-1.3-0.4-2.7,0.1-4.1l2.6,0.5c-0.5,1.1-0.6,2-0.4,2.8
		c0.1,0.4,0.3,0.6,0.6,0.9c0.3,0.2,0.6,0.3,0.9,0.2c0.5-0.1,0.7-0.7,0.7-1.7c0,0,0-0.2,0-0.4c0-0.5,0-1,0-1.3c0-0.3,0.1-0.7,0.3-1
		c0.1-0.4,0.4-0.6,0.7-0.9c0.3-0.2,0.7-0.4,1.2-0.6c1.1-0.3,2-0.2,2.9,0.3c0.9,0.5,1.4,1.3,1.8,2.3c0.2,0.5,0.2,1.1,0.3,1.8
		C106.6,205.3,106.6,205.9,106.4,206.5"/>
	<polygon fill="#31B67B" points="102.8,212.2 107.1,206.6 108.1,209.9 105.8,212.8 109.3,213.9 110.3,217.2 103.6,214.9 98.5,216.4 
		97.7,213.7 	"/>
	<path fill="#31B67B" d="M82.3,140.4l-0.9-2.9l-2.2,0.6l0.6,2.2c-0.6,0.1-1.2-0.1-1.6-0.4c-0.4-0.3-0.8-0.9-1-1.6
		c-0.3-0.9-0.3-1.6,0.2-2.4c0.5-0.8,1.2-1.2,2.2-1.5c1-0.3,1.7-0.3,2.6,0c0.9,0.3,1.5,1.1,1.7,1.9c0.2,0.5,0.2,1.2,0,1.7
		c-0.2,0.5-0.5,0.9-1,1.3l1.8,2.1c0.8-0.7,1.3-1.5,1.6-2.5c0.3-1,0.3-2.1,0-3.2c-0.5-1.8-1.5-3-2.8-3.8c-1.4-0.7-2.9-0.9-4.6-0.4
		c-1.7,0.5-2.8,1.4-3.6,2.8c-0.7,1.4-0.9,2.8-0.4,4.5c0.4,1.4,1.1,2.3,2.2,2.9l-1.1,0.3l0.6,1.9l6.2-1.8L82.3,140.4z"/>
</g>
<g>
	<path fill="#32B77D" d="M177.5,130.4c2.1,0,4-0.4,5.8-1.1l-0.3,31.9l34.5,0.3c-1.8-2.6-2.9-5.8-2.8-9.2c0.1-8.7,7.2-15.7,15.9-15.6
		c8.7,0.1,15.7,7.2,15.6,16c0,3.4-1.2,6.6-3,9.1l32.9,0.3l0.3-31.9c1.8,0.7,3.8,1.2,5.8,1.2c8.7,0.1,15.9-6.9,15.9-15.6
		c0.1-8.7-6.9-15.9-15.6-15.9c-2.1,0-4,0.4-5.8,1.1L277,69l-31.8-0.3c1.2,2.2,1.8,4.8,1.8,7.5c-0.1,8.7-7.2,15.7-15.9,15.6
		c-8.7-0.1-15.7-7.2-15.6-15.9c0-2.7,0.7-5.2,2-7.5L184,68.1l-0.3,31.9c-1.8-0.7-3.8-1.2-5.8-1.2c-8.7-0.1-15.9,6.9-15.9,15.6
		C161.8,123.2,168.8,130.3,177.5,130.4z"/>
	<path fill="#32B77D" d="M181.8,162.4l0.3-31.4c-1.5,0.4-3.1,0.6-4.6,0.6c-4.5,0-8.8-1.8-11.9-5.1c-3.2-3.2-4.9-7.5-4.8-12
		c0.1-9.4,7.8-16.9,17.1-16.8c1.6,0,3.1,0.3,4.6,0.7l0.3-31.4l36.6,0.4l-0.9,1.7c-1.2,2.1-1.8,4.5-1.8,6.9c0,3.9,1.4,7.6,4.2,10.4
		c2.7,2.8,6.4,4.3,10.3,4.4c8.1,0.1,14.7-6.4,14.8-14.5c0-2.4-0.6-4.8-1.7-6.9l-0.9-1.7l34.9,0.3l-0.3,31.4c1.5-0.4,3.1-0.6,4.6-0.6
		c4.5,0,8.8,1.9,11.9,5.1c3.2,3.2,4.9,7.5,4.8,12c-0.1,9.4-7.8,16.9-17.1,16.8c-1.6,0-3.1-0.3-4.6-0.7l-0.3,31.4l-36.3-0.4l1.3-1.8
		c1.8-2.5,2.8-5.4,2.8-8.4c0-3.9-1.4-7.6-4.2-10.4c-2.7-2.8-6.4-4.3-10.3-4.4c-8.1-0.1-14.7,6.4-14.8,14.5c0,3,0.9,6,2.6,8.5
		l1.3,1.9L181.8,162.4z M184.5,127.6l-0.3,32.4l31.2,0.3c-1.3-2.5-1.9-5.2-1.9-8c0.1-9.4,7.8-16.9,17.1-16.8c4.5,0,8.8,1.9,11.9,5.1
		c3.2,3.2,4.9,7.5,4.9,12c0,2.8-0.7,5.5-2.1,7.9l29.6,0.3l0.3-32.4l1.6,0.7c1.7,0.7,3.5,1.1,5.4,1.1c8.1,0.1,14.7-6.4,14.8-14.5
		c0-3.9-1.4-7.6-4.2-10.4c-2.7-2.8-6.4-4.3-10.3-4.4c-1.8,0-3.7,0.3-5.4,1l-1.6,0.6l0.3-32.4l-28.8-0.3c0.8,2,1.2,4.2,1.1,6.3
		c-0.1,9.4-7.8,16.9-17.1,16.8c-4.5,0-8.8-1.9-11.9-5.1c-3.2-3.2-4.9-7.5-4.8-12c0-2.2,0.5-4.3,1.3-6.3l-30.4-0.3l-0.3,32.4
		l-1.6-0.7c-1.7-0.7-3.5-1.1-5.4-1.1c-8.1-0.1-14.7,6.4-14.8,14.5c0,3.9,1.4,7.6,4.2,10.4c2.7,2.8,6.4,4.3,10.3,4.4
		c1.8,0,3.6-0.3,5.4-1L184.5,127.6z"/>
</g>
<g>
	<path fill="#333333" d="M36.5,99.8l-1.2,0.4l-0.7-2.4l-4.2-4.1l1.2-0.4l3.2,3l1-4.2l1.3-0.4l-1.2,5.7L36.5,99.8z"/>
	<path fill="#333333" d="M46,93c0.6,2.1-0.6,4.2-2.8,4.9c-2.2,0.7-4.4-0.5-5-2.6c-0.6-2.1,0.6-4.2,2.8-4.9
		C43.2,89.8,45.4,90.9,46,93z M39.5,95c0.4,1.5,2,2.3,3.4,1.8s2.3-1.9,1.8-3.4c-0.4-1.5-2-2.2-3.4-1.8C39.9,92,39,93.5,39.5,95z"/>
	<path fill="#333333" d="M53.7,91.4c0.6,1.9-0.3,3.5-2.3,4c-2,0.6-3.6-0.2-4.1-2.1L46.1,89l1.2-0.4l1.3,4.3c0.4,1.2,1.4,1.8,2.6,1.4
		c1.2-0.4,1.7-1.3,1.4-2.6l-1.3-4.3l1.2-0.4L53.7,91.4z"/>
	<path fill="#333333" d="M59.1,90.7c-0.1,0-0.2,0.1-0.3,0.1L57,91.3l0.7,2.2l-1.2,0.4l-2.2-7.3l3-0.9c1.9-0.6,3.2,0,3.7,1.6
		c0.4,1.2,0.1,2.2-0.8,2.8l2.4,2l-1.4,0.4L59.1,90.7z M58.4,89.7c1.1-0.3,1.6-1,1.3-2c-0.3-1-1.1-1.2-2.2-0.9l-1.7,0.5l0.9,2.9
		L58.4,89.7z"/>
	<path fill="#333333" d="M67.7,82.5c1.5-0.5,2.7,0,3,1.1c0.2,0.8-0.1,1.6-0.8,2c1-0.1,1.8,0.4,2.1,1.4c0.4,1.3-0.4,2.3-2.1,2.8
		l-3.3,1l-2.2-7.3L67.7,82.5z M66.7,86.2l1.9-0.6c0.8-0.2,1.2-0.7,1-1.4s-0.8-0.8-1.5-0.6l-1.9,0.6L66.7,86.2z M67.6,89.4l1.9-0.6
		c1-0.3,1.4-0.8,1.2-1.5c-0.2-0.7-0.9-0.9-1.9-0.6L67,87.3L67.6,89.4z"/>
	<path fill="#333333" d="M76.8,85.4c-0.1,0-0.2,0.1-0.3,0.1L74.7,86l0.7,2.2l-1.2,0.4L72,81.3l3-0.9c1.9-0.6,3.2,0,3.7,1.6
		c0.4,1.2,0.1,2.2-0.8,2.8l2.4,2l-1.4,0.4L76.8,85.4z M76.1,84.4c1.1-0.3,1.6-1,1.3-2c-0.3-1-1.1-1.2-2.2-0.9L73.5,82l0.9,2.9
		L76.1,84.4z"/>
	<path fill="#333333" d="M82.3,84.4l-0.2,1.9l-1.3,0.4l1.1-8.3l1.3-0.4l5.4,6.4l-1.3,0.4L86,83.3L82.3,84.4z M82.8,79.5l-0.4,3.7
		l2.8-0.8L82.8,79.5z"/>
	<path fill="#333333" d="M94.6,82.5l-5.5-4.1l1.6,5.3L89.5,84l-2.2-7.3l1.2-0.4l5.5,4.1l-1.6-5.3l1.2-0.4l2.2,7.3L94.6,82.5z"/>
	<path fill="#333333" d="M98.6,73.3c2.2-0.7,4.3,0.4,4.9,2.5c0.6,2.1-0.5,4.2-2.7,4.8l-3,0.9l-2.2-7.3L98.6,73.3z M98.7,80.1
		l1.8-0.5c1.4-0.4,2.2-1.8,1.8-3.3c-0.4-1.5-1.9-2.2-3.3-1.8L97.2,75L98.7,80.1z"/>
</g>
<g>
	<path fill="#333333" d="M187.8,119.9h-1.1v-2.2l-2.5-4.5h1.1l1.9,3.3l1.9-3.3h1.1l-2.5,4.5V119.9z"/>
	<path fill="#333333" d="M197.4,116.6c0,1.9-1.5,3.4-3.5,3.4c-2,0-3.5-1.5-3.5-3.4c0-1.9,1.5-3.4,3.5-3.4
		C195.9,113.2,197.4,114.7,197.4,116.6z M191.5,116.6c0,1.3,1.1,2.4,2.4,2.4c1.3,0,2.4-1.1,2.4-2.4c0-1.3-1.1-2.4-2.4-2.4
		C192.6,114.2,191.5,115.2,191.5,116.6z"/>
	<path fill="#333333" d="M204.3,117.1c0,1.8-1.1,2.8-2.9,2.8c-1.8,0-2.9-1.1-2.9-2.8v-3.9h1.1v3.9c0,1.1,0.7,1.8,1.8,1.8
		c1.1,0,1.8-0.7,1.8-1.8v-3.9h1.1V117.1z"/>
	<path fill="#333333" d="M209,117.9c-0.1,0-0.2,0-0.3,0h-1.6v2h-1.1v-6.7h2.7c1.7,0,2.7,0.8,2.7,2.3c0,1.1-0.5,1.8-1.4,2.2l1.5,2.2
		h-1.3L209,117.9z M208.7,116.9c1,0,1.6-0.4,1.6-1.3c0-0.9-0.6-1.3-1.6-1.3h-1.6v2.7H208.7z"/>
	<path fill="#333333" d="M220.8,114.2l-0.7,0.8c-0.5-0.5-1.2-0.9-1.9-0.9c-1.3,0-2.4,1-2.4,2.4s1.1,2.4,2.4,2.4
		c0.7,0,1.4-0.3,1.9-0.8l0.7,0.7c-0.7,0.7-1.6,1.1-2.6,1.1c-2,0-3.5-1.5-3.5-3.4c0-1.9,1.5-3.4,3.5-3.4
		C219.2,113.2,220.2,113.6,220.8,114.2z"/>
	<path fill="#333333" d="M227.7,117.1c0,1.8-1.1,2.8-2.9,2.8c-1.8,0-2.9-1.1-2.9-2.8v-3.9h1.1v3.9c0,1.1,0.7,1.8,1.8,1.8
		c1.1,0,1.8-0.7,1.8-1.8v-3.9h1.1V117.1z"/>
	<path fill="#333333" d="M233.9,113.9l-0.5,1c-0.7-0.4-1.5-0.6-2-0.6c-0.7,0-1.1,0.2-1.1,0.7c0,1.5,3.6,0.7,3.6,3.1
		c0,1.2-1.1,1.9-2.5,1.9c-1.1,0-2-0.4-2.7-1.1l0.5-1c0.7,0.6,1.5,1,2.3,1c0.8,0,1.3-0.3,1.3-0.8c0-1.5-3.6-0.7-3.6-3
		c0-1.1,1-1.9,2.4-1.9C232.4,113.2,233.2,113.4,233.9,113.9z"/>
	<path fill="#333333" d="M237.7,114.2v5.7h-1.1v-5.7h-2.1v-1h5.4v1H237.7z"/>
	<path fill="#333333" d="M246.9,116.6c0,1.9-1.5,3.4-3.5,3.4c-2,0-3.5-1.5-3.5-3.4c0-1.9,1.5-3.4,3.5-3.4
		C245.4,113.2,246.9,114.7,246.9,116.6z M241,116.6c0,1.3,1.1,2.4,2.4,2.4c1.3,0,2.4-1.1,2.4-2.4c0-1.3-1.1-2.4-2.4-2.4
		C242.1,114.2,241,115.2,241,116.6z"/>
	<path fill="#333333" d="M254.2,119.9l0-5l-2.1,4.3h-0.7l-2.1-4.3v5h-1.1v-6.7h1.3l2.2,4.4l2.2-4.4h1.3v6.7H254.2z"/>
	<path fill="#333333" d="M258.1,114.2v1.8h3.3v1h-3.3v1.8h3.8v1H257v-6.7h4.8v1H258.1z"/>
	<path fill="#333333" d="M266.3,117.9c-0.1,0-0.2,0-0.3,0h-1.6v2h-1.1v-6.7h2.7c1.7,0,2.7,0.8,2.7,2.3c0,1.1-0.5,1.8-1.4,2.2
		l1.5,2.2h-1.3L266.3,117.9z M266,116.9c1,0,1.6-0.4,1.6-1.3c0-0.9-0.6-1.3-1.6-1.3h-1.6v2.7H266z"/>
	<path fill="#333333" d="M274.7,113.9l-0.5,1c-0.7-0.4-1.5-0.6-2-0.6c-0.7,0-1.1,0.2-1.1,0.7c0,1.5,3.6,0.7,3.6,3.1
		c0,1.2-1.1,1.9-2.5,1.9c-1.1,0-2-0.4-2.7-1.1l0.5-1c0.7,0.6,1.5,1,2.3,1c0.8,0,1.3-0.3,1.3-0.8c0-1.5-3.6-0.7-3.6-3
		c0-1.1,1-1.9,2.4-1.9C273.2,113.2,274.1,113.4,274.7,113.9z"/>
</g>
</svg>
