<svg id="Layer_2" data-name="Layer 2" xmlns="http://www.w3.org/2000/svg" width="77.12" height="71.02" viewBox="0 0 77.12 71.02"><defs><style>.cls-1{opacity:0.2;}.cls-2{fill:#1081b9;}.cls-3{fill:#fff;}</style></defs><title>van</title><path class="cls-1" d="M65.82,71s-9.4-1.3-13.4-6.1c-7.1,1.2-25.8,2.2-36.8-2.7S1.72,45.62,2,35.12s0.5-17.7,6.6-24.2,13.3-7.6,21.6-8.4,36.7-2.7,43.1,13,5.1,38.2-7.7,45.4c-0.5.9-2,3.4,0.2,10.1"/><path class="cls-2" d="M63.82,69s-9.4-1.3-13.4-6.1c-7.1,1.2-25.8,2.2-36.8-2.7S-0.28,43.62,0,33.12s0.5-17.7,6.6-24.2,13.3-7.6,21.6-8.4,36.7-2.7,43.1,13,5.1,38.2-7.7,45.4c-0.5.9-2,3.4,0.2,10.1"/><path class="cls-3" d="M54.82,37.12a3.8,3.8,0,1,0,3.8,3.8,3.8,3.8,0,0,0-3.8-3.8m0,1.5a2.3,2.3,0,1,1-2.3,2.3,2.33,2.33,0,0,1,2.3-2.3"/><path class="cls-3" d="M22.72,37.12a3.8,3.8,0,1,0,3.8,3.8,3.8,3.8,0,0,0-3.8-3.8m0,1.5a2.3,2.3,0,1,1-2.3,2.3,2.26,2.26,0,0,1,2.3-2.3"/><path class="cls-3" d="M53.82,29.82a1.62,1.62,0,0,1-1.6.8l-6.7-.5a1.65,1.65,0,0,1-1.5-1.7v-3.6a1.75,1.75,0,0,1,1.7-1.7h3.9a1.75,1.75,0,0,1,1.4.7l2.8,4.1a2.11,2.11,0,0,1,0,1.9m10.4,5.9-0.7-.9s-0.7-3.5-2.5-4.5l-5.2-1.5-4.3-6.5a9.4,9.4,0,0,0-5.8-2.5H19.92c-2.7,0-4,.8-4.7,3.3v11.3a1.66,1.66,0,0,1-.5,1.2,1.3,1.3,0,0,0-.5,1.3c0.1,1.1-.6,3.1.8,4.2h3.1v-0.4a4.6,4.6,0,0,1,9.2,0v0.4h23v-0.4a4.59,4.59,0,0,1,4.6-4.6,4.53,4.53,0,0,1,4.6,4.6v0.4h1.7a2.1,2.1,0,0,0,1.1-.4l1.9-1.7a1.66,1.66,0,0,0,.5-1.2v-1.2a4.06,4.06,0,0,0-.5-0.9"/></svg>