<svg xmlns="http://www.w3.org/2000/svg" viewBox="0 0 1438.54 308.8">
  <title>gonebusy-full-logo</title>
  <path d="M127.68,93.41a12.93,12.93,0,0,0-12.92,12.91h0c-12.92-11-28.11-15.83-44-15.83a67.27,67.27,0,0,0-34.37,8.91A74.07,74.07,0,0,0,.2,163.65c0,28.07,14.65,51.49,36,64,9.59,5.72,22.78,9.31,35.3,9.31,16.78,0,31.17-5.32,42.49-15.3v7.72c0,17.69-2.66,28.47-7.73,36.19-6.93,10.51-18.92,16.1-34.1,16.1-16.78,0-28.37-6.25-37.3-14.77a14.5,14.5,0,0,0-20-.27,14.21,14.21,0,0,0,0,21c12,10.91,31.57,20.89,58.48,20.89,27.84,0,49.42-12.91,60.74-34.72,5.73-11,8.39-25.15,8.39-46V107.91A14.78,14.78,0,0,0,127.68,93.41ZM113.83,190c-9.59,12.91-24.24,20.09-38.63,20.09-27.31,0-46.76-21.29-46.76-46.3,0-24.48,18-46.3,45.16-46.3a50.48,50.48,0,0,1,40.1,20.09V190Z" transform="translate(-0.2 -0.27)" style="fill: #1e262e"/>
  <path d="M515.06,90.35a60.91,60.91,0,0,0-42.23,16.5,13.41,13.41,0,0,0-13.45-13.44h-.67a13.41,13.41,0,0,0-13.45,13.44V220.46a13.41,13.41,0,0,0,13.45,13.44h1.47a13.41,13.41,0,0,0,13.45-13.44V137.31C482,127.2,495.47,117.22,514,117.22c11.72,0,22.51,5.32,29,13.7,5.06,6.25,8.39,14.63,8.39,32.6v56.81a13.41,13.41,0,0,0,13.45,13.44h1.47a13.41,13.41,0,0,0,13.45-13.44V165c0-24.21-4.8-38.58-13.72-49.89A64.57,64.57,0,0,0,515.06,90.35Z" transform="translate(-0.2 -0.27)" style="fill: #1e262e"/>
  <path d="M685.16,90.35c-39.83,0-68.6,31.13-68.6,73.31S648.27,237,689.29,237c21,0,37.43-6.92,48.75-15.83a12.76,12.76,0,0,0,1.07-19.42l-.27-.27a13,13,0,0,0-17.18-.4c-7.46,6.12-17.45,11-32.1,11A45.5,45.5,0,0,1,644,169.64H752.44a57.55,57.55,0,0,0,.27-6C752.84,122,724.33,90.35,685.16,90.35Zm-38.63,55.35a40.94,40.94,0,0,1,39.56-30.47c16.78,0,32.9,12.51,37.17,30.47Z" transform="translate(-0.2 -0.27)" style="fill: #1e262e"/>
  <path d="M902.56,99.39c-9.59-5.72-21.31-8.91-34.37-8.91A66.75,66.75,0,0,0,825,105.78V34.6a12.93,12.93,0,0,0-12.92-12.91h-2.66A12.93,12.93,0,0,0,796.53,34.6V221.26a12.93,12.93,0,0,0,12.92,12.91h1.73a12.93,12.93,0,0,0,12.92-12.91c11.32,10.11,26.64,15.83,43.43,15.83,12.52,0,25.71-3.59,35.3-9.31,21.31-12.51,36-35.92,36-64A74.41,74.41,0,0,0,902.56,99.39ZM863.67,210c-14.39,0-29-7.18-38.63-20.09V137.18a50.87,50.87,0,0,1,40.1-20.09c27.31,0,45.16,21.82,45.16,46.3C910.29,188.8,890.84,210,863.67,210Z" transform="translate(-0.2 -0.27)" style="fill: #1e262e"/>
  <path d="M1101.31,93.41h-2.66a12.93,12.93,0,0,0-12.92,12.91V190c-8.13,9.58-22.11,20.09-39.56,20.09a36.32,36.32,0,0,1-27.31-12.24c-5.06-6-8.13-13.7-8.13-28.07V106.44a12.93,12.93,0,0,0-12.92-12.91h-2.66a12.93,12.93,0,0,0-12.92,12.91v58.94c0,23.68,4.13,37.39,12.92,48.16a63.91,63.91,0,0,0,50,23.68c19.45,0,35-9.85,41.3-15.83a12.93,12.93,0,0,0,12.92,12.91H1101A12.93,12.93,0,0,0,1114,221.39V106.58A12.53,12.53,0,0,0,1101.31,93.41Z" transform="translate(-0.2 -0.27)" style="fill: #1e262e"/>
  <path d="M1211.61,149.28c-14.12-3.59-25.18-6.92-25.18-16.5,0-11,11.72-17.69,25.44-17.69a44.9,44.9,0,0,1,21.31,5.45,12.62,12.62,0,1,0,11.19-22.62c-9.19-4.66-20.51-7.45-34.23-7.45-25.18,0-52.09,13.7-52.09,43.9,0,19.69,15.32,30.47,32.37,36.19,20.65,6.92,44,7.72,44,23.95,0,11-12.26,17.69-24.51,17.69-10.66,0-21.45-3.06-31.7-8.91a12.89,12.89,0,0,0-17.05,3.46l-.27.4a12.53,12.53,0,0,0,3.6,18c13.32,7.72,28.51,12,46.09,12,27.57,0,52.35-16.5,52.35-43.11C1262.76,164.85,1233.72,155,1211.61,149.28Z" transform="translate(-0.2 -0.27)" style="fill: #1e262e"/>
  <path d="M1424.61,93.41a14.26,14.26,0,0,0-14.25,14.24v82.49c-8.13,9.58-22.11,20.09-39.56,20.09A36.32,36.32,0,0,1,1343.49,198c-5.06-6-8.13-13.7-8.13-28.07v-62a14.25,14.25,0,0,0-28.51,0v57.61c0,23.68,4.13,37.39,12.92,48.16a63.29,63.29,0,0,0,90.32,8.65v7.58c0,17.69-2.66,28.47-7.73,36.19-6.93,10.51-18.92,16.1-34.1,16.1-16.92,0-28.51-6.25-37.43-14.9a14.13,14.13,0,0,0-19.58-.27l-.27.27a14.12,14.12,0,0,0,0,20.75c12,10.91,31.7,21,58.61,21,27.84,0,49.42-12.91,60.74-34.72,5.06-10,7.86-22.35,8.26-40h.13V107.51A14,14,0,0,0,1424.61,93.41Z" transform="translate(-0.2 -0.27)" style="fill: #1e262e"/>
  <ellipse cx="292.4" cy="161.25" rx="82.99" ry="82.89" style="fill: none;stroke: #ffcd0a;stroke-width: 19.98149871826172px"/>
  <path d="M292.59,53.49h0a8.15,8.15,0,0,1-8.13-8.12v-33a8.15,8.15,0,0,1,8.13-8.12h0a8.15,8.15,0,0,1,8.13,8.12v33A8.24,8.24,0,0,1,292.59,53.49Z" transform="translate(-0.2 -0.27)" style="fill: #ffcd0a;stroke: #ffcd0a;stroke-width: 7.9925994873046875px"/>
  <path d="M386.24,107.51h0a8.06,8.06,0,0,1,2.93-11L417.81,80a8.08,8.08,0,0,1,11.06,2.93h0a8.06,8.06,0,0,1-2.93,11l-28.64,16.5A8.08,8.08,0,0,1,386.24,107.51Z" transform="translate(-0.2 -0.27)" style="fill: #ffcd0a;stroke: #ffcd0a;stroke-width: 7.9925994873046875px"/>
  <path d="M346.68,68h0a8.06,8.06,0,0,1-2.93-11l16.52-28.6a8.08,8.08,0,0,1,11.06-2.93h0a8.06,8.06,0,0,1,2.93,11l-16.52,28.6A8.08,8.08,0,0,1,346.68,68Z" transform="translate(-0.2 -0.27)" style="fill: #ffcd0a;stroke: #ffcd0a;stroke-width: 7.9925994873046875px"/>
  <path d="M198.81,107.51h0a8.08,8.08,0,0,1-11.06,2.93l-28.64-16.5a8.06,8.06,0,0,1-2.93-11h0A8.08,8.08,0,0,1,167.24,80l28.64,16.5A8.06,8.06,0,0,1,198.81,107.51Z" transform="translate(-0.2 -0.27)" style="fill: #ffcd0a;stroke: #ffcd0a;stroke-width: 7.9925994873046875px"/>
  <path d="M238.51,68h0a8.08,8.08,0,0,1-11.06-2.93l-16.52-28.6a8.06,8.06,0,0,1,2.93-11h0a8.08,8.08,0,0,1,11.06,2.93L241.44,57A8.06,8.06,0,0,1,238.51,68Z" transform="translate(-0.2 -0.27)" style="fill: #ffcd0a;stroke: #ffcd0a;stroke-width: 7.9925994873046875px"/>
  <path d="M275.94,188.93l-17.72-17.69s-6.26-4.92-.27-12c0,0,6.66-6,13.32,0l10.66,10.91,2.4,1.33,32.24-33.66s7.19-8.25,12.26-3.33c0,0,8.53,5.72,1.33,13.3l-40.23,41.11S284.34,197.31,275.94,188.93Z" transform="translate(-0.2 -0.27)" style="fill: #009cd9;stroke: #009cd9;stroke-width: 2px"/>
</svg>
