<svg viewBox="0 0 256 256">
  <path fill="currentColor" d="M1,128.86A128,128,0,0,0,190.58,241.07l.43-.28a10.64,10.64,0,0,0-5-20.05,11.2,11.2,0,0,0-5.26,1.42,106.69,106.69,0,1,1,54.9-93.3c0,21.33-8.53,35.56-24.89,35.56-14.93,0-24.89-10-24.89-24.89V82.64a10.67,10.67,0,1,0-21.33,0v1.85a56.89,56.89,0,1,0,7.25,81.78c7.82,12.23,21.62,19.48,39,19.48,29.16,0,46.22-22.76,46.22-56.89a128,128,0,1,0-256,0Zm92.44,0A35.56,35.56,0,1,1,129,164.42,35.57,35.57,0,0,1,93.44,128.86Z" transform="translate(-1 -0.86)"/>
</svg>
